<?xml version="1.0" encoding="utf-8"?>
<!-- Generator: Adobe Illustrator 25.0.1, SVG Export Plug-In . SVG Version: 6.00 Build 0)  -->
<svg version="1.1" id="a338e755-f6c7-45a0-8ec7-0e8a92e33cf6"
	 xmlns="http://www.w3.org/2000/svg" xmlns:xlink="http://www.w3.org/1999/xlink" x="0px" y="0px" viewBox="0 0 816.2 700.6"
	 style="enable-background:new 0 0 816.2 700.6;" xml:space="preserve">
<style type="text/css">
	.st0{fill:#F2F2F2;}
	.st1{fill:#FFFFFF;}
	.st2{fill:#E6E6E6;}
	.st3{fill:#005EFF;}
	.st4{fill:#3F3D56;}
	.st5{fill:#CCCCCC;}
</style>
<path class="st0" d="M578.4,661.2c-5.3,0-10.5-1.3-15.1-3.9L134.2,422.6c-15.3-8.4-20.9-27.5-12.5-42.8L302.7,48.7
	c8.4-15.3,27.5-20.9,42.8-12.5c0,0,0,0,0,0l429.1,234.7c15.3,8.4,20.9,27.5,12.5,42.8L606.1,644.8c-4,7.4-10.8,12.8-18.8,15.1
	C584.4,660.8,581.4,661.2,578.4,661.2z M565.9,652.6c12.7,6.9,28.5,2.3,35.5-10.4l181.1-331.1c6.9-12.7,2.3-28.5-10.4-35.5L342.9,41
	c-12.7-6.9-28.5-2.3-35.5,10.4L126.4,382.4c-6.9,12.7-2.3,28.5,10.4,35.5L565.9,652.6z"/>
<path class="st0" d="M592.5,532.6c-4.9,0-9.7-1.2-13.9-3.6L236.2,341.8c-14-7.6-19.1-25.2-11.5-39.2c0,0,0,0,0,0l106.7-195.1
	c7.7-14,25.2-19.1,39.2-11.5c0,0,0,0,0,0L713,283.2c14,7.7,19.1,25.2,11.5,39.2c0,0,0,0,0,0l-0.4-0.2l0.4,0.2L617.7,517.6
	C612.7,526.8,603,532.6,592.5,532.6z"/>
<path class="st1" d="M627,661.1H84c-17.9,0-32.5-14.6-32.5-32.5v-419c0-17.9,14.6-32.5,32.5-32.5h543c17.9,0,32.5,14.6,32.5,32.5
	v419C659.5,646.5,644.9,661.1,627,661.1z"/>
<path class="st2" d="M627,663.6H84c-19.3,0-35-15.7-35-35v-419c0-19.3,15.7-35,35-35h543c19.3,0,35,15.7,35,35v419
	C662,647.9,646.3,663.6,627,663.6z M84,180.6c-16,0-29,13-29,29v419c0,16,13,29,29,29h543c16,0,29-13,29-29v-419c0-16-13-29-29-29
	H84z"/>
<path class="st2" d="M440,314.9c-12.8,0-24.8,6-32.6,16.2c-13.6-5.9-29.4,0.4-35.3,14c-1.4,3.3-2.2,7-2.2,10.6h110.8
	C480.8,333.2,462.6,314.9,440,314.9C440,314.9,440,314.9,440,314.9z"/>
<circle class="st3" cx="197.2" cy="409" r="65.8"/>
<path class="st4" d="M582.4,544.5c-2.4,0.6-4.9,0.9-7.4,0.8H136c-5.4,0-10.7-1.4-15.5-4l1.2-1.7l49-70.5l72.6-104.5l1.1-1.5
	l11.4-16.4c2.6-3.8,7.8-4.7,11.6-2.1c0.8,0.6,1.5,1.3,2.1,2.1l37.9,54.6v0l22.3,32.1l53.3,76.7l80.8-115.3c2.6-3.8,7.8-4.7,11.6-2.1
	c0.8,0.6,1.5,1.3,2.1,2.1l51.8,74l3,4.2L582.4,544.5z"/>
<path class="st5" d="M352.7,383.1c-15.8,0-30.6,7.4-40.2,20c-16.8-7.2-36.3,0.5-43.5,17.3c-1.8,4.1-2.7,8.6-2.7,13.1h136.7
	C403.1,405.6,380.6,383.1,352.7,383.1C352.7,383.1,352.7,383.1,352.7,383.1z"/>
<path class="st4" d="M575,546.3H136c-18.2,0-33-14.7-33-32.9c0,0,0,0,0-0.1V263.1c0-18.2,14.8-33,33-33h439c18.2,0,33,14.8,33,33
	v250.2C608,531.5,593.3,546.3,575,546.3C575.1,546.3,575,546.3,575,546.3z M136,232.1c-17.1,0-31,13.9-31,31v250.2
	c0,17.1,13.8,31,30.9,31c0,0,0,0,0.1,0h439c17.1,0,31-13.8,31-30.9c0,0,0,0,0-0.1V263.1c0-17.1-13.9-31-31-31L136,232.1z"/>
</svg>
