<svg id="Layer_1" data-name="Layer 1" xmlns="http://www.w3.org/2000/svg" viewBox="0 0 143 32"><defs><style>.cls-1{fill:#fff;fill-rule:evenodd;}</style></defs><path class="cls-1" d="M27.9,18.45c-.08,0,7.1,11.2,7.1,11.2H28.45L21.56,18.46V29.65H15.8V3.16h7.91c13.83,0,11.22,15.29,4.19,15.29ZM24.81,8.2H21.56v6.47h3.22c4,0,4.57-6.47,0-6.47Z"/><polygon class="cls-1" points="67.81 3.16 83.83 3.16 83.83 8.2 74.38 8.2 74.38 14.67 83.83 14.67 83.83 19.33 74.38 19.33 74.38 24.02 83.83 24.02 83.83 29.65 67.81 29.65 67.81 3.16 67.81 3.16"/><path class="cls-1" d="M101.74,19.33s-6.55,0-6.55,0l0,10.32H89.44V3.16H97c16.27,0,10,16.18,4.72,16.17ZM99,8.2c-2,0-3.76,0-3.76,0v6.47s2.86,0,3.77,0c3.52.06,3.75-6.42,0-6.42Z"/><path class="cls-1" d="M126.36,29.65l-2-5.63H113.22l-2,5.63H105.6L116,3.16h5.7l10.52,26.49ZM118.85,8.17l-3.33,11.16h6.58L118.85,8.17Z"/><path class="cls-1" d="M57.87,14.18H63.6A13.49,13.49,0,0,0,52.52,3.1V8.83A7.93,7.93,0,0,1,57.87,14.18Z"/><path class="cls-1" d="M52.52,24v5.73A13.49,13.49,0,0,0,63.6,18.63H57.87A7.92,7.92,0,0,1,52.52,24Z"/><path class="cls-1" d="M48.08,8.83V3.1A13.5,13.5,0,0,0,37,14.18h5.74A7.92,7.92,0,0,1,48.08,8.83Z"/><path class="cls-1" d="M42.73,18.63H37A13.49,13.49,0,0,0,48.08,29.71V24A7.9,7.9,0,0,1,42.73,18.63Z"/></svg>