<?xml version="1.0" encoding="utf-8"?>
<!-- Generator: Adobe Illustrator 25.0.1, SVG Export Plug-In . SVG Version: 6.00 Build 0)  -->
<svg version="1.1" xmlns="http://www.w3.org/2000/svg" xmlns:xlink="http://www.w3.org/1999/xlink" x="0px" y="0px"
	 viewBox="0 0 143 32" style="enable-background:new 0 0 143 32;" xml:space="preserve">
<style type="text/css">
	.st0{enable-background:new    ;}
	.st1{fill:#004F89;}
</style>
<g id="Rechteck_1_1_" class="st0">
	<g id="Rechteck_1">
		<g>
			<path class="st1" d="M32.3,18.1c6.5,0,8.9-14.1-3.9-14.1c-0.8,0-7.3,0-7.3,0v24.4h5.3V18.2l6.3,10.3h6
				C38.8,28.4,32.2,18.1,32.3,18.1z M29.4,14.7c0.1,0-3,0-3,0v-6c0,0,3,0,3,0C33.6,8.7,33.1,14.7,29.4,14.7z"/>
		</g>
	</g>
</g>
<g id="Rechteck_2_1_" class="st0">
	<g id="Rechteck_2_4_">
		<g>
			<polygon class="st1" points="83.7,8.7 83.7,4.1 69,4.1 69,28.4 83.7,28.4 83.7,23.3 75.1,23.3 75.1,19 83.7,19 83.7,14.7 
				75.1,14.7 75.1,8.7 			"/>
		</g>
	</g>
</g>
<g id="Rechteck_3_1_" class="st0">
	<g id="Rechteck_3">
		<g>
			<path class="st1" d="M95.9,4.1c-0.3,0-1.7,0-1.7,0h-5.3v24.4h5.3l0-9.5c0,0,6,0,6,0C105.1,19,110.8,4.1,95.9,4.1z M97.7,14.6
				c-0.8,0-3.5,0-3.5,0v-6c0,0,1.6,0,3.5,0C101.1,8.7,100.9,14.7,97.7,14.6z"/>
		</g>
	</g>
</g>
<g id="Rechteck_4_1_" class="st0">
	<g id="Rechteck_4_4_">
		<g>
			<path class="st1" d="M118.5,4.1h-5.2l-9.5,24.4h5.2l1.8-5.2h10.3l1.8,5.2h5.3L118.5,4.1z M112.9,19l3.1-10.3l3,10.3H112.9z"/>
		</g>
	</g>
</g>
<g id="Ellipse_1_1_" class="st0">
	<g id="Ellipse_1">
		<g>
			<path class="st1" d="M40.1,14.8h5.1c0.7-2.6,2.8-4.7,5.6-5.4V4.2C45.2,5.1,40.8,9.4,40.1,14.8z M60.2,14.8h5.8
				c-0.7-5.5-5.3-9.9-11-10.7v5.4C57.5,10.2,59.5,12.3,60.2,14.8z M54.9,23.5v4.9c5.5-0.7,9.8-4.5,10.9-9.6H60
				C59.2,21.1,57.3,22.9,54.9,23.5z M45.4,18.9h-5.1c1.1,4.9,5.2,8.7,10.5,9.5v-4.8C48.2,23,46.2,21.2,45.4,18.9z"/>
		</g>
	</g>
</g>
</svg>
