<svg id="Capa_1" data-name="Capa 1" xmlns="http://www.w3.org/2000/svg" viewBox="0 0 507.04 164.22"><defs><style>.cls-1,.cls-2{fill:#002e6d;}.cls-1{fill-rule:evenodd;}</style></defs><path class="cls-1" d="M99.24,103.62c-.33,0,30.79,48.54,30.79,48.54H101.65L71.77,103.68v48.48H46.84V37.36H81.09c59.94,0,48.66,66.25,18.15,66.26ZM85.85,59.18H71.77V87.24s14.25.05,14,0c17.44.05,19.78-28.06.1-28.06Z" transform="translate(-44.59 -37.1)"/><polygon class="cls-1" points="227.64 0.27 297.07 0.27 297.07 22.09 256.12 22.09 256.12 50.14 297.07 50.14 297.07 70.34 256.12 70.34 256.12 90.66 297.07 90.66 297.07 115.06 227.64 115.06 227.64 0.27 227.64 0.27"/><path class="cls-1" d="M419.27,107.44c-.08,0-28.38,0-28.38,0l.11,44.72H366V37.36h32.89c70.51,0,43.32,70.12,20.43,70.08Zm-12-48.26c-8.69-.1-16.27-.1-16.27-.1V87.13S403.36,87,407.34,87c15.24.27,16.24-27.84-.07-27.84Z" transform="translate(-44.59 -37.1)"/><path class="cls-1" d="M526,152.16l-8.49-24.4H469l-8.71,24.4H436l44.82-114.8h24.73l45.57,114.8ZM493.43,59.08,479,107.44h28.48L493.43,59.08Z" transform="translate(-44.59 -37.1)"/><path class="cls-2" d="M44.59,181.93a29,29,0,0,1,4.78-.37c2.47,0,4.27.57,5.41,1.6a5.2,5.2,0,0,1,1.69,4A5.64,5.64,0,0,1,55,191.32a7.94,7.94,0,0,1-5.89,2.12,8.82,8.82,0,0,1-2-.17V201H44.59Zm2.49,9.31a8.53,8.53,0,0,0,2.06.2c3,0,4.84-1.46,4.84-4.12s-1.8-3.78-4.55-3.78a10.15,10.15,0,0,0-2.35.2Z" transform="translate(-44.59 -37.1)"/><path class="cls-2" d="M60.54,194.93l-2,6.07H56l6.56-19.3h3L72.11,201H69.44l-2.06-6.07Zm6.33-2L65,187.43c-.43-1.26-.72-2.4-1-3.52h-.06c-.29,1.14-.6,2.32-1,3.49L61.06,193Z" transform="translate(-44.59 -37.1)"/><path class="cls-2" d="M74.94,182a25.8,25.8,0,0,1,4.78-.4c2.67,0,4.39.49,5.59,1.57a4.83,4.83,0,0,1,1.52,3.67,5.06,5.06,0,0,1-3.64,4.92v.09c1.49.52,2.38,1.89,2.83,3.89a30.45,30.45,0,0,0,1.49,5.3H84.94a24,24,0,0,1-1.29-4.61c-.58-2.66-1.61-3.66-3.87-3.75H77.43V201H74.94Zm2.49,8.79H80c2.67,0,4.35-1.46,4.35-3.66,0-2.49-1.8-3.58-4.43-3.61a10,10,0,0,0-2.47.23Z" transform="translate(-44.59 -37.1)"/><path class="cls-2" d="M94.27,183.82H88.4V181.7h14.29v2.12h-5.9V201H94.27Z" transform="translate(-44.59 -37.1)"/><path class="cls-2" d="M104.84,201V181.7h2.72l6.18,9.77a55,55,0,0,1,3.47,6.27l.05,0c-.23-2.58-.28-4.93-.28-7.93V181.7h2.34V201H116.8l-6.12-9.79a60.16,60.16,0,0,1-3.61-6.44l-.09,0c.15,2.43.2,4.75.2,8V201Z" transform="translate(-44.59 -37.1)"/><path class="cls-2" d="M133.67,192h-7.5v7h8.36V201H123.68V181.7H134.1v2.09h-7.93v6.1h7.5Z" transform="translate(-44.59 -37.1)"/><path class="cls-2" d="M137.76,182a25.83,25.83,0,0,1,4.79-.4c2.66,0,4.38.49,5.58,1.57a4.83,4.83,0,0,1,1.52,3.67,5.06,5.06,0,0,1-3.64,4.92v.09c1.49.52,2.38,1.89,2.84,3.89a30.76,30.76,0,0,0,1.48,5.3h-2.57a24,24,0,0,1-1.29-4.61c-.57-2.66-1.6-3.66-3.87-3.75h-2.34V201h-2.5Zm2.5,8.79h2.54c2.67,0,4.36-1.46,4.36-3.66,0-2.49-1.81-3.58-4.44-3.61a9.94,9.94,0,0,0-2.46.23Z" transform="translate(-44.59 -37.1)"/><path class="cls-2" d="M161.73,183.82h-5.87V181.7h14.29v2.12h-5.9V201h-2.52Z" transform="translate(-44.59 -37.1)"/><path class="cls-2" d="M188,191.15c0,6.64-4,10.17-9,10.17-5.09,0-8.67-3.95-8.67-9.8,0-6.12,3.81-10.13,9-10.13S188,185.43,188,191.15Zm-15,.32c0,4.12,2.24,7.81,6.16,7.81s6.18-3.63,6.18-8c0-3.84-2-7.85-6.15-7.85S173,187.23,173,191.47Z" transform="translate(-44.59 -37.1)"/><path class="cls-2" d="M199.81,183.82h-5.87V181.7h14.29v2.12h-5.9V201h-2.52Z" transform="translate(-44.59 -37.1)"/><path class="cls-2" d="M212.87,181.7v8.08h9.34V181.7h2.51V201h-2.51V192h-9.34V201h-2.49V181.7Z" transform="translate(-44.59 -37.1)"/><path class="cls-2" d="M239,192h-7.5v7h8.36V201H229.05V181.7h10.42v2.09h-7.93v6.1H239Z" transform="translate(-44.59 -37.1)"/><path class="cls-2" d="M263.9,200.14A18.07,18.07,0,0,1,258,201.2a9.06,9.06,0,0,1-9.91-9.73c0-5.76,4-10,10.45-10a11.91,11.91,0,0,1,4.81.89l-.6,2a10.12,10.12,0,0,0-4.26-.83c-4.7,0-7.76,2.92-7.76,7.76s3,7.79,7.44,7.79a8,8,0,0,0,3.32-.52v-5.75h-3.92v-2h6.36Z" transform="translate(-44.59 -37.1)"/><path class="cls-2" d="M267.7,182a25.83,25.83,0,0,1,4.79-.4c2.66,0,4.38.49,5.58,1.57a4.83,4.83,0,0,1,1.52,3.67,5.06,5.06,0,0,1-3.64,4.92v.09c1.49.52,2.38,1.89,2.84,3.89a30.76,30.76,0,0,0,1.48,5.3H277.7a24,24,0,0,1-1.29-4.61c-.57-2.66-1.6-3.66-3.87-3.75H270.2V201h-2.5Zm2.5,8.79h2.54c2.67,0,4.36-1.46,4.36-3.66,0-2.49-1.81-3.58-4.44-3.61a9.94,9.94,0,0,0-2.46.23Z" transform="translate(-44.59 -37.1)"/><path class="cls-2" d="M286.37,194.93l-2,6.07h-2.58l6.56-19.3h3l6.58,19.3h-2.66l-2.06-6.07Zm6.33-2-1.89-5.55c-.43-1.26-.71-2.4-1-3.52h-.06c-.28,1.14-.6,2.32-1,3.49L286.89,193Z" transform="translate(-44.59 -37.1)"/><path class="cls-2" d="M300.78,181.93a28.85,28.85,0,0,1,4.78-.37,7.94,7.94,0,0,1,5.41,1.6,5.2,5.2,0,0,1,1.69,4,5.68,5.68,0,0,1-1.49,4.12,8,8,0,0,1-5.9,2.12,8.73,8.73,0,0,1-2-.17V201h-2.49Zm2.49,9.31a8.48,8.48,0,0,0,2.06.2c3,0,4.84-1.46,4.84-4.12s-1.81-3.78-4.56-3.78a10.11,10.11,0,0,0-2.34.2Z" transform="translate(-44.59 -37.1)"/><path class="cls-2" d="M318.5,181.7v8.08h9.33V181.7h2.52V201h-2.52V192H318.5V201H316V181.7Z" transform="translate(-44.59 -37.1)"/><path class="cls-2" d="M337.17,181.7V201h-2.49V181.7Z" transform="translate(-44.59 -37.1)"/><path class="cls-2" d="M355,200.37a12.35,12.35,0,0,1-5.1.92c-5.44,0-9.53-3.44-9.53-9.77,0-6,4.09-10.13,10.07-10.13a10.28,10.28,0,0,1,4.59.86l-.61,2a9,9,0,0,0-3.89-.8c-4.52,0-7.53,2.89-7.53,8,0,4.72,2.72,7.76,7.42,7.76a10.08,10.08,0,0,0,4.06-.8Z" transform="translate(-44.59 -37.1)"/><path class="cls-2" d="M367.32,194.93l-2,6.07h-2.58l6.56-19.3h3l6.59,19.3h-2.67l-2.06-6.07Zm6.33-2-1.89-5.55c-.43-1.26-.72-2.4-1-3.52h-.06c-.29,1.14-.6,2.32-1,3.49L367.84,193Z" transform="translate(-44.59 -37.1)"/><path class="cls-2" d="M381.72,182a25.8,25.8,0,0,1,4.78-.4c2.67,0,4.39.49,5.59,1.57a4.83,4.83,0,0,1,1.52,3.67,5.06,5.06,0,0,1-3.64,4.92v.09c1.49.52,2.38,1.89,2.83,3.89a30.45,30.45,0,0,0,1.49,5.3h-2.57a24,24,0,0,1-1.29-4.61c-.58-2.66-1.61-3.66-3.87-3.75h-2.35V201h-2.49Zm2.49,8.79h2.55c2.67,0,4.35-1.46,4.35-3.66,0-2.49-1.8-3.58-4.43-3.61a10,10,0,0,0-2.47.23Z" transform="translate(-44.59 -37.1)"/><path class="cls-2" d="M401.05,183.82h-5.87V181.7h14.29v2.12h-5.9V201h-2.52Z" transform="translate(-44.59 -37.1)"/><path class="cls-2" d="M411.1,198a8.92,8.92,0,0,0,4.47,1.26c2.55,0,4-1.35,4-3.3s-1-2.83-3.63-3.83c-3.15-1.12-5.1-2.75-5.1-5.47,0-3,2.49-5.24,6.24-5.24a8.86,8.86,0,0,1,4.27.94l-.69,2a7.6,7.6,0,0,0-3.66-.92c-2.64,0-3.64,1.58-3.64,2.89,0,1.81,1.18,2.69,3.84,3.72,3.26,1.26,4.92,2.84,4.92,5.67,0,3-2.2,5.56-6.75,5.56a10,10,0,0,1-4.93-1.23Z" transform="translate(-44.59 -37.1)"/><path class="cls-2" d="M434.12,181.7V201h-2.49V181.7Z" transform="translate(-44.59 -37.1)"/><path class="cls-2" d="M438.47,201V181.7h2.72l6.19,9.77a53.34,53.34,0,0,1,3.46,6.27l.06,0c-.23-2.58-.29-4.93-.29-7.93V181.7H453V201h-2.52l-6.12-9.79a60.16,60.16,0,0,1-3.61-6.44l-.09,0c.15,2.43.2,4.75.2,8V201Z" transform="translate(-44.59 -37.1)"/><path class="cls-2" d="M457.32,182a35.44,35.44,0,0,1,5.29-.4c3.58,0,6.13.83,7.82,2.41a8.86,8.86,0,0,1,2.72,6.92,10.21,10.21,0,0,1-2.78,7.51c-1.8,1.8-4.78,2.77-8.53,2.77a38.5,38.5,0,0,1-4.52-.23ZM459.81,199a16.28,16.28,0,0,0,2.52.14c5.32,0,8.21-3,8.21-8.19,0-4.55-2.54-7.44-7.81-7.44a14.41,14.41,0,0,0-2.92.25Z" transform="translate(-44.59 -37.1)"/><path class="cls-2" d="M478.88,181.7v11.43c0,4.32,1.91,6.15,4.49,6.15,2.86,0,4.7-1.89,4.7-6.15V181.7h2.52V193c0,5.92-3.12,8.36-7.3,8.36-4,0-6.93-2.27-6.93-8.25V181.7Z" transform="translate(-44.59 -37.1)"/><path class="cls-2" d="M494.57,198a8.88,8.88,0,0,0,4.46,1.26c2.55,0,4-1.35,4-3.3s-1-2.83-3.64-3.83c-3.14-1.12-5.09-2.75-5.09-5.47,0-3,2.49-5.24,6.24-5.24a8.86,8.86,0,0,1,4.27.94l-.69,2a7.62,7.62,0,0,0-3.67-.92c-2.63,0-3.63,1.58-3.63,2.89,0,1.81,1.17,2.69,3.83,3.72,3.27,1.26,4.93,2.84,4.93,5.67,0,3-2.21,5.56-6.76,5.56a10,10,0,0,1-4.92-1.23Z" transform="translate(-44.59 -37.1)"/><path class="cls-2" d="M512.69,183.82h-5.87V181.7h14.29v2.12h-5.9V201h-2.52Z" transform="translate(-44.59 -37.1)"/><path class="cls-2" d="M523.26,182a25.72,25.72,0,0,1,4.78-.4c2.66,0,4.38.49,5.58,1.57a4.8,4.8,0,0,1,1.52,3.67,5,5,0,0,1-3.64,4.92v.09c1.49.52,2.38,1.89,2.84,3.89a30.45,30.45,0,0,0,1.49,5.3h-2.58a25.67,25.67,0,0,1-1.29-4.61c-.57-2.66-1.6-3.66-3.86-3.75h-2.35V201h-2.49Zm2.49,8.79h2.55c2.66,0,4.35-1.46,4.35-3.66,0-2.49-1.8-3.58-4.44-3.61a9.94,9.94,0,0,0-2.46.23Z" transform="translate(-44.59 -37.1)"/><path class="cls-2" d="M542.64,201v-8.19l-6.1-11.11h2.84L542.1,187c.74,1.46,1.32,2.63,1.92,4h.06c.54-1.26,1.2-2.52,1.94-4l2.78-5.33h2.83l-6.47,11.08V201Z" transform="translate(-44.59 -37.1)"/><path class="cls-1" d="M229.14,85.13H254a58.46,58.46,0,0,0-48-48V62A34.21,34.21,0,0,1,229.14,85.13Z" transform="translate(-44.59 -37.1)"/><path class="cls-1" d="M206,127.57v24.85a58.46,58.46,0,0,0,48-48H229.15A34.24,34.24,0,0,1,206,127.57Z" transform="translate(-44.59 -37.1)"/><path class="cls-1" d="M186.71,62V37.1a58.47,58.47,0,0,0-48,48h24.85A34.23,34.23,0,0,1,186.71,62Z" transform="translate(-44.59 -37.1)"/><path class="cls-1" d="M163.52,104.38H138.67a58.47,58.47,0,0,0,48,48V127.57A34.22,34.22,0,0,1,163.52,104.38Z" transform="translate(-44.59 -37.1)"/></svg>