<?xml version="1.0" encoding="utf-8"?>
<!-- Generator: Adobe Illustrator 25.0.1, SVG Export Plug-In . SVG Version: 6.00 Build 0)  -->
<svg version="1.1" id="Layer_1" xmlns="http://www.w3.org/2000/svg" xmlns:xlink="http://www.w3.org/1999/xlink" x="0px" y="0px"
	 viewBox="0 0 35 32" style="enable-background:new 0 0 35 32;" xml:space="preserve">
<style type="text/css">
	.st0{fill:none;}
	.st1{fill-rule:evenodd;clip-rule:evenodd;fill:#002E6D;}
	.st2{fill-rule:evenodd;clip-rule:evenodd;fill:#FFFFFF;}
</style>
<path class="st0" d="M0,0"/>
<path class="st0" d="M0,0"/>
<g>
	<g>
		<path class="st1" d="M9.3,3.4C9.3,3.4,9.3,3.4,9.3,3.4C9.2,3.6,9.1,3.7,9.1,3.9c0,0.2,0.2,0.2,0.3,0.3c0.2,0,0.4,0,0.5-0.1
			c0.2-0.2,0.2-0.4-0.1-0.6C9.7,3.4,9.5,3.4,9.3,3.4z"/>
		<path class="st1" d="M24.5,37C24.5,37,24.5,37,24.5,37c-0.1-0.3-0.2-0.5-0.4-0.7c0-0.1,0-0.3-0.2-0.4c0,0,0,0,0,0
			c-0.1-0.1-0.1-0.2-0.2-0.4c0-0.2-0.1-0.3-0.1-0.5c0-0.1-0.1-0.3-0.1-0.4c0-0.1,0-0.2-0.1-0.3c0-0.1,0-0.2-0.1-0.3
			c-0.1-0.3-0.3-0.5-0.4-0.8c0-0.1-0.1-0.2-0.2-0.3c0,0-0.1-0.1-0.1-0.1c0,0,0,0.1-0.1,0.1c0,0.2,0.1,0.4,0.1,0.6
			c0.1,0,0.1,0.1,0.1,0.1c0,0.2,0.1,0.3,0.2,0.5c0.1,0.1,0.1,0.1,0.1,0.2c0,0.2,0.2,0.3,0.2,0.4c0,0.1,0.1,0.2,0.1,0.3
			c0,0,0,0.1,0,0.1c0,0.1,0,0.2,0.1,0.3c0,0.1,0.1,0.2,0.1,0.3c0,0,0,0.1,0.1,0.1l0,0c0,0,0,0,0,0c0,0,0,0,0,0c0,0.1,0,0.2,0.1,0.2
			c0,0.1,0.1,0.3,0.1,0.4c0.1,0.1,0.1,0.1,0.1,0.2c0,0.1,0,0.2,0.1,0.3c0.1,0.2,0.2,0.4,0.3,0.7c0,0.1,0,0.1,0.1,0.2
			c0,0,0.1,0.1,0.1,0c0.1,0,0.1-0.1,0-0.1C24.7,37.6,24.6,37.3,24.5,37z"/>
		<path class="st1" d="M10.1,1.2c-0.1-0.1-0.2-0.1-0.4,0C9.6,1.2,9.4,1.3,9.4,1.5C9.3,1.7,9.7,1.9,9.9,1.8c0.1,0,0.1,0,0.2-0.1
			C10.3,1.6,10.4,1.4,10.1,1.2z"/>
		<path class="st1" d="M6.1,6.4c0.1,0.1,0.3,0.2,0.5,0.1c0.1,0,0.2,0,0.2,0c0,0,0.1,0,0.1,0c0,0,0,0,0.1,0c0.2-0.1,0.2-0.2,0-0.3
			C6.7,6,6.4,6.1,6.1,6.3C6,6.3,6,6.4,6.1,6.4z"/>
		<path class="st1" d="M23.3,35.9c0-0.2,0-0.3-0.2-0.5c0,0,0-0.1,0-0.1c0-0.1,0-0.1-0.1-0.2c-0.1-0.4-0.2-0.7-0.4-1.1
			c0-0.1-0.1-0.3-0.2-0.4c0,0.1,0,0.1,0,0.2c0,0,0,0,0,0c0,0.1,0.1,0.3,0.1,0.4c0,0.3,0.2,0.5,0.3,0.7c0,0.2,0,0.3,0.1,0.5
			c0.1,0.2,0.1,0.4,0.2,0.7c0,0.1,0,0.2,0,0.2c0,0,0.1,0.1,0.1,0.1c0.1,0,0.1-0.1,0.1-0.1c0.1-0.1,0.1-0.3,0-0.4
			C23.2,36,23.3,36,23.3,35.9z"/>
		<path class="st1" d="M1.7,23.2C1.6,23.2,1.7,23.2,1.7,23.2c0.1,0,0.1-0.1,0.2-0.1c0.2-0.2,0.3-0.4,0.4-0.5
			c0.1-0.1,0.2-0.2,0.2-0.3c0-0.1,0-0.1,0-0.2c-0.1-0.1-0.1,0-0.2,0c0,0-0.1,0-0.1,0c-0.1,0-0.1,0.1-0.1,0.1c0.1,0.1,0,0.1,0,0.2
			C1.9,22.6,1.7,22.9,1.7,23.2z"/>
		<path class="st1" d="M-2.2,19.9c-0.2,0.1-0.4,0.2-0.6,0.3c-0.3,0.2-0.6,0.4-0.8,0.6C-3.7,21-3.9,21.1-4,21.3c0,0-0.1,0.1-0.1,0.1
			c0,0,0,0,0,0c0.1,0,0.1-0.1,0.1-0.1c0.3-0.1,0.5-0.2,0.7-0.4c0,0,0,0,0.1-0.1c0.1,0,0.2-0.1,0.2-0.2c0.3-0.1,0.5-0.4,0.7-0.5
			C-2.2,20-2.1,20-2.2,19.9C-2.1,19.8-2.1,19.9-2.2,19.9z M-2.5,20.1C-2.5,20.1-2.5,20.1-2.5,20.1C-2.5,20.1-2.5,20.1-2.5,20.1
			C-2.5,20.1-2.5,20.1-2.5,20.1z"/>
		<path class="st1" d="M1.5,19.5c-0.2,0.1-0.2,0.2-0.4,0.2c-0.3,0.1-0.4,0.4-0.6,0.5c0,0,0,0.1,0,0.1c0,0,0,0.1,0.1,0
			c0.2-0.1,0.4-0.1,0.5-0.2c0.1-0.1,0.2-0.2,0.3-0.3C1.4,19.8,1.5,19.7,1.5,19.5z"/>
		<path class="st1" d="M2.3,25.6c0-0.1,0-0.1,0.1-0.2c0,0,0,0,0,0c0.1,0,0.1-0.1,0.1-0.2c0.1-0.2,0.2-0.4,0.3-0.6
			c-0.2,0.1-0.2,0.3-0.4,0.5c0,0-0.1,0.1-0.1,0.1c0,0-0.1,0-0.1,0.1c0,0-0.1,0.1-0.1,0.1c0,0.1-0.1,0.1-0.1,0.2
			c-0.1,0.2-0.3,0.3-0.3,0.5c-0.1,0.1-0.1,0.2-0.1,0.2c0,0,0,0,0,0.1c-0.2,0.1-0.1,0.3-0.3,0.4c-0.1,0.1,0,0.1,0.1,0.1
			c0.2,0,0.2-0.1,0.2-0.2c0.1-0.1,0.1-0.2,0.3-0.3c0.1-0.1,0.2-0.1,0.2-0.3C2,26.2,2,26.1,2.1,26C2.2,25.9,2.3,25.7,2.3,25.6z"/>
		<path class="st1" d="M-1.7,19.4c0.1,0,0.1,0,0.2-0.1c0.3-0.2,0.5-0.4,0.8-0.5c-0.2,0-0.2,0-0.3,0c-0.4,0.2-0.8,0.4-1.2,0.6
			c-0.3,0.1-0.6,0.2-0.9,0.4c0,0-0.1,0.1-0.1,0.1c0,0,0,0.1,0,0.1c0,0,0,0,0.1,0C-3,20-2.9,20-2.8,20c0.2,0,0.4-0.2,0.5-0.3
			c0.1-0.1,0.2-0.2,0.3-0.2c0,0,0,0,0,0c0,0,0,0,0,0C-1.9,19.4-1.8,19.4-1.7,19.4C-1.7,19.4-1.7,19.4-1.7,19.4z"/>
		<path class="st1" d="M-0.5,21.1c-0.1,0-0.2,0-0.3,0.1C-1,21.4-1.1,21.6-1,21.9c0.1-0.1,0.2-0.2,0.3-0.2
			C-0.6,21.5-0.5,21.4-0.5,21.1C-0.4,21.2-0.4,21.1-0.5,21.1z"/>
		<path class="st1" d="M-1.1,19.5c0-0.1,0-0.1-0.1-0.1c-0.1,0-0.2,0-0.3,0c-0.1,0-0.2,0-0.2,0.1c-0.1,0.1-0.2,0.1-0.3,0.3
			c0,0,0,0.1-0.1,0.1c0,0,0,0,0,0c0.2,0,0.4-0.1,0.6-0.2C-1.3,19.6-1.1,19.6-1.1,19.5z"/>
		<path class="st1" d="M13.3,29.6c-0.1,0-0.1,0-0.2,0.1c0,0-0.1,0-0.1,0c-0.1,0.1-0.2,0.2-0.4,0.4c0,0-0.1,0.1-0.1,0.1
			c-0.1,0.3-0.2,0.5-0.3,0.7c-0.1,0.2-0.2,0.4-0.4,0.6c-0.1,0.1-0.1,0.1-0.1,0.2c-0.1,0.2-0.2,0.3-0.2,0.5c-0.1,0.1-0.1,0.2-0.2,0.4
			c-0.1,0.1-0.2,0.3-0.3,0.4c-0.3,0.3-0.5,0.7-0.7,1c-0.1,0.1-0.1,0.2-0.2,0.3c-0.1,0.2-0.2,0.4-0.4,0.5c-0.1,0.1-0.1,0.1-0.2,0.2
			c0,0,0,0.1,0,0.1c0.1,0.1,0.4,0.1,0.4,0c0.1-0.3,0.3-0.5,0.5-0.8c0.1-0.1,0.2-0.2,0.2-0.3c0,0,0.1,0,0.1-0.1
			c0.1-0.1,0.2-0.2,0.2-0.3c0.1-0.2,0.1-0.4,0.3-0.6c0-0.1,0.1-0.1,0.1-0.2c0.1-0.2,0.2-0.3,0.3-0.5c0-0.1,0.1-0.1,0.1-0.2
			c0.1-0.1,0.2-0.2,0.3-0.2c0.1,0,0.2-0.1,0.2-0.2c0,0,0.1-0.1,0.1-0.1c0,0,0.1-0.1,0.1-0.1c0,0,0,0,0,0c0.1-0.1,0.1-0.2,0.2-0.3
			c0-0.1,0.1-0.1,0.1-0.2c0,0,0.1-0.1,0.1-0.1c0.1-0.2,0.2-0.3,0.2-0.5c0-0.1,0.1-0.3,0.1-0.4c0,0,0,0,0,0c0-0.1,0-0.1,0-0.2
			C13.5,29.7,13.4,29.6,13.3,29.6z"/>
		<path class="st1" d="M4.1,19.1c0.1-0.2,0.2-0.3,0.4-0.4c0.2-0.2,0.3-0.3,0.3-0.5c0,0,0,0-0.1,0c-0.3,0.2-0.4,0.5-0.6,0.7
			C4,18.9,4,18.9,4,19C4,19,4,19.1,4.1,19.1z"/>
		<path class="st1" d="M5.3,31.6c-0.1,0-0.1,0-0.2,0c0,0-0.1,0-0.1,0.1c-0.2,0-0.3,0.1-0.4,0.2c-0.1,0.1-0.1,0.1-0.2,0.2
			c-0.1,0.1-0.2,0.1-0.3,0.2c-0.2,0.1-0.3,0.3-0.6,0.3c0,0-0.1,0-0.1,0.1c-0.1,0.1-0.1,0.1,0,0.2c0.1,0.1,0.2,0,0.2,0
			c0.1-0.1,0.2-0.2,0.3-0.3c0.1,0,0.2,0,0.2-0.1c0.2-0.1,0.3-0.1,0.5-0.3C4.8,32.1,5,32,5.1,31.9C5.2,31.8,5.3,31.7,5.3,31.6z"/>
		<path class="st1" d="M13.9,32c0,0.1-0.1,0.2,0,0.2c0.1,0,0.1-0.1,0.1-0.1c0,0,0,0,0,0c0-0.2,0-0.2,0.3-0.3c0.2,0,0.3-0.2,0.3-0.3
			C14.3,31.6,14.1,31.7,13.9,32z"/>
		<path class="st1" d="M22.3,31.8c-0.1-0.1-0.2-0.2-0.2-0.3c0-0.1-0.1-0.1-0.1-0.1c-0.1,0-0.1,0.1-0.1,0.2c0.1,0.1,0.2,0.2,0.2,0.4
			c0,0.1,0.1,0.1,0.2,0.2c0,0,0.1,0,0.1,0C22.3,32,22.3,32,22.3,31.8C22.3,31.8,22.3,31.8,22.3,31.8z"/>
		<path class="st1" d="M9.6,29.2c0-0.1,0-0.1-0.1-0.1c-0.2,0.1-0.3,0.2-0.5,0.3c0,0-0.1,0.1,0,0.1c0,0,0.1,0,0.1,0
			C9.3,29.6,9.4,29.4,9.6,29.2z"/>
		<path class="st1" d="M9.9,30.3c-0.1,0-0.1,0.1-0.2,0.1c-0.1,0.1-0.2,0.1-0.3,0.2c-0.1,0.1-0.2,0.1-0.2,0.2c0,0.1-0.1,0.1,0,0.2
			c0.1,0,0.2,0,0.2,0c0.2-0.2,0.3-0.3,0.4-0.5C9.9,30.4,9.9,30.3,9.9,30.3z"/>
		<path class="st1" d="M5.9,33.8c-0.2-0.1-0.3,0-0.3,0.1c0,0,0,0.1,0,0.1c-0.1,0.1-0.2,0.1-0.3,0.1c-0.1,0.1-0.2,0.1-0.3,0.1
			c-0.1,0-0.2,0.1-0.1,0.2C5,34.5,5,34.5,5,34.6c0,0,0,0.1,0,0.1c0,0,0.1,0,0.1-0.1c0.1-0.1,0.2-0.2,0.2-0.3c0,0,0,0,0,0
			c0.1,0,0.1,0,0.2,0c0.1,0,0.1-0.1,0.1-0.1c0,0,0,0,0,0C5.8,34.1,5.9,34,6,33.9C6,33.9,6,33.8,5.9,33.8z"/>
		<path class="st1" d="M4.9,33.2c0,0.1,0,0.1,0.1,0.2c0.1,0,0.2,0,0.2,0c0,0,0.1-0.1,0.1-0.1c0.2-0.2,0.3-0.5,0.2-0.8
			c0-0.1-0.1-0.1-0.1,0c0,0-0.1,0-0.1,0.1C5.1,32.6,5,32.9,4.9,33.2C5,33.2,5,33.2,4.9,33.2z"/>
		<path class="st1" d="M-0.7,27.6c-0.1,0-0.1,0-0.2,0.1c-0.2,0.1-0.4,0.2-0.6,0.4c0,0-0.1,0.1,0,0.1c0,0,0.1,0,0.1,0
			c0.1,0,0.2-0.1,0.3-0.2c0,0,0.1,0,0.1-0.1C-0.9,27.8-0.8,27.8-0.7,27.6C-0.7,27.7-0.6,27.7-0.7,27.6C-0.7,27.6-0.7,27.6-0.7,27.6z
			"/>
		<path class="st1" d="M-2.5,17.3c0.1,0,0.2-0.1,0.4-0.2c0.1,0,0.1-0.1,0.1-0.1c0,0-0.1-0.1-0.1-0.1c-0.2,0-0.3-0.1-0.3,0.2
			c0,0,0,0.1-0.1,0.1C-2.5,17.2-2.5,17.3-2.5,17.3z"/>
		<path class="st1" d="M6.9,32.2c-0.1,0.1-0.2,0.2-0.2,0.3c-0.1,0.2-0.2,0.3-0.3,0.5c0,0,0,0.1,0,0.1c0,0,0.1,0,0.1,0
			c0.1-0.2,0.2-0.4,0.3-0.5C7,32.4,7,32.3,7.1,32.1C7,32.2,7,32.2,6.9,32.2z"/>
		<path class="st1" d="M25.6,31c0,0-0.1,0-0.1,0c0,0.1,0,0.3,0.1,0.4c0,0,0.1,0,0.1,0c0,0,0.1,0,0.1,0c0-0.1,0-0.1-0.1-0.2
			C25.8,31.2,25.8,31.1,25.6,31z"/>
		<path class="st1" d="M4.9,24c0-0.2,0.1-0.3,0.2-0.4c0-0.1-0.1-0.1-0.1,0c-0.1,0.1-0.1,0.1-0.2,0.2c-0.1,0.1-0.2,0.3-0.1,0.4
			C4.8,24.2,4.9,24.1,4.9,24z"/>
		<path class="st1" d="M27.2,33.1C27.2,33.1,27.2,33.1,27.2,33.1c0-0.3-0.3-0.6-0.5-0.8c0-0.1-0.1-0.1-0.2-0.2
			c-0.1-0.1-0.2-0.2-0.3-0.3c0,0,0,0,0,0c0,0.2,0.1,0.4,0.2,0.5c0,0.1,0,0.1,0,0.2c0,0.1,0.1,0.2,0.2,0.3c0.1,0.1,0.2,0.2,0.3,0.3
			c0,0.2,0.2,0.4,0.4,0.5c0.1,0,0.1,0,0.2,0c0-0.1,0.1-0.1,0-0.2C27.4,33.3,27.3,33.2,27.2,33.1z"/>
		<path class="st1" d="M-4.6,21.7c-0.1,0.1-0.2,0.1-0.3,0.2C-4.9,21.9-5,21.9-5,22c0,0,0,0,0.1,0c0.1,0,0.2-0.1,0.2-0.1
			C-4.7,21.9-4.6,21.8-4.6,21.7C-4.5,21.6-4.5,21.6-4.6,21.7z"/>
		<path class="st1" d="M16.8,30.3C16.7,30.3,16.7,30.3,16.8,30.3c0,0.1,0,0.1,0,0.1c-0.1,0.1,0,0.2,0.1,0.2c0,0,0.1,0.1,0.1,0.1
			c0,0,0-0.1,0-0.1C16.9,30.6,16.8,30.5,16.8,30.3C16.8,30.3,16.8,30.3,16.8,30.3z"/>
		<path class="st1" d="M0.1,33.2c-0.2,0.1-0.3,0.1-0.4,0.3c0,0,0,0.1,0,0.1c0,0,0.1,0,0.1,0C0,33.5,0.1,33.4,0.1,33.2
			C0.2,33.2,0.2,33.2,0.1,33.2C0.2,33.2,0.1,33.2,0.1,33.2z"/>
		<path class="st1" d="M4.3,34.8c-0.1,0-0.1,0-0.1,0C4.1,34.9,4,35,4,35.1c-0.1,0.1-0.1,0.2-0.2,0.2c0,0-0.1,0.1-0.1,0.1
			c-0.1,0.2-0.3,0.4-0.4,0.5c-0.1,0.2-0.1,0.4-0.2,0.7C3.1,36.7,3,36.8,3,36.9c0,0.1,0,0.1,0,0.2c0,0,0.1,0.1,0.2,0
			c0.1,0,0.1-0.1,0.2-0.1c0.1-0.1,0.2-0.2,0.2-0.4c0-0.1,0-0.1,0.1-0.2c0.1-0.1,0.1-0.2,0.2-0.3C4,36,4.1,35.8,4.2,35.5c0,0,0,0,0,0
			c0,0,0,0,0,0c0-0.1,0.1-0.2,0.1-0.3c0-0.1,0.1-0.2,0.1-0.3C4.4,34.9,4.4,34.8,4.3,34.8z"/>
		<path class="st1" d="M-1.1,23.1C-1.1,23.1-1,23.1-1.1,23.1C-1.1,23-1.2,23-1.1,23.1c-0.2,0-0.3,0-0.5,0c-0.1,0-0.1,0-0.2,0
			c0,0.1,0,0.1,0.1,0.1c0.1,0,0.2,0,0.3,0C-1.3,23.2-1.2,23.2-1.1,23.1z"/>
		<path class="st1" d="M30.9,21.7c0-0.2-0.2-0.3-0.5-0.3C30.5,21.6,30.7,21.6,30.9,21.7z"/>
		<path class="st1" d="M10.8,31.6c0.1-0.1,0.2-0.6,0.2-0.7C10.9,31,10.7,31.5,10.8,31.6z"/>
		<path class="st1" d="M1.9,21.6c-0.1,0.2-0.3,0.4-0.4,0.6C1.7,22.1,1.9,21.8,1.9,21.6C2,21.6,2,21.6,1.9,21.6z"/>
		<path class="st1" d="M4.8,27.7c0.1-0.1,0.3-0.2,0.3-0.4C4.9,27.4,4.8,27.6,4.8,27.7C4.7,27.7,4.7,27.7,4.8,27.7
			C4.7,27.8,4.7,27.7,4.8,27.7z"/>
		<path class="st1" d="M24,38.8c-0.1,0-0.2-0.1-0.3-0.1c-0.1,0-0.1,0-0.1,0.1C23.7,38.9,23.9,38.9,24,38.8C24,38.8,24,38.8,24,38.8z
			"/>
		<path class="st1" d="M7.2,35.8c-0.1,0-0.1,0.1-0.1,0.1c0,0.1,0.1,0.1,0.2,0c0.1,0,0.1-0.1,0.1-0.1C7.4,35.8,7.3,35.8,7.2,35.8z"/>
		<path class="st1" d="M36.5,22.3C36.5,22.3,36.5,22.2,36.5,22.3c-0.2-0.1-0.4-0.2-0.6-0.1c0.2,0.1,0.3,0.1,0.4,0.2c0,0,0,0,0.1,0
			C36.5,22.4,36.5,22.4,36.5,22.3C36.6,22.3,36.6,22.3,36.5,22.3z"/>
		<path class="st1" d="M20.9,31.6c-0.1,0.1-0.1,0.3-0.1,0.4c0,0.1,0,0.1,0,0.2c0,0.1,0,0.1,0,0.2l0,0c0,0.1-0.1,0.3-0.1,0.4
			c0,0,0,0.1,0,0.1c0,0,0,0,0,0.1c0,0,0,0,0,0c-0.1,0.2,0,0.4,0,0.6c0,0.1,0,0.1,0.1,0.1c0.1,0,0.1-0.1,0.1-0.1c0-0.1,0-0.2,0-0.2
			c0.1-0.1,0.1-0.3,0.1-0.4c0-0.2,0.1-0.3,0.1-0.5c0,0,0-0.1,0-0.1c0-0.1-0.1-0.2-0.1-0.3C20.9,31.9,20.9,31.7,20.9,31.6z"/>
		<path class="st1" d="M17.6,30.8c0.2-0.1,0.2-0.2,0.2-0.4C17.7,30.6,17.6,30.7,17.6,30.8z"/>
		<path class="st1" d="M8.2,26.6c0.1,0,0.1-0.1,0.1-0.1c0-0.1,0-0.1-0.1,0c-0.1,0-0.2,0-0.2,0.1C8.1,26.6,8.2,26.6,8.2,26.6z"/>
		<path class="st1" d="M17.6,31.3c0,0-0.1-0.1-0.1,0c-0.1,0,0,0.1,0,0.1c0,0,0,0.1,0.1,0.1c0,0,0.1,0,0.2,0
			C17.7,31.4,17.6,31.4,17.6,31.3z"/>
		<path class="st1" d="M32.7,27.3c-0.1,0-0.1,0-0.1,0.1c0,0,0.1,0,0.1,0c0,0,0.1,0,0.1-0.1C32.8,27.3,32.7,27.3,32.7,27.3z"/>
		<path class="st1" d="M13.7-0.4c-0.1,0-0.1,0-0.2,0c0,0-0.1,0-0.1,0c-0.1,0.1-0.2,0.1-0.2,0.2c-0.1,0.2,0.1,0.4,0.4,0.5
			c0.1,0,0.3,0,0.4-0.1c0.2-0.2,0.3-0.5,0-0.6C13.8-0.4,13.7-0.4,13.7-0.4z M13.3-0.1c0,0,0-0.1,0-0.1C13.3-0.2,13.3-0.1,13.3-0.1z"
			/>
		<path class="st1" d="M17,28.7C16.9,28.7,16.9,28.7,17,28.7C16.9,28.7,16.9,28.7,17,28.7c-0.2-0.1-0.2,0-0.2,0c0,0.1,0.1,0,0.1,0.1
			C16.9,28.8,17,28.8,17,28.7z"/>
		<path class="st1" d="M-1.4,25.3C-1.5,25.3-1.5,25.3-1.4,25.3c-0.1,0.1,0,0.1,0,0.1c0.1,0,0.1,0,0.1-0.1
			C-1.3,25.2-1.4,25.3-1.4,25.3z"/>
		<path class="st1" d="M26.9,24.6c0,0.1,0,0.1,0.1,0.1c0.1,0,0-0.1,0-0.1C27,24.6,26.9,24.5,26.9,24.6z"/>
		<path class="st1" d="M12.3,29.5C12.3,29.5,12.4,29.5,12.3,29.5c0.1-0.1,0-0.1,0-0.1c0,0-0.1,0-0.1,0.1
			C12.2,29.6,12.2,29.6,12.3,29.5z"/>
		<path class="st1" d="M10.4,31.9C10.4,31.9,10.3,31.9,10.4,31.9c-0.1,0-0.2,0-0.2,0.1c0,0,0.1,0,0.1,0C10.4,32,10.4,31.9,10.4,31.9
			z"/>
		<path class="st1" d="M7.5,30.7C7.5,30.7,7.4,30.8,7.5,30.7c-0.1,0.1-0.1,0.1,0,0.1C7.6,30.9,7.6,30.8,7.5,30.7
			C7.6,30.7,7.6,30.7,7.5,30.7z"/>
		<path class="st1" d="M35.2,10.5C35.3,10.5,35.3,10.5,35.2,10.5C35.3,10.5,35.3,10.4,35.2,10.5c-0.1-0.1-0.1-0.1-0.2,0c0,0,0,0,0,0
			C35.1,10.6,35.2,10.5,35.2,10.5z"/>
		<path class="st1" d="M7.5,35.6c0.1-0.1,0.1-0.1,0-0.2C7.4,35.4,7.5,35.5,7.5,35.6z"/>
		<path class="st1" d="M7.5,29.5c-0.1,0-0.1,0-0.2,0c0,0,0,0.1,0,0.1C7.4,29.7,7.5,29.6,7.5,29.5C7.5,29.6,7.5,29.5,7.5,29.5z"/>
		<path class="st1" d="M-0.6,11.8C-0.6,11.8-0.6,11.7-0.6,11.8c0-0.1,0-0.1,0-0.1c0,0-0.1,0-0.1,0.1C-0.7,11.8-0.7,11.8-0.6,11.8z"
			/>
		<path class="st1" d="M-2.6,24.4C-2.7,24.4-2.7,24.5-2.6,24.4c0,0.1,0,0.1,0.1,0.1c0,0,0.1,0,0.1-0.1C-2.5,24.4-2.6,24.4-2.6,24.4z
			"/>
		<path class="st1" d="M20.3,32C20.3,32,20.2,32,20.3,32c-0.1,0.1,0,0.1,0,0.1C20.4,32.1,20.4,32.1,20.3,32C20.4,32,20.4,32,20.3,32
			z"/>
		<path class="st1" d="M6.6,31.3c0.1-0.1,0.1-0.2,0.2-0.3C6.7,31.1,6.6,31.2,6.6,31.3z"/>
		<path class="st1" d="M16.4,30c-0.1,0-0.1,0-0.2,0.1c-0.1,0.2-0.2,0.3-0.1,0.5c0.2-0.1,0.3-0.2,0.3-0.4C16.5,30.1,16.6,30,16.4,30z
			"/>
		<path class="st1" d="M25.2,0.8c0.1,0,0.2,0.1,0.2,0C25.4,0.8,25.4,0.8,25.2,0.8C25.3,0.8,25.2,0.8,25.2,0.8z"/>
		<path class="st1" d="M-1.7,32.8c0.1,0,0.1,0,0.2,0c0,0,0-0.1,0-0.1C-1.6,32.7-1.6,32.7-1.7,32.8z"/>
		<path class="st1" d="M29.2,0.9C29.2,0.9,29.2,0.9,29.2,0.9c0.1,0,0.1,0,0.1,0C29.3,0.9,29.3,0.8,29.2,0.9
			C29.2,0.8,29.2,0.9,29.2,0.9z"/>
		<path class="st1" d="M5.4,28.2C5.4,28.2,5.4,28.2,5.4,28.2c-0.1-0.1-0.1,0-0.1,0C5.4,28.2,5.4,28.2,5.4,28.2z"/>
		<path class="st1" d="M18.2,3c0.1-0.1,0.3,0,0.5,0c0,0,0,0,0,0c0.1,0,0.2-0.1,0.2-0.2c0-0.1-0.1-0.1-0.2-0.1
			c-0.4-0.1-0.6-0.1-0.8,0.2c0,0,0,0.1-0.1,0.1c-0.2,0-0.4,0.1-0.5,0.3c0,0.1,0,0.2,0.1,0.2c0.2,0.1,0.4,0.1,0.5,0
			c0.1,0,0.1,0,0.2,0c0.2,0,0.3,0,0.4-0.1c0.1,0,0.1-0.1,0.1-0.1c0-0.1-0.1-0.1-0.2-0.1c-0.1,0-0.1,0-0.2,0
			C18.3,3.2,18.3,3.1,18.2,3C18.2,3.1,18.2,3.1,18.2,3C18.2,3,18.2,3,18.2,3C18.2,3,18.2,3,18.2,3z"/>
		<path class="st1" d="M17.8,2.5c0-0.1-0.1-0.1-0.3-0.1c-0.1,0-0.2,0.1-0.2,0.2c0,0.1,0.2,0.2,0.3,0.1C17.8,2.7,17.9,2.5,17.8,2.5z"
			/>
		<path class="st1" d="M16.9,1.3c0,0.1,0,0.2,0.1,0.3c0.1,0,0.1,0.1,0.2,0.1c0.2,0.1,0.3,0.2,0.6,0.2c0.2,0,0.4,0,0.6,0.1
			c0,0,0.1,0,0.1,0c0.1,0,0.1,0,0.1-0.1c0.1-0.1,0.1-0.1,0.2-0.2c0,0,0,0,0.1,0c0,0,0,0,0,0c0,0,0,0,0.1,0c0.1-0.1,0.1-0.1,0.2-0.1
			c0.1,0,0.2-0.1,0.2-0.1c0-0.1,0-0.3,0-0.4c0-0.2-0.1-0.4-0.3-0.5c0.1-0.1,0.1-0.2,0.1-0.3C19,0.2,19,0.3,19,0.4c0,0,0,0-0.1,0
			C18.7,0,18.2,0,17.8,0.1c-0.1,0-0.1,0.1-0.2,0.1c-0.1,0-0.1,0.1-0.2,0.1c-0.1,0.1-0.3,0.1-0.3,0.3c-0.1,0.1-0.2,0.2-0.2,0.3
			C17,1,16.9,1.1,16.9,1.3z M19,1.3C19,1.3,19,1.3,19,1.3C19,1.3,19,1.3,19,1.3C19,1.3,19,1.3,19,1.3z M18.9,1.5
			C18.9,1.5,18.9,1.5,18.9,1.5C18.9,1.5,18.9,1.5,18.9,1.5C18.9,1.5,18.9,1.5,18.9,1.5z"/>
		<path class="st1" d="M14.7,4.1c0.1,0,0.2-0.1,0.2-0.1c0-0.1-0.1-0.1-0.2-0.1c-0.1,0-0.2,0.1-0.2,0.2C14.6,4.1,14.7,4.1,14.7,4.1z"
			/>
		<path class="st1" d="M28.7,26.5c-0.2,0-0.4,0-0.5,0.1c-0.2,0.2-0.2,0.5,0.1,0.6c0.2,0.1,0.4,0,0.6,0c0,0,0.1,0,0.1-0.1
			c0.1-0.1,0.1-0.3,0.1-0.5C29,26.6,28.9,26.5,28.7,26.5z"/>
		<path class="st1" d="M11.9-5.8C11.9-5.8,12-5.8,11.9-5.8c0.2,0.3,0.3,0.5,0.4,0.7c0,0.1,0,0.3,0.2,0.4c0,0,0,0,0,0
			c0.1,0.1,0.1,0.2,0.2,0.4c0,0.2,0.1,0.3,0.2,0.5c0,0.1,0.1,0.3,0.1,0.4c0,0.1,0.1,0.2,0.1,0.3c0,0.1,0.1,0.2,0.1,0.3
			c0.1,0.3,0.3,0.5,0.4,0.7c0,0.1,0.1,0.2,0.2,0.3c0,0,0,0,0,0c0,0,0,0,0,0c-0.2-0.1-0.4-0.1-0.6,0.1c-0.1,0.1-0.1,0.2-0.2,0.2
			c-0.1,0.1-0.1,0.1-0.2,0.2c-0.1,0.1,0,0.3,0.1,0.4c0,0,0.1,0.1,0.1,0.1c0.5,0.2,1,0.1,1.2-0.4c0,0,0.1-0.1,0.1-0.1
			c0-0.2-0.2-0.4-0.4-0.5c0,0,0,0,0,0c0,0,0-0.1,0-0.1c0-0.2-0.1-0.4-0.1-0.5c-0.1,0-0.1-0.1-0.1-0.1c-0.1-0.2-0.1-0.3-0.2-0.5
			c-0.1-0.1-0.1-0.1-0.1-0.2c0-0.2-0.2-0.3-0.3-0.4c0-0.1-0.1-0.2-0.2-0.3c0,0,0-0.1,0-0.1C13-4.2,13-4.3,13-4.4
			c0-0.1-0.1-0.2-0.1-0.2c0,0,0-0.1-0.1-0.1l0,0c0,0,0,0,0,0c0,0,0,0,0,0c0-0.1,0-0.2-0.1-0.2c0-0.1-0.1-0.3-0.1-0.4
			c-0.1-0.1-0.1-0.1-0.1-0.2c0-0.1,0-0.2-0.1-0.3c-0.1-0.2-0.3-0.4-0.3-0.7c0-0.1-0.1-0.1-0.1-0.2c0,0-0.1-0.1-0.1,0
			c-0.1,0,0,0.1,0,0.1C11.7-6.3,11.9-6.1,11.9-5.8z M14.3-1.3C14.3-1.3,14.3-1.3,14.3-1.3C14.3-1.3,14.3-1.3,14.3-1.3
			C14.3-1.3,14.3-1.3,14.3-1.3z M14.3-1.2C14.3-1.2,14.3-1.2,14.3-1.2C14.3-1.2,14.3-1.2,14.3-1.2C14.3-1.2,14.3-1.2,14.3-1.2z
			 M14.2-1.6C14.2-1.6,14.2-1.6,14.2-1.6C14.2-1.6,14.2-1.6,14.2-1.6C14.2-1.6,14.2-1.6,14.2-1.6z M14.2-1.6
			C14.2-1.6,14.2-1.6,14.2-1.6C14.2-1.6,14.2-1.6,14.2-1.6C14.2-1.6,14.2-1.6,14.2-1.6z"/>
		<path class="st1" d="M28.4,28.8c-0.1,0-0.1,0-0.2,0.1c-0.3,0.1-0.3,0.4-0.1,0.6c0.1,0.1,0.2,0.1,0.4,0c0.2-0.1,0.3-0.2,0.4-0.4
			C29,29,28.6,28.8,28.4,28.8z"/>
		<path class="st1" d="M32,24.1C31.8,24,31.7,24,31.5,24c-0.1,0-0.2,0-0.2,0.1c0,0-0.1,0-0.1,0c0,0,0,0-0.1,0
			c-0.2,0.1-0.2,0.2,0,0.3c0.4,0.2,0.6,0.1,0.9-0.2C32,24.2,32.1,24.1,32,24.1z"/>
		<path class="st1" d="M13.2-4.8c0.1,0.2,0.1,0.3,0.2,0.5c0,0,0,0.1,0,0.1c0,0.1,0,0.1,0.1,0.2C13.7-3.7,13.7-3.3,14-3
			c0,0.1,0.1,0.3,0.3,0.4c0-0.1,0-0.1,0-0.2c0,0,0,0,0,0c0-0.1-0.1-0.3-0.1-0.4C14-3.5,13.9-3.7,13.8-4c0-0.1,0-0.3-0.1-0.4
			c0,0,0,0,0,0c0.2,0,0.2-0.1,0.2-0.2c0-0.1-0.1-0.2-0.3-0.1c0,0-0.1,0-0.1,0c0-0.1-0.1-0.2-0.1-0.4c0-0.1,0-0.2-0.1-0.2
			c0,0-0.1-0.1-0.1-0.1c-0.1,0-0.1,0.1-0.1,0.1c0,0.1,0,0.3,0.1,0.4C13.3-4.9,13.2-4.8,13.2-4.8z"/>
		<path class="st1" d="M35.5,7.2C35.5,7.2,35.5,7.1,35.5,7.2c-0.1,0-0.1,0.1-0.2,0.1c-0.1,0.2-0.3,0.4-0.4,0.6
			c-0.1,0.1-0.2,0.2-0.2,0.3c0,0.1,0,0.1,0.1,0.2c0.1,0,0.1,0,0.2,0c0,0,0.1,0,0.1,0c0.1,0,0.1-0.1,0-0.1c-0.1-0.1,0-0.1,0-0.2
			C35.3,7.8,35.5,7.5,35.5,7.2z"/>
		<path class="st1" d="M41.4,8.8c-0.1,0-0.1,0.1-0.1,0.1C41,9,40.8,9.2,40.6,9.4c0,0,0,0-0.1,0.1c-0.1,0-0.2,0.1-0.2,0.2
			c-0.3,0.1-0.5,0.4-0.7,0.6c-0.1,0.1-0.2,0.1-0.2,0.2c0,0,0.1,0,0.1,0c0.2-0.1,0.4-0.2,0.5-0.4c0.3-0.2,0.5-0.4,0.8-0.6
			c0.2-0.1,0.3-0.3,0.5-0.5C41.4,8.9,41.4,8.9,41.4,8.8C41.4,8.8,41.4,8.8,41.4,8.8z"/>
		<path class="st1" d="M36.8,10.1c0,0,0-0.1,0-0.1c0,0,0-0.1-0.1,0c-0.2,0.1-0.4,0.1-0.5,0.2c-0.1,0.1-0.2,0.2-0.3,0.3
			c-0.1,0.1-0.1,0.2-0.2,0.4c0.2-0.1,0.2-0.2,0.3-0.2C36.4,10.4,36.6,10.2,36.8,10.1z"/>
		<path class="st1" d="M34.7,4.9c0,0.1,0,0.1,0,0.2c0,0,0,0,0,0c-0.1,0-0.1,0.1-0.1,0.2c-0.1,0.2-0.2,0.4-0.2,0.6
			c0.1-0.2,0.2-0.3,0.3-0.5c0,0,0.1-0.1,0.1-0.1c0,0,0.1,0,0.1-0.1c0,0,0-0.1,0.1-0.1c0-0.1,0.1-0.1,0.1-0.2
			c0.1-0.2,0.2-0.3,0.3-0.5c0.1-0.1,0.1-0.2,0.1-0.2c0,0,0,0,0-0.1c0.2-0.1,0.1-0.3,0.3-0.4c0.1-0.1,0-0.1-0.1-0.1
			c-0.2,0-0.2,0.1-0.2,0.2c-0.1,0.1-0.1,0.2-0.2,0.3C35.1,4,35.1,4,35.1,4.1c0,0.1-0.1,0.2-0.2,0.3C34.8,4.5,34.7,4.7,34.7,4.9z"/>
		<path class="st1" d="M40.4,10.2c-0.1,0-0.2,0.1-0.3,0.1c-0.2,0.1-0.4,0.2-0.5,0.3c-0.1,0.1-0.1,0.2-0.3,0.2c0,0,0,0,0,0
			c0,0,0,0,0,0c-0.1,0-0.2,0-0.2,0.1c0,0,0,0,0,0c-0.1,0-0.1,0-0.2,0.1c-0.3,0.2-0.5,0.4-0.8,0.5c0.2,0,0.2,0,0.3-0.1
			c0.4-0.2,0.8-0.4,1.2-0.6c0.3-0.1,0.6-0.3,0.8-0.4C40.5,10.3,40.5,10.3,40.4,10.2C40.5,10.2,40.5,10.2,40.4,10.2
			C40.5,10.1,40.4,10.2,40.4,10.2z"/>
		<path class="st1" d="M38.3,8.4c-0.1,0.1-0.2,0.2-0.3,0.2c-0.1,0.1-0.2,0.3-0.3,0.4c0,0,0,0.1,0.1,0.1c0.1,0,0.2-0.1,0.3-0.1
			C38.2,8.9,38.3,8.7,38.3,8.4z"/>
		<path class="st1" d="M38.4,10.8c0,0.1,0,0.1,0.1,0.1c0.1,0,0.2,0,0.3,0c0.1,0,0.2,0,0.2-0.1c0.1-0.1,0.2-0.1,0.3-0.3
			c0,0,0-0.1,0.1-0.1c0,0,0,0,0,0c-0.2,0.1-0.4,0.1-0.6,0.2C38.6,10.7,38.5,10.7,38.4,10.8z"/>
		<path class="st1" d="M23.5,1.2c0.1,0,0.1-0.1,0.1-0.1c0,0,0.1,0,0.1,0c0.1-0.1,0.2-0.3,0.4-0.4c0,0,0.1-0.1,0-0.1
			c0-0.3,0.1-0.5,0.3-0.7c0.1-0.2,0.2-0.4,0.3-0.6c0.1-0.1,0.1-0.1,0.1-0.2c0.1-0.2,0.2-0.3,0.2-0.5c0.1-0.1,0.1-0.2,0.2-0.4
			c0.1-0.1,0.2-0.3,0.3-0.4C25.8-2.6,26-3,26.2-3.3c0.1-0.1,0.1-0.2,0.2-0.3c0-0.2,0.2-0.4,0.3-0.6c0.1-0.1,0.1-0.1,0.2-0.2
			c0,0,0-0.1,0-0.1c-0.1-0.1-0.4-0.1-0.4,0.1c-0.1,0.3-0.3,0.5-0.4,0.8c-0.1,0.1-0.2,0.2-0.2,0.3c0,0-0.1,0-0.1,0.1
			c-0.1,0.1-0.2,0.2-0.2,0.3c-0.1,0.2-0.1,0.4-0.3,0.6c0,0.1-0.1,0.1-0.1,0.2C25-2,24.9-1.8,24.8-1.6c0,0.1-0.1,0.1-0.1,0.2
			c-0.1,0.1-0.2,0.2-0.3,0.2c-0.1,0-0.2,0.1-0.2,0.2c0,0-0.1,0.1-0.1,0.1c0,0-0.1,0.1-0.1,0.1c0,0,0,0,0,0.1
			c-0.1,0.1-0.1,0.2-0.2,0.3c0,0.1-0.1,0.1-0.1,0.2c0,0-0.1,0.1-0.1,0.1c-0.1,0.2-0.2,0.4-0.2,0.5c0,0.1-0.1,0.3-0.1,0.4
			c0,0,0,0,0,0c0,0.1,0,0.1,0,0.2C23.4,1.1,23.4,1.2,23.5,1.2z"/>
		<path class="st1" d="M36.8,12.9c-0.2,0-0.3,0.1-0.4,0.1c-0.3,0.2-0.5,0.3-0.8,0.4c-0.3,0.1-0.5,0.2-0.7,0.3c0,0-0.1,0.1-0.2,0.1
			c0,0,0,0,0,0c0-0.1,0.1-0.1,0.2-0.2c0,0,0.1-0.1,0.1-0.2c-0.1,0.1-0.2,0.3-0.4,0.3c-0.1,0-0.2,0.1-0.3-0.1c0,0,0,0,0-0.1
			c0,0,0-0.1,0-0.1c0-0.1,0-0.2,0-0.3c0,0,0,0,0,0c0,0,0,0,0-0.1c0-0.1,0-0.3,0.1-0.4c0.1-0.1,0-0.1,0-0.2c0.1-0.2,0.1-0.4,0.4-0.5
			c0,0,0-0.1,0-0.1c0,0-0.1,0-0.1,0c0,0-0.1,0-0.1,0.1c0,0-0.1,0-0.1,0.1c0,0.1-0.1,0.1-0.1,0.2c0,0.1-0.1,0.1-0.2,0.1
			c0,0-0.1,0-0.1,0.1c-0.1,0-0.2,0-0.4,0.1c-0.1,0-0.1-0.1-0.2-0.1c0,0,0,0-0.1,0c-0.1,0.2-0.4,0.2-0.6,0.4C32.6,13,32.5,13,32.3,13
			c0,0,0,0,0,0c0,0-0.1,0-0.1,0c-0.1,0-0.1,0-0.1,0.1c0,0-0.1,0-0.1,0c0-0.1-0.1-0.1-0.2-0.1c-0.1,0-0.2,0-0.3,0
			c-0.1-0.1-0.1-0.3-0.2-0.4c0-0.1,0-0.1,0-0.2c0,0,0,0,0,0c0-0.1,0.1-0.2,0.2-0.3c0.1-0.1,0.2-0.1,0.1-0.3c0-0.1-0.1-0.2-0.1-0.3
			c0.1-0.1,0.1-0.3,0-0.4c0-0.1,0.1-0.2,0.2-0.4c0,0,0.1-0.1,0.1-0.1c0.2-0.1,0.4-0.1,0.6-0.1c0,0,0.1,0,0.1,0c0.1,0,0.1,0,0.2-0.1
			c0.1,0,0.2-0.1,0.2-0.2c0-0.1,0-0.2-0.2-0.2c-0.1,0-0.3-0.1-0.4-0.1c-0.1,0-0.2,0-0.2,0c-0.2-0.1-0.4-0.1-0.4,0.1
			c-0.1,0.2-0.2,0.2-0.4,0.1c-0.2-0.1-0.5-0.1-0.7-0.1c-0.2-0.1-0.4-0.1-0.6-0.2c-0.1,0-0.1-0.1,0-0.1c0-0.1,0-0.1,0-0.2
			c-0.1,0.1-0.2,0.2-0.2,0.3c0,0,0,0.1-0.1,0.1c-0.1,0.1-0.2,0.1-0.3,0c-0.1,0-0.3-0.1-0.4-0.1c-0.1,0-0.2,0-0.2,0
			c-0.2,0.1-0.5,0.2-0.6,0.3c0,0,0-0.1,0-0.1c0.1-0.2,0.2-0.4,0.5-0.5c0.1,0,0.1,0,0.1-0.1c0,0,0.1-0.1,0.1-0.1c0,0,0,0,0.1-0.1
			c0.1-0.1,0.2-0.3,0.4-0.3c0,0,0.1,0,0.1,0c0.3,0,0.4-0.2,0.5-0.4c0,0,0-0.1,0-0.1c-0.1,0-0.1,0-0.2,0c0,0,0,0,0,0c0,0,0,0,0,0
			c0,0,0,0,0,0c0,0-0.1,0-0.1,0c0,0-0.1,0-0.1,0c-0.2-0.1-0.1-0.2,0-0.2c0.2-0.3,0.5-0.6,0.7-1c0-0.1,0.1-0.1,0.1-0.2
			c0,0,0-0.1,0.1-0.1c0,0,0-0.1,0.1-0.1c0,0,0-0.1,0.1-0.1c0.1-0.1,0.1-0.2,0.1-0.3c0,0,0-0.1,0,0c-0.1,0-0.1,0-0.1-0.1c0,0,0,0,0,0
			c0-0.2,0.1-0.3,0.2-0.5c0.1-0.3,0.3-0.5,0.3-0.8c0-0.1,0-0.2,0.1-0.3C31.5,5.1,31.8,5,32,4.8c0,0,0.1,0,0.1,0
			c0.1,0,0.1-0.1,0.2-0.1c0.1-0.1,0.3-0.2,0.4-0.2c0.1,0,0.2,0,0.2-0.1c0.1-0.1,0.2-0.1,0.3-0.1c0,0,0.1,0,0.1-0.1
			c0.3-0.1,0.6-0.2,0.8-0.4c0.1-0.1,0.1-0.1,0.2-0.2c0.1-0.1,0.1-0.2,0.2-0.3c0.1-0.1,0.1-0.2,0.2-0.3c0.1,0,0.1-0.1,0.1-0.1
			c0-0.2-0.1-0.3-0.2-0.5c-0.1-0.1-0.2-0.1-0.2,0c-0.1,0.1-0.1,0.1-0.1,0.2c-0.1,0.1-0.2,0.1-0.3,0.1c0,0-0.1,0-0.1,0
			c-0.1-0.1-0.2,0-0.3,0c-0.2,0-0.3,0-0.4,0.1C33.1,2.8,32.9,3,33,3.2c0,0.2,0.1,0.3,0.3,0.4c0,0,0.1,0,0.1,0.1c0.1,0,0.1,0.1,0,0.2
			c-0.1,0.1-0.1,0.1-0.2,0.1c-0.1,0.1-0.3,0.2-0.5,0.2c-0.2,0-0.4,0.1-0.6,0.1c-0.2,0.1-0.3,0.1-0.5,0.1l0,0c-0.1,0-0.3,0-0.4,0.1
			c-0.2,0.2-0.5,0.2-0.8,0.3c-0.1,0-0.2,0-0.3,0c-0.3,0-0.6,0-0.9,0.1c-0.1,0-0.2,0-0.3,0c0,0,0-0.1-0.1-0.1c-0.1,0-0.1,0.1-0.2,0.1
			c0,0,0,0,0,0c0,0-0.1,0-0.1,0c0,0,0,0,0,0c0,0,0-0.1,0-0.1c0,0,0.1-0.1,0.1-0.1c0.1,0,0.1,0,0.1-0.1c0,0,0-0.1,0-0.1
			c-0.1,0-0.2,0-0.3,0c0,0-0.1,0-0.1,0c0-0.1,0-0.2,0-0.3c0-0.1,0-0.1,0-0.1c0.1-0.1,0.3-0.2,0.4-0.3c0,0,0,0,0-0.1
			c0.1-0.3,0.2-0.7,0.5-1c0,0,0,0,0,0c0,0,0,0,0,0c0,0,0.1-0.1,0.1-0.1c0.1-0.1,0.3-0.2,0.4-0.4C30,2,30.2,1.7,30.4,1.4
			c0.1-0.1,0.2-0.2,0.3-0.2c0,0,0.1,0,0.1-0.1C31,1.1,31.1,1,31.2,0.8c0,0,0,0,0,0c0.2-0.1,0.3-0.3,0.5-0.4c0.1-0.1,0.2-0.3,0.1-0.4
			c-0.2-0.1-0.7-0.1-0.8,0.1c-0.2,0.2-0.3,0.5-0.5,0.7c0,0.1-0.1,0.1-0.1,0.2c-0.2,0.1-0.4,0.2-0.6,0.3c-0.2,0.1-0.4,0.2-0.5,0.3
			c0,0-0.1,0-0.1,0.1c-0.2,0.3-0.3,0.5-0.4,0.8c0,0.1-0.1,0.2-0.1,0.3c-0.1,0.1-0.2,0.2-0.3,0.3c0,0.1,0,0.1-0.1,0.2
			c0,0,0,0-0.1,0.1c-0.1,0.1-0.1,0.1-0.2,0.1c-0.1,0-0.1-0.1-0.1-0.2C28,3,28,2.7,28.1,2.6c0.1-0.2,0.1-0.4,0.2-0.6c0,0,0-0.1,0-0.1
			c0,0-0.1,0-0.2,0c0,0,0,0-0.1,0c-0.1,0.1-0.1,0.2-0.2,0.3c0,0.2-0.1,0.5-0.2,0.7l0,0c0,0.1,0,0.1,0,0.1c-0.1,0.2-0.2,0.2-0.4,0.3
			c-0.2,0-0.3,0-0.3-0.2C26.9,3.2,27,3.1,27,3c0.1-0.1,0.1-0.2,0.1-0.3c0-0.1,0.1-0.2,0.2-0.2c0,0,0.1,0,0.1,0c0,0,0.1,0,0.1,0
			c0,0,0-0.1-0.1-0.1c0,0-0.1,0-0.1,0c-0.1,0-0.2,0-0.2-0.1c0,0,0-0.1-0.1-0.1c0,0-0.1,0-0.1,0.1C27,2.5,27,2.7,26.9,2.9
			c0,0,0,0,0,0.1c0,0.1-0.1,0.2-0.1,0.3c-0.1,0-0.1,0-0.2-0.1c-0.1-0.1-0.2-0.3-0.2-0.5c0,0,0,0,0-0.1c0.1-0.2,0.1-0.3-0.1-0.5
			c-0.1-0.1-0.2-0.1-0.3-0.2c-0.1,0-0.1-0.1-0.1-0.1c-0.1,0.1-0.1,0.2-0.2,0.3c0,0-0.1,0.1-0.1,0.1c-0.1,0-0.1,0-0.2,0
			c-0.1,0-0.2,0.1-0.2,0.2c0,0,0.1,0.1,0.1,0.1c-0.1,0.1-0.2,0.1-0.2,0.2c0,0-0.1,0-0.1,0c-0.1,0-0.3,0-0.4,0
			c-0.1,0.1-0.2,0.1-0.2,0c0,0,0,0-0.1-0.1c-0.2-0.1-0.4-0.3-0.7-0.4c-0.1-0.1-0.3-0.2-0.5-0.2c-0.2,0-0.2,0-0.1,0.2
			c0,0,0,0.1,0,0.1c0,0,0,0,0,0.1c0,0.1,0,0.2,0.1,0.2c0,0.1,0,0.1-0.1,0.1C23.1,2.9,23,3,22.8,3c-0.1,0-0.1,0-0.2-0.1
			c0,0-0.1,0-0.1,0c0,0-0.1-0.1-0.2-0.1c0,0,0,0-0.1,0c0-0.1,0.1-0.2,0.1-0.3c0,0,0,0,0,0c0.1,0,0.1,0,0.1-0.1c0,0,0-0.1,0-0.1
			c0-0.1,0-0.1,0-0.2c0-0.2,0-0.4,0.1-0.6c0,0,0-0.1,0-0.2c-0.1,0.1-0.2,0.2-0.2,0.3c0,0.1-0.1,0-0.1,0c0-0.1,0-0.1,0-0.2
			c0-0.1,0-0.3,0-0.5c0-0.1-0.1-0.2-0.1-0.3c0-0.1,0-0.1-0.1-0.2c-0.1,0-0.2,0-0.3,0c0,0,0,0,0,0c0-0.1-0.1-0.2-0.1-0.3
			c0-0.1-0.1-0.1-0.2-0.1c-0.1,0-0.1,0.1-0.1,0.1c0,0.1,0.1,0.2,0.2,0.3c0,0.1,0,0.1,0,0.2c0,0,0,0.1,0,0.1c-0.1,0.1-0.1,0.2,0,0.3
			c0.1,0.1,0.1,0.2,0,0.2c0,0.1,0,0.1-0.1,0.2c-0.1,0.1-0.1,0.3-0.3,0.3c-0.1,0-0.2-0.1-0.3-0.1c0,0,0,0,0,0c0,0-0.1,0-0.1,0.1
			c0.1,0,0,0.1,0.1,0.2c0,0,0,0,0,0c0,0-0.1-0.1-0.1-0.1c-0.1,0-0.1-0.1-0.2-0.1c-0.1,0-0.1,0-0.2,0c-0.2,0.1-0.3,0.2-0.4,0.4
			c-0.1,0.2,0,0.4,0.3,0.4c0,0,0.1,0,0.1,0c0.1,0,0.2,0,0.2-0.1c0,0,0,0,0,0C21,2.7,21,2.6,21.1,2.5c0,0,0,0,0-0.1
			c0,0.1,0,0.1,0.1,0.2c0.1,0.1,0.1,0.2,0,0.3c0,0,0,0.1-0.1,0.1C21,3.1,21,3.3,21,3.4c-0.1,0.1-0.1,0.2-0.2,0.3c0,0,0,0,0-0.1
			c0,0,0-0.1-0.1-0.1c-0.1-0.1-0.2-0.2-0.4-0.2c0,0-0.1,0-0.1,0c-0.1,0-0.3,0-0.4,0.1c-0.1,0-0.1-0.1-0.2-0.1c0,0,0,0,0,0
			c0-0.1,0.1-0.1,0.1-0.1c0.1,0,0.2-0.1,0.2-0.2c0.1-0.2,0-0.3-0.3-0.4c-0.1,0-0.1,0-0.2,0c-0.1,0.1-0.3,0.1-0.3,0.3
			c0,0.1,0,0.1,0,0.2c0,0,0,0.1,0,0.1c-0.1,0.1-0.2,0.2-0.3,0.3c-0.1,0.1-0.1,0.3-0.3,0.3c0,0,0,0,0,0c-0.1,0-0.1,0.1-0.2,0.1
			c-0.1,0.1-0.2,0.2-0.2,0.3c-0.1,0.1-0.1,0.1-0.2,0.2c-0.1,0,0-0.1-0.1-0.1c0-0.1-0.1-0.1-0.1-0.2C17.6,4,17.5,3.9,17.3,4
			c-0.1,0.1-0.2,0.2-0.3,0.3c-0.1,0.1-0.2,0.1-0.2,0.2c-0.1,0.1-0.1,0.1-0.1,0.2c0,0.2,0,0.2,0.2,0.2C17,5,17,4.9,17,4.8
			c0,0,0,0,0-0.1c0,0,0.1,0,0.1-0.1c0.1,0,0.2,0,0.2,0.1c0.1,0.1,0.3,0.2,0.3,0.4c-0.1,0.1,0,0.1,0,0.2c0.1,0.1,0.2,0.2,0.4,0.2
			c0,0,0,0,0,0.1c0.1,0.1,0.1,0.2,0.1,0.3c0,0,0,0,0,0C18.3,6,18.2,6,18.1,6c-0.2,0-0.3-0.1-0.4-0.2c0-0.1-0.1-0.1-0.2-0.1
			c-0.1,0-0.1,0-0.2,0.1c-0.1,0-0.2,0-0.2,0c0,0,0-0.1-0.1-0.1c0-0.1-0.1-0.3-0.1-0.4c0-0.1,0-0.2-0.1-0.3c-0.1-0.1-0.2-0.1-0.2,0
			c-0.1,0.2-0.1,0.4,0,0.6c0,0.1,0,0.1,0,0.2c0,0-0.1,0-0.1,0c-0.1,0,0,0,0,0.1c0,0,0,0,0,0.1c0,0,0,0,0,0c-0.1,0-0.2,0.1-0.4,0
			c-0.1,0-0.2,0-0.2-0.1l0,0c0-0.1,0-0.1-0.1-0.1c0,0,0.1,0,0.1-0.1C16,5.4,16,5.3,15.7,5.2c-0.1,0-0.2-0.1-0.2-0.1
			c0,0,0.1-0.1,0.1-0.1c0,0,0,0,0.1,0c0.1,0,0.3,0,0.4-0.1c0,0,0,0,0,0c0.1-0.1,0.2-0.1,0.1-0.2c0-0.1,0-0.1-0.1-0.2c0,0,0,0,0,0
			c0-0.1,0.1-0.2,0.1-0.2c0.1-0.1,0.2-0.2,0.2-0.4c0.1,0,0,0,0-0.1c0,0,0,0,0.1,0c0.3-0.1,0.4-0.2,0.3-0.4c0,0-0.1-0.1-0.1-0.1
			c-0.1-0.1-0.2-0.1-0.2-0.2c0,0,0.1-0.1,0.1-0.1c0.2,0,0.1-0.1,0.1-0.2c0,0,0-0.1,0-0.1c0-0.1,0-0.1-0.2-0.1
			c-0.2,0.1-0.3,0.1-0.5,0.1c0,0,0-0.1,0-0.1c0,0,0,0,0,0c0.1-0.1,0.1-0.1,0.2-0.2c0,0,0-0.1,0.1-0.1c0.1-0.1,0.2-0.2,0.2-0.3
			c0-0.2-0.1-0.4-0.2-0.6c0-0.1-0.1-0.1-0.2-0.1c0,0-0.1-0.1-0.1-0.1C16,1.1,16,1,15.9,0.9c-0.1-0.2-0.3-0.3-0.4-0.3
			c-0.3-0.1-0.5,0-0.8-0.1c0,0-0.1,0-0.1,0c-0.3,0.1-0.5,0.5-0.4,0.7c0,0.1,0,0.2-0.1,0.3c0,0-0.1,0-0.1,0c0,0-0.1,0-0.1,0
			c-0.1,0-0.1,0-0.2-0.1c-0.1-0.1-0.2,0-0.4,0c-0.1,0-0.2,0-0.3-0.1c-0.1-0.2-0.4-0.3-0.7-0.3c0,0,0,0,0,0c-0.1,0-0.2,0-0.2,0
			c-0.1,0-0.2,0.1-0.3,0.1c-0.2,0.1-0.3,0.2-0.3,0.3c0,0.2,0.1,0.2,0.3,0.3c0,0,0.1,0,0.1,0c0.1,0,0.2,0,0.3,0c0,0,0,0.1,0.1,0.1
			c0.1,0.1,0.1,0.2,0.2,0.3c0,0-0.1,0-0.1,0c0,0-0.1,0-0.1,0c-0.1,0-0.2,0.1-0.4,0.2c-0.1-0.2-0.2-0.3-0.4-0.4c0,0-0.1,0-0.1,0
			c0,0,0,0.1,0,0.1c0,0.1,0.1,0.2,0.2,0.2c0.1,0.1,0.3,0.2,0.3,0.4c0,0,0,0,0,0c0,0,0,0.1,0,0.1C12.1,3,12.3,3.1,12.5,3
			c0.1,0,0.2-0.1,0.2-0.1c0,0.1,0,0.1,0.1,0.2c0,0.1,0.1,0.2,0.1,0.3c0,0-0.1,0.1-0.1,0.1c0,0,0,0-0.1,0c-0.1,0-0.1,0-0.2,0
			c0,0,0,0,0,0c-0.3,0-0.6,0.1-0.7,0.4c0,0,0,0,0,0c0,0,0,0,0,0C11.7,4,11.6,4,11.5,4c-0.2,0-0.3,0.1-0.4,0.2c-0.1,0.1,0,0.1,0,0.2
			c0,0.1,0,0.1,0,0.2c0,0.1-0.1,0.2-0.2,0.2c-0.1,0.2,0,0.4,0.1,0.5c0.1,0,0.2,0.1,0.2,0.2c0,0.1,0,0.1,0,0.2c0,0,0,0,0,0
			c-0.1,0.1-0.1,0.2,0,0.3c0,0,0,0.1,0,0.1c-0.1,0.1-0.1,0.1-0.2,0.2c0,0,0,0,0,0c-0.1,0-0.2,0-0.3,0.1c0,0,0,0,0,0
			c-0.1,0-0.2,0.1-0.3,0.2c-0.1,0.1-0.1,0.1-0.2,0.2c0,0,0,0,0,0c0,0,0,0-0.1,0c0,0,0,0,0,0c0-0.1,0-0.1-0.1-0.1c0,0,0,0,0,0
			c0-0.1,0-0.2-0.1-0.3c0,0,0,0-0.1,0c-0.1,0-0.1,0.1-0.1,0.2c0,0,0,0,0,0c0,0.1,0,0.2,0,0.2C9.8,6.7,9.7,6.6,9.5,6.6
			c0,0-0.1,0-0.1,0c0,0,0,0.1,0.1,0.1c0.1,0,0.2,0.1,0.2,0.1c0,0,0,0,0.1,0.1c0,0-0.1,0-0.1,0c0,0,0,0.1,0,0.1c0,0,0,0.1,0,0.1
			c0,0,0,0,0.1,0.1C9.5,7.2,9.4,7.3,9.3,7.5C9.2,7.6,9.1,7.7,9,7.7c-0.1,0-0.1,0-0.2,0c-0.1,0-0.2,0-0.3,0c-0.2-0.1-0.3-0.1-0.5,0
			c-0.1,0-0.3,0.1-0.4,0C7.2,7.5,6.9,7.6,6.6,7.8c0,0-0.1,0.1-0.1,0.1c0,0-0.1,0.1-0.1,0.1c0,0,0,0.1,0,0.1c0,0,0,0.1,0,0.1
			c-0.1,0.1,0,0.2,0.1,0.2c0.2,0.1,0.4,0,0.5,0c0.2,0.1,0.4,0.2,0.6,0.3c0,0.1,0,0.2,0,0.3c0,0.1-0.1,0.2-0.2,0.3
			c-0.1,0-0.2,0-0.3,0c-0.2,0-0.4,0-0.6,0c0,0-0.1,0-0.1,0c-0.2,0-0.4,0.1-0.6,0.1c-0.2,0-0.3,0.1-0.4,0.2c0,0-0.1,0.1-0.2,0.1
			c-0.2,0-0.3,0.1-0.3,0.3c-0.1,0.2-0.2,0.2-0.4,0.2c0,0-0.1,0-0.1,0c-0.1,0-0.1,0-0.2,0c-0.1,0-0.1,0.1-0.2,0.1
			c-0.1,0-0.1,0-0.2,0.1c-0.3,0.1-0.4,0.3-0.2,0.4c0,0.1,0.1,0.1,0.2,0.2c0.1,0.2,0,0.3-0.2,0.5c0,0-0.1,0-0.1,0.1
			c-0.1,0.1-0.2,0.2-0.1,0.4c0.1,0.1,0.1,0.3,0.1,0.4c0,0.2-0.2,0.4-0.4,0.6c-0.1,0.1-0.2,0.3-0.4,0.3c-0.1,0-0.3,0-0.4,0
			c-0.2,0-0.4,0-0.4,0.2c0,0.1-0.1,0.2-0.2,0.3c-0.1,0-0.2,0.1-0.2,0.1c-0.1,0.1-0.2,0.2-0.4,0.2c-0.1,0-0.1,0-0.2,0
			c-0.2,0-0.4,0.2-0.4,0.4c0,0.1,0,0.1,0.1,0.1c0.2,0,0.4,0,0.5-0.1c0.3-0.2,0.6-0.4,0.9-0.6c0.1,0,0.2,0,0.2-0.1c0,0,0.1,0,0.1,0
			c0.1,0,0.2,0,0.2,0.1c0.1,0,0.2,0.1,0.1,0.2c0,0.1,0,0.2-0.1,0.2c-0.2,0-0.2,0.2-0.3,0.2c-0.1,0-0.1,0.1-0.2,0.1
			c-0.2,0-0.3,0.1-0.4,0.2c-0.2,0.1-0.4,0.2-0.5,0.3c0,0,0,0.1-0.1,0.1c0,0,0,0,0,0c0.2-0.1,0.4-0.2,0.6-0.2c0,0,0,0,0,0
			c0.1,0,0,0.1,0.1,0.1c0,0.2-0.1,0.3-0.2,0.5c0,0,0,0.1-0.1,0.1c-0.1,0.1-0.2,0.1-0.4,0.1c-0.3,0.1-0.6,0.3-0.9,0.4c0,0,0,0,0,0
			C0,16.4-0.1,16.8,0,17.1c0.1,0.2,0.3,0.3,0.7,0.4c0.2,0,0.3,0,0.4-0.1c0.3-0.1,0.5-0.3,0.8-0.4c0.3-0.1,0.5-0.2,0.7-0.3
			c0,0,0.1-0.1,0.2-0.1c0,0,0,0,0,0c0,0.1-0.1,0.1-0.2,0.2c0,0-0.1,0.1-0.1,0.2c0.1-0.1,0.2-0.2,0.4-0.3c0.1,0,0.2-0.1,0.3,0.1
			c0,0,0,0,0,0.1c0,0,0,0.1,0,0.1c0,0.1,0,0.2,0,0.3c0,0,0,0,0,0c0,0,0,0,0,0.1c0,0.1-0.1,0.3-0.1,0.4c-0.1,0.1,0,0.1,0,0.2
			c-0.1,0.2-0.2,0.4-0.4,0.5c0,0,0,0.1,0,0.1c0,0,0.1,0,0.1,0c0,0,0.1,0,0.1-0.1c0,0,0.1,0,0.1-0.1c0.1-0.1,0.1-0.1,0.1-0.2
			c0-0.1,0.1-0.1,0.2-0.1c0,0,0.1,0,0.1,0c0.1,0,0.2,0,0.4,0c0.1,0,0.1,0.1,0.2,0.1c0,0,0,0,0.1,0c0.2-0.2,0.4-0.2,0.6-0.4
			c0.1-0.1,0.3-0.1,0.4-0.1c0,0,0,0,0,0c0,0,0.1,0,0.1,0c0.1,0,0.1,0,0.1,0c0,0,0.1,0,0.1,0c0,0.1,0.1,0.1,0.2,0.1
			c0.1,0,0.2,0,0.3,0c0.1,0.1,0.1,0.3,0.2,0.4c0,0.1-0.1,0.1,0,0.2c0,0,0,0,0,0c0,0.1-0.1,0.2-0.3,0.3c-0.1,0.1-0.2,0.1-0.1,0.2
			c0,0.1,0.1,0.2,0,0.3c-0.1,0.1-0.1,0.3-0.1,0.4c0,0.1-0.1,0.2-0.2,0.3c0,0-0.1,0.1-0.1,0.1c-0.2,0.1-0.4,0-0.6,0.1
			c0,0-0.1,0-0.1,0c-0.1,0-0.2,0-0.2,0.1c-0.1,0-0.2,0.1-0.2,0.2c0,0.1,0,0.2,0.1,0.2c0.1,0.1,0.2,0.1,0.4,0.1c0.1,0,0.2,0,0.2,0
			c0.2,0.1,0.4,0.1,0.5-0.1c0.1-0.2,0.2-0.2,0.4-0.1c0.2,0.1,0.5,0.2,0.7,0.1c0.2,0.1,0.4,0.1,0.6,0.2c0.1,0,0.1,0.1,0,0.1
			c0,0.1,0,0.1,0,0.2c0.1-0.1,0.2-0.1,0.2-0.3c0,0,0.1,0,0.1-0.1c0.1-0.1,0.2-0.1,0.3,0c0.1,0,0.3,0.1,0.4,0.1c0.1,0,0.2,0,0.2,0
			c0.2-0.1,0.5-0.2,0.6-0.3c0,0,0,0.1,0,0.1c-0.1,0.2-0.2,0.4-0.5,0.5c-0.1,0-0.1,0-0.1,0.1c0,0-0.1,0.1-0.1,0.1c0,0,0,0-0.1,0.1
			c-0.1,0.1-0.2,0.3-0.4,0.3c0,0-0.1,0-0.1,0c-0.3,0-0.5,0.2-0.5,0.4c0,0,0,0.1,0,0.1c0.1,0,0.1,0,0.2,0c0,0,0,0,0,0c0,0,0,0,0,0
			c0,0,0,0,0,0c0,0,0.1,0,0.1,0c0,0,0.1,0,0.1,0c0.2,0.1,0.1,0.2,0,0.2c-0.3,0.3-0.6,0.6-0.8,1c0,0.1-0.1,0.1-0.1,0.2
			c0,0,0,0.1-0.1,0.1c0,0-0.1,0.1-0.1,0.1c0,0,0,0.1-0.1,0.1c-0.1,0.1-0.1,0.2-0.1,0.3c0,0,0,0.1,0,0c0.1,0,0.1,0,0.1,0.1
			c0,0,0,0,0,0c0,0.2-0.1,0.3-0.2,0.4C6.2,24.5,6,24.8,5.9,25c0,0.1,0,0.2-0.2,0.3c-0.2,0.2-0.6,0.2-0.8,0.4c0,0-0.1,0-0.1,0
			c-0.1,0-0.1,0.1-0.2,0.1C4.6,25.9,4.4,26,4.2,26c-0.1,0-0.2,0-0.2,0.1c-0.1,0.1-0.2,0.1-0.3,0.1c0,0-0.1,0-0.1,0
			c-0.3,0.1-0.6,0.2-0.9,0.4c-0.1,0.1-0.1,0.1-0.2,0.2c-0.1,0.1-0.1,0.2-0.2,0.3c-0.1,0.1-0.1,0.2-0.2,0.3C2,27.5,2,27.5,2,27.6
			c0,0.2,0.1,0.3,0.2,0.5c0.1,0.1,0.2,0.1,0.2,0c0.1-0.1,0.1-0.1,0.1-0.2c0.1-0.1,0.2-0.1,0.3-0.1c0,0,0.1,0,0.1,0
			c0.1,0.1,0.2,0.1,0.3,0.1c0.2,0,0.3,0,0.4-0.1C3.8,27.6,4,27.5,4,27.3c0-0.2-0.1-0.3-0.3-0.4c0,0-0.1,0-0.1-0.1
			c-0.1,0-0.1-0.1,0-0.2c0.1-0.1,0.1-0.1,0.2-0.1c0.1-0.1,0.3-0.1,0.5-0.2c0.2,0,0.4,0,0.6-0.1c0.2,0,0.3-0.1,0.5-0.1
			c0.1,0,0.3,0,0.4-0.1c0.2-0.2,0.5-0.2,0.8-0.3c0.1,0,0.2,0,0.3,0c0.3,0,0.6,0,0.9,0c0.1,0,0.2,0,0.3,0c0,0,0,0.1,0.1,0.1
			c0.1,0,0.1-0.1,0.2-0.1c0,0,0,0,0,0c0,0,0.1,0,0.1,0c0,0,0,0,0,0c0,0,0,0.1,0,0.1c0,0-0.1,0.1-0.1,0.1c-0.1,0-0.1,0-0.1,0.1
			c0,0,0,0.1,0,0.1c0.1,0.1,0.2,0,0.3,0c0,0,0.1,0,0.1,0c0,0.1,0,0.2,0,0.3c0,0.1,0,0.1-0.1,0.1c-0.1,0.1-0.3,0.2-0.4,0.3
			c0,0,0,0,0,0.1c-0.2,0.3-0.3,0.7-0.6,1c0,0,0,0,0,0c0,0,0,0,0,0c0,0-0.1,0.1-0.1,0.1c-0.1,0.1-0.3,0.2-0.4,0.3
			c-0.2,0.3-0.4,0.6-0.7,0.8c-0.1,0.1-0.2,0.2-0.4,0.2c0,0-0.1,0-0.1,0.1c-0.1,0.1-0.3,0.2-0.3,0.3c0,0,0,0,0,0
			c-0.2,0.1-0.3,0.3-0.5,0.4C5,30.3,5,30.4,5,30.6c0.2,0.1,0.6,0.1,0.8-0.1C6,30.3,6.2,30,6.4,29.8c0.1,0,0.1-0.1,0.2-0.1
			c0.2-0.1,0.4-0.2,0.6-0.3c0.2-0.1,0.4-0.1,0.5-0.3c0,0,0.1,0,0.1-0.1c0.2-0.2,0.3-0.5,0.4-0.8c0-0.1,0.1-0.2,0.1-0.3
			c0.1-0.1,0.2-0.2,0.3-0.3c0-0.1,0.1-0.1,0.1-0.2c0,0,0,0,0.1-0.1c0.1-0.1,0.1-0.1,0.2-0.1c0.1,0,0.1,0.1,0.1,0.2
			c-0.1,0.2-0.1,0.4-0.3,0.6c-0.2,0.2-0.2,0.4-0.2,0.5c0,0,0,0.1,0,0.1c0,0,0.1,0,0.2,0c0,0,0,0,0.1,0C8.9,28.6,9,28.4,9,28.3
			c0.1-0.2,0.1-0.5,0.3-0.7l0,0c0-0.1,0-0.1,0-0.1c0.1-0.2,0.2-0.2,0.4-0.2c0.1,0,0.3,0,0.3,0.1c-0.1,0-0.2,0-0.2,0.1
			c0,0-0.1,0.1,0,0.2c0,0,0.1,0.1,0.1,0.1c0,0,0,0,0,0c-0.1,0.1-0.1,0.2-0.1,0.3c0,0.1-0.1,0.2-0.2,0.2c0,0-0.1,0-0.1,0
			c0,0-0.1,0-0.1,0c0,0,0,0.1,0.1,0.1c0,0,0.1,0,0.1,0c0.1,0,0.2,0,0.2,0.1c0,0,0,0.1,0.1,0.1c0,0,0.1,0,0.1-0.1
			C9.9,28.2,10,28,10,27.8c0,0,0,0,0-0.1c0,0,0,0,0,0c0.1,0,0.2-0.1,0.2-0.2c0,0,0,0,0,0c0,0,0.1,0,0.1,0.1c0.1,0.1,0.2,0.3,0.2,0.5
			c0,0,0,0,0,0.1c-0.1,0.1-0.1,0.3,0.1,0.5c0.1,0.1,0.2,0.1,0.2,0.2c0.1,0,0,0.1,0.1,0.1c0.1-0.1,0.1-0.2,0.2-0.2
			c0.1-0.1,0.1-0.2,0.2-0.2l0,0c0.1-0.2,0.3-0.2,0.5-0.4c0,0,0.1,0,0.1,0c0.1,0,0.3,0,0.4,0c0.1-0.1,0.2-0.1,0.2,0c0,0,0,0,0,0.1
			c0.2,0.1,0.4,0.3,0.6,0.4c0.1,0.1,0.3,0.2,0.4,0.2c0.2,0,0.2,0,0.1-0.2c0,0,0-0.1,0-0.1c0,0,0,0,0-0.1c0-0.1,0-0.2,0-0.2
			c0-0.1,0.1-0.1,0.1-0.1c0.2,0,0.3-0.1,0.5-0.1c0.1,0,0.1,0.1,0.2,0.1c0.1,0,0.1,0,0.1-0.1c0-0.1,0-0.1,0-0.2c0,0,0,0,0,0
			c0,0,0,0,0,0c0-0.1,0-0.1,0-0.2c0,0,0,0,0,0c0.1-0.1,0.1-0.2,0.2-0.3c0.1-0.1,0.2-0.2,0.2-0.3c0,0,0,0.1,0.1,0.1
			c0.1,0.1,0.2,0.1,0.3,0.1c0.1,0,0.1,0,0.2,0c0.1-0.1,0.2-0.2,0.2-0.3c0,0,0,0,0.1,0.1c0,0,0,0,0,0c0,0,0,0.1,0,0.1
			c0.1,0.2,0.1,0.3,0,0.5c0,0,0,0,0,0c-0.1,0-0.1,0.1-0.1,0.1c0,0-0.1,0-0.1,0c0,0,0,0-0.1,0c0,0,0,0,0,0c0,0,0-0.1-0.1-0.1
			c0,0,0,0,0,0.1c0.1,0.1,0,0.1,0,0.2c0,0,0,0,0,0c0,0,0,0.1,0,0.1c0,0,0,0,0,0c-0.1,0.1-0.2,0.3-0.3,0.5c0,0,0,0,0,0c0,0,0,0,0,0
			c-0.1,0-0.1,0.1-0.1,0.2c0,0,0,0-0.1,0c0,0,0,0,0,0c0,0,0,0,0,0c0,0,0-0.1,0-0.1c0,0,0,0,0,0c0,0,0-0.1,0-0.1c0,0,0,0,0,0
			c0,0,0.1-0.1,0.1-0.1c0-0.1,0-0.3,0.1-0.4c0-0.1,0-0.1-0.1-0.1c-0.1,0-0.1,0.1-0.1,0.1c0,0.2-0.1,0.3-0.2,0.5c0,0,0,0,0,0
			c-0.1,0-0.1,0-0.1,0.1c0,0,0,0.1,0,0.1c0,0.1,0,0.1,0,0.2c-0.1,0.2-0.1,0.4-0.2,0.6c0,0,0,0.1,0,0.2c0.1-0.1,0.2-0.2,0.2-0.3
			c0-0.1,0.1,0,0.1,0c0,0.1,0,0.1,0,0.2c0,0.1-0.1,0.3-0.1,0.4c0,0.1,0,0.2,0.1,0.3c0,0.1,0,0.1,0.1,0.2c0.1,0,0.2,0,0.3,0
			c0,0,0,0,0,0c0,0.1,0,0.2,0,0.3c0,0.1,0.1,0.1,0.2,0.1c0.1,0,0.1-0.1,0.1-0.1c0-0.1-0.1-0.2-0.1-0.3c0-0.1,0-0.1,0-0.2
			c0,0,0-0.1,0-0.1c0.1-0.1,0.1-0.2,0-0.3c-0.1-0.1-0.1-0.2,0-0.2c0-0.1,0-0.1,0.1-0.2c0.1-0.1,0.1-0.3,0.3-0.3
			c0.1,0,0.2,0.1,0.3,0.1c0,0,0,0,0,0c0,0,0.1,0,0.1-0.1c-0.1-0.1,0-0.1-0.1-0.2c0,0,0-0.1,0-0.1c0-0.1,0-0.2-0.1-0.3
			c0,0,0-0.1,0-0.1c0,0.1,0.1,0.1,0.2,0.1c0.2,0,0.3-0.1,0.3-0.2c0.1-0.1,0.2-0.2,0.4-0.2c0.1,0,0.2,0,0.1-0.1c0,0,0,0,0,0
			c0-0.1-0.1-0.1-0.1-0.2c0-0.1,0-0.1,0-0.2c0-0.2-0.1-0.3-0.3-0.4c0.2-0.2,0.3-0.4,0.4-0.6c0.1-0.1,0.2-0.3,0.3-0.4c0,0,0,0,0-0.1
			c0,0,0,0,0,0c0,0,0,0,0,0.1c0.1,0.1,0,0.2,0.1,0.3c0,0,0,0,0,0c-0.1,0-0.2,0.1-0.3,0.1c-0.1,0.1-0.2,0.2-0.2,0.3
			c0,0.1,0,0.1,0.1,0.2c0.2,0,0.3,0.1,0.5,0.2c0,0,0,0,0,0c0.1,0,0.1,0.1,0.2,0.1c0,0,0,0,0,0l0,0c0,0,0,0.1,0.1,0.1c0,0,0,0,0,0
			c0,0,0,0.1,0.1,0.1c0,0,0,0.1,0.1,0.1c0.1,0.1,0.2,0.1,0.4,0.2c0,0,0.1,0,0.1,0c0.1,0,0.3-0.1,0.4-0.1c0.1,0,0.1,0.1,0.2,0.1
			c0,0,0,0,0,0c0,0.1,0,0.1-0.1,0.1c-0.1,0.1-0.2,0.1-0.2,0.2c-0.1,0.2,0,0.3,0.3,0.3c0.1,0,0.1,0,0.2,0c0.1-0.1,0.3-0.1,0.3-0.3
			c0-0.1,0-0.1,0-0.2c0,0,0-0.1,0-0.1c0.1-0.1,0.2-0.2,0.2-0.3c0.1-0.1,0.1-0.3,0.3-0.3c0,0,0,0,0,0c0.1,0,0.1-0.1,0.2-0.1
			c0.1-0.1,0.1-0.2,0.2-0.3c0.1-0.1,0.1-0.1,0.2-0.2c0.1,0,0,0.1,0.1,0.1c0.1,0.1,0.1,0.1,0.2,0.2c0.1,0.2,0.3,0.2,0.5,0.1
			c0.1-0.1,0.2-0.2,0.3-0.3c0.1-0.1,0.1-0.1,0.2-0.2c0.1-0.1,0.1-0.1,0.1-0.2c0-0.2,0-0.2-0.2-0.2c-0.1,0-0.1,0.1-0.2,0.1
			c0,0,0,0,0,0.1c0,0-0.1,0-0.1,0.1c-0.1,0-0.2,0-0.2-0.1c-0.1-0.1-0.2-0.2-0.2-0.2c0.1-0.2,0.1-0.3,0-0.5c0-0.1,0.1-0.2,0.2-0.3
			c0.1,0,0.3-0.1,0.4,0c0.1,0,0.2,0,0.2,0.1l0,0c0,0.1,0.2,0.2,0.3,0.3c0,0,0,0.1,0.1,0c0,0,0.1,0,0.1-0.1c0-0.1-0.1-0.1-0.1-0.1
			c0,0,0-0.1,0-0.1c0-0.1,0.1-0.1,0.2-0.2c0,0,0,0,0,0c0,0,0,0,0,0c0,0,0.1,0,0.1,0c0.1,0,0.1,0.1,0.2,0.1c0.1,0.1,0.1,0.1,0.2,0.2
			c-0.1,0.1-0.1,0.2,0.2,0.3c0,0.1,0,0.1,0,0.2c0,0,0,0.1,0,0.1c-0.1,0-0.3,0-0.4,0.1c0,0,0,0,0,0c-0.1,0.1-0.1,0.1-0.1,0.3
			c0,0.1,0,0.1,0.1,0.2c0,0,0,0,0,0c0,0.1-0.1,0.2-0.1,0.2c-0.1,0.1-0.2,0.2-0.2,0.4c-0.1,0,0,0,0,0.1c0,0,0,0-0.1,0
			c-0.3,0.1-0.4,0.2-0.2,0.4c0,0,0.1,0.1,0.1,0.1c0.1,0,0.2,0.1,0.2,0.2c0,0,0,0.1-0.1,0.1c-0.2,0-0.1,0.1-0.1,0.2c0,0,0,0.1,0,0.1
			c0,0.1,0,0.1,0.2,0.1c0.2-0.1,0.3-0.1,0.5-0.1c0,0,0,0.1,0,0.1c0,0,0,0,0,0c0,0.1-0.1,0.2-0.1,0.2c0,0,0,0.1-0.1,0.1
			c-0.1,0.1-0.2,0.2-0.2,0.3c0,0.2,0.1,0.4,0.2,0.6c0,0.1,0.1,0.1,0.2,0.1c0,0,0.1,0.1,0.1,0.1c0.1,0.1,0.1,0.1,0.2,0.2
			c0.1,0.2,0.3,0.2,0.5,0.3c0.3,0.1,0.5,0,0.8,0c0,0,0.1,0,0.1,0c0.2-0.1,0.3-0.2,0.4-0.4c0,0,0,0,0,0c0,0,0.1,0.1,0.1,0.1
			c0,0,0.1,0.1,0.2,0.1c0.1,0,0-0.1,0-0.2c0-0.1-0.1-0.2-0.2-0.3c0,0,0-0.1,0-0.1c-0.1-0.1,0-0.2,0.1-0.3c0,0,0.1,0,0.1,0
			c0,0,0,0,0,0c0,0,0.1,0.1,0.1,0.1c0,0,0.1,0,0.1,0c0,0,0,0,0-0.1c0,0,0,0,0-0.1c0,0,0,0,0,0c0.1,0.1,0.2,0,0.4,0
			c0.1,0,0.2,0,0.3,0.1c0.2,0.2,0.4,0.3,0.7,0.3c0,0,0,0,0,0c0.1,0,0.2,0,0.2-0.1c0.1,0,0.2-0.1,0.3-0.1c0.2-0.1,0.3-0.2,0.3-0.3
			c0-0.2-0.1-0.2-0.3-0.3c0,0-0.1,0-0.1,0c-0.2,0-0.4,0.1-0.6,0c0,0-0.1,0-0.1,0c0,0-0.1,0-0.1,0c0,0,0,0,0,0c0,0,0-0.1,0-0.1
			c0,0,0.1,0,0-0.1c-0.1-0.1,0-0.1,0.1-0.1c0.1,0,0.1,0,0.2-0.1c0,0,0.1,0,0.1,0c0.1,0,0.2-0.1,0.4-0.2c0,0,0-0.1-0.1-0.2
			c0,0,0-0.1,0-0.1c-0.2-0.2-0.3-0.2-0.6-0.1c-0.2,0.1-0.3,0.2-0.4,0.3c0,0.1-0.1,0.1-0.2,0.1c-0.1,0-0.1,0-0.2,0c0,0-0.1,0-0.1,0
			c0,0,0,0,0,0c0,0,0.1-0.1,0.1-0.1c0.2-0.1,0.2-0.3,0.3-0.5c0.1-0.1,0.1-0.2,0.2-0.2c0,0,0,0,0,0c0.1,0,0.1,0,0.2,0c0,0,0,0,0,0
			c0.3,0,0.6-0.2,0.7-0.4c0,0,0,0,0,0c0,0,0,0,0,0c0-0.1,0.1-0.1,0.2-0.1c0.2,0,0.3-0.1,0.3-0.2c0.1-0.1,0-0.1,0-0.2
			c0-0.1,0-0.1,0-0.2c0-0.1,0.1-0.2,0.2-0.2c0.1-0.2,0-0.4-0.2-0.5c-0.1,0-0.2-0.1-0.2-0.2c0-0.1,0-0.1-0.1-0.2c0,0,0,0,0,0
			c0.1-0.1,0-0.2,0-0.3c0,0,0-0.1,0-0.1c0.1-0.1,0.2-0.2,0.4-0.3c0,0,0.1,0,0.1,0c0,0-0.1,0-0.1,0.1c-0.1,0-0.1,0.1,0,0.1
			c0.1,0.1,0.3,0.2,0.5,0.2c0,0,0.1,0,0.1,0c0,0,0-0.1-0.1-0.1c-0.1,0-0.2-0.1-0.2-0.1c0,0,0,0-0.1-0.1c0,0,0.1,0,0.1,0
			c0,0,0-0.1,0-0.1c0,0,0-0.1,0-0.1c0,0,0.1-0.1,0.1-0.1c0-0.1,0.1-0.1,0.2-0.2c0,0,0,0,0,0c0,0,0.1,0,0.1,0.1c0,0,0,0.1,0,0.1
			c0,0.1,0,0.2,0.1,0.3c0,0,0,0,0.1,0c0.1,0,0.1-0.1,0.1-0.2c0,0,0,0,0,0c0-0.1,0-0.2,0-0.3c0,0,0-0.1,0-0.1c0-0.1,0.1-0.2,0.2-0.3
			c0.2-0.1,0.3-0.2,0.4-0.3c0,0,0,0,0,0c0,0,0,0,0,0c0.1,0,0.2,0,0.2,0c0,0,0-0.1-0.1-0.1c0,0,0.1,0,0.2-0.1c0.1,0,0.1,0,0.2,0
			c0.1,0,0.2,0,0.3,0c0.2,0.1,0.4,0.1,0.5,0c0.1,0,0.3-0.1,0.4,0c0.4,0.1,0.7,0.1,0.9-0.2c0,0,0.1-0.1,0.1-0.1c0,0,0.1-0.1,0.1-0.1
			c0,0,0-0.1,0-0.1c0,0,0-0.1,0-0.1c0-0.1,0-0.2-0.1-0.2c-0.2,0-0.4,0-0.5,0c-0.2-0.1-0.4-0.1-0.6-0.3c-0.1-0.1,0-0.2-0.1-0.3
			c0-0.1,0-0.3,0.2-0.3c0.1,0,0.2,0,0.3,0c0.2,0,0.4,0,0.6-0.1c0,0,0.1,0,0.1,0c0.2-0.1,0.4-0.1,0.6-0.2c0.2,0,0.3-0.1,0.4-0.2
			c0,0,0.1-0.1,0.2-0.1c0.2,0,0.3-0.1,0.3-0.3c0.1-0.2,0.2-0.2,0.4-0.2c0,0,0.1,0,0.1,0c0.1,0,0.1,0,0.2,0c0.1,0,0.1-0.1,0.2-0.1
			c0.1,0,0.1,0,0.2-0.1c0.3-0.1,0.4-0.3,0.2-0.4c0-0.1-0.1-0.1-0.2-0.1c-0.1-0.2,0-0.3,0.2-0.5c0,0,0.1,0,0.1-0.1
			c0.1-0.1,0.2-0.2,0.1-0.4c-0.1-0.1-0.1-0.3-0.1-0.4c0-0.2,0.2-0.4,0.3-0.6c0.1-0.1,0.2-0.3,0.4-0.3c0.1,0,0.3,0,0.4,0
			c0.2,0,0.4,0,0.4-0.2c0-0.1,0.1-0.2,0.1-0.3c0.1,0,0.2-0.1,0.2-0.1c0.1-0.1,0.2-0.2,0.4-0.2c0.1,0,0.1,0,0.2,0
			c0.2,0,0.4-0.2,0.4-0.4c0-0.1,0-0.1-0.1-0.1c-0.2,0-0.4,0-0.5,0.2c-0.3,0.2-0.6,0.5-0.9,0.6c-0.1,0.1-0.2,0-0.2,0.1
			c0,0-0.1,0-0.1,0c-0.1,0-0.2,0-0.2-0.1c-0.1,0-0.2-0.1-0.2-0.2c0-0.1,0-0.2,0.1-0.2c0.2-0.1,0.2-0.2,0.3-0.3
			c0.1,0,0.1-0.1,0.2-0.1c0.1,0,0.3-0.1,0.4-0.2c0.2-0.1,0.4-0.2,0.5-0.3c0,0,0-0.1,0.1-0.1c0,0,0,0,0,0c-0.2,0.1-0.4,0.2-0.6,0.2
			c0,0,0,0,0,0c-0.1,0,0-0.1-0.1-0.1c0-0.2,0.1-0.3,0.2-0.5c0,0,0-0.1,0.1-0.1c0.1-0.1,0.2-0.1,0.4-0.1c0.3-0.1,0.5-0.3,0.8-0.4
			c0,0,0,0,0,0c0.3-0.2,0.4-0.5,0.2-0.8C37.4,13.1,37.1,12.9,36.8,12.9z M33.7,2.8C33.8,2.8,33.8,2.8,33.7,2.8
			C33.8,2.8,33.8,2.8,33.7,2.8c0,0.1,0,0.1,0.1,0.1c0,0,0,0,0,0c0,0,0,0,0,0C33.7,2.9,33.6,2.9,33.7,2.8z M3.2,27.7
			C3.2,27.7,3.2,27.7,3.2,27.7C3.1,27.7,3.1,27.7,3.2,27.7c0-0.1,0-0.1-0.1-0.2c0,0,0,0,0,0c0,0,0,0,0,0C3.3,27.6,3.3,27.6,3.2,27.7
			z M14.8,28.9C14.8,28.9,14.8,28.8,14.8,28.9C14.7,28.9,14.7,28.9,14.8,28.9c-0.1-0.1-0.1-0.2,0-0.3C14.8,28.7,14.8,28.8,14.8,28.9
			C14.8,28.8,14.8,28.9,14.8,28.9z M22.9,27.3c-0.1,0-0.1,0-0.2,0.1c0,0,0,0,0,0c0,0-0.1,0-0.1-0.1c0-0.1,0-0.2,0-0.2
			c0-0.1-0.1-0.2,0-0.4c0,0,0,0,0,0c0,0,0,0,0,0c0.1,0.1,0.2,0.2,0.2,0.3c0.1,0.1,0.1,0.2,0.1,0.2C22.9,27.2,22.9,27.2,22.9,27.3
			C22.9,27.2,22.9,27.2,22.9,27.3z M22.4,25.2C22.4,25.2,22.4,25.2,22.4,25.2C22.4,25.1,22.4,25.1,22.4,25.2
			c0.1-0.1,0.1-0.1,0.1-0.1C22.4,25.2,22.4,25.2,22.4,25.2z M23.1,26.8C23.1,26.7,23.1,26.7,23.1,26.8c0-0.1,0-0.1,0-0.2
			c0,0,0.1,0,0.1,0c0,0,0.1,0,0.1-0.1c0,0,0,0,0.1,0c0.1,0.1,0.2,0.2,0.1,0.2C23.3,26.8,23.2,26.8,23.1,26.8
			C23.1,26.7,23.1,26.7,23.1,26.8z M27,13.3c0,0.1-0.1,0.1-0.1,0.2c-0.1,0.1-0.1,0.1-0.2,0c0.2,0,0.2-0.1,0.2-0.2
			C27,13.3,27,13.2,27,13.3C27.1,13.2,27.1,13.2,27,13.3C27.1,13.3,27,13.3,27,13.3z M26.5,13.3C26.5,13.3,26.5,13.3,26.5,13.3
			C26.4,13.3,26.5,13.2,26.5,13.3c0-0.1,0.1-0.2,0.1-0.2c0,0,0,0,0,0c0,0,0,0,0,0c0,0,0,0.1,0,0.1c0,0,0,0,0,0
			C26.6,13.2,26.6,13.3,26.5,13.3z M24.7,24.4c-0.1,0-0.2-0.1-0.2-0.2c-0.1-0.1-0.2-0.1-0.3-0.1c0-0.1-0.1-0.2-0.1-0.3
			c0-0.1,0-0.1,0.1-0.2c0.1,0,0.2-0.1,0.3,0c0.1,0,0.2,0.1,0.3,0.1c0.1,0.1,0.2,0.2,0.2,0.3C24.8,24.2,24.8,24.3,24.7,24.4
			C24.7,24.5,24.7,24.4,24.7,24.4z M27.7,13.3c0,0-0.1,0-0.1,0c-0.1,0-0.1,0-0.1-0.1c0,0,0-0.1-0.1-0.1c-0.1,0-0.1,0-0.1,0
			c0,0,0-0.1,0-0.1c0,0,0,0,0,0c0,0,0,0,0,0c0-0.1,0.1-0.2,0.3-0.2c0.1,0,0.1,0,0.2,0c0.1,0,0.1,0,0.1,0.1c0,0.1,0,0.1,0.2,0.1
			c0.1,0,0.1-0.1,0.2-0.2c0,0.1,0,0.1-0.1,0.2c0,0,0,0,0,0c0,0,0,0,0,0c-0.1,0.1-0.2,0.1-0.3,0.2c0,0,0,0,0,0
			C27.7,13.2,27.7,13.2,27.7,13.3C27.7,13.3,27.7,13.3,27.7,13.3z M28.4,14.2C28.4,14.2,28.4,14.2,28.4,14.2
			C28.4,14.3,28.4,14.3,28.4,14.2C28.4,14.3,28.4,14.3,28.4,14.2C28.4,14.3,28.4,14.3,28.4,14.2C28.4,14.3,28.4,14.3,28.4,14.2
			c0,0-0.1,0.1-0.1,0C28.3,14.2,28.3,14.2,28.4,14.2C28.3,14.2,28.3,14.2,28.4,14.2z M22.5,3.2C22.5,3.2,22.5,3.2,22.5,3.2
			C22.6,3.2,22.6,3.2,22.5,3.2C22.6,3.2,22.6,3.2,22.5,3.2C22.6,3.2,22.6,3.2,22.5,3.2c0,0,0,0.1,0,0.2c0,0,0,0,0,0
			c0,0.1-0.1,0.2-0.1,0.2c0,0,0,0,0,0C22.4,3.5,22.4,3.4,22.5,3.2z M22.1,2C22.1,2,22.1,2,22.1,2c0.1,0,0.1,0,0.1,0
			c0,0.1,0,0.2-0.1,0.2C22.1,2.2,22.1,2.1,22.1,2C22.1,2,22.1,2,22.1,2z M21.7,3.1c0,0,0-0.1,0-0.1c0,0,0,0,0,0
			c0.1-0.1,0.2-0.3,0.2-0.5c0,0,0,0,0,0c0,0,0,0,0,0c0.1,0,0.1-0.1,0.1-0.2c0,0,0,0,0.1,0c0,0,0,0,0,0c0,0,0,0,0,0c0,0,0,0.1,0,0.1
			c0,0,0,0,0,0c0,0,0,0.1,0,0.1c0,0,0,0,0,0c0,0,0,0.1,0,0.1c0,0.1,0,0.1,0,0.2C22.1,3,22,3,22,3C21.9,3.1,21.8,3.2,21.7,3.1
			C21.7,3.2,21.7,3.2,21.7,3.1C21.7,3.1,21.7,3.1,21.7,3.1z M21.3,3.5C21.3,3.5,21.3,3.5,21.3,3.5c0-0.1,0.1-0.1,0.1-0.1
			c0,0,0.1,0,0.1,0c0,0,0,0,0,0c0,0,0,0,0,0c0,0,0,0,0,0c0,0.1,0.1,0.1,0.1,0.2c0,0.1,0,0.1,0,0.2c0,0.2,0.1,0.3,0.3,0.4
			c0,0,0.1,0,0.1,0c0,0,0.1,0,0.1,0c0,0,0,0,0,0c0,0.1-0.1,0.2-0.3,0.3c0,0-0.1,0-0.2,0c-0.1,0-0.1,0-0.2,0c0,0,0,0,0,0
			c0-0.1,0-0.1-0.1-0.2c-0.1,0-0.1-0.1-0.2-0.1c0,0,0-0.1,0-0.1C21.2,3.8,21.2,3.6,21.3,3.5z M18.9,4.6C18.9,4.6,18.9,4.6,18.9,4.6
			C18.9,4.6,18.9,4.7,18.9,4.6c0.1,0.1,0.2,0.2,0.3,0.2c0,0,0-0.1,0-0.1c0,0,0,0,0-0.1c0,0-0.1-0.1-0.1-0.1c0.1,0,0.1,0,0.2,0.1
			c0,0,0.1,0.1,0.1,0.1c0,0,0,0,0,0c0,0,0,0.1,0,0.1c0,0,0,0,0,0c0,0,0,0,0,0c0,0,0,0,0,0c0,0,0,0,0,0C19.2,4.9,19.1,5,19,5.1
			c0,0,0,0,0,0c0,0-0.1,0-0.1-0.1C18.9,4.9,18.9,4.8,18.9,4.6z M13.1,3.9C13.1,3.9,13.1,3.9,13.1,3.9C13.1,3.8,13.1,3.8,13.1,3.9
			c0.1-0.1,0.1-0.1,0.2-0.1C13.3,3.9,13.4,4,13.4,4c0,0,0,0,0,0c0,0.1,0.1,0.2,0.1,0.3c0,0.1-0.1,0.2-0.2,0.2c0,0-0.1,0-0.1-0.1
			c0.2-0.3,0.2-0.3-0.1-0.5c0,0,0,0,0,0C13,4,13,4,13.1,3.9C13,3.9,13,3.9,13.1,3.9z M15.5,5.7C15.5,5.7,15.5,5.8,15.5,5.7
			c0,0.2,0,0.2-0.1,0.3c0,0-0.1,0-0.1,0c-0.1,0-0.1-0.1-0.2-0.1c-0.1-0.1-0.2-0.2-0.4-0.2c-0.1,0,0,0.1,0,0.1c0,0.1,0,0.1-0.1,0.2
			c0,0,0,0,0,0c-0.2-0.1-0.2-0.2-0.1-0.3c0.1,0,0.1-0.1,0.2-0.1c0.2,0,0.4,0,0.5,0.1C15.4,5.7,15.4,5.7,15.5,5.7z M15.2,7.1
			c0,0,0.1,0,0.1-0.1c0-0.1-0.1-0.1-0.2-0.2c-0.1,0-0.1-0.1-0.1-0.1c0,0,0-0.1,0.1-0.1c0.1,0,0.1-0.1,0.1-0.1c0.1-0.1,0.1-0.1,0-0.1
			c-0.1,0-0.2-0.1-0.4,0c-0.1,0-0.2,0-0.3-0.1c0,0,0,0,0-0.1c0.1,0,0.1-0.1,0.2-0.2c0.1,0,0.1,0,0.2-0.1c0.1,0,0.1,0,0.2,0
			c0.2,0,0.3,0,0.4,0.2c0,0,0,0.1,0,0.1c0.1,0.1,0,0.2-0.1,0.3c0,0,0,0,0,0c-0.1,0-0.1,0-0.1,0.1c0,0.1,0.1,0.1,0.1,0.1
			c0.1,0,0.1,0,0.2,0c0.1,0,0.2,0,0.3,0.1c0,0,0,0,0,0c-0.1,0-0.1,0.1-0.2,0.1C15.4,7.1,15.3,7.2,15.2,7.1z M10.6,17.2
			c0.1-0.1,0.1-0.1,0.2,0c-0.2,0-0.2,0.1-0.2,0.2c-0.1,0-0.1,0.1-0.2,0.1c0,0,0,0,0,0c0,0,0.1,0,0.1-0.1
			C10.5,17.3,10.5,17.2,10.6,17.2z M13.9,7.1c-0.1,0-0.2,0.1-0.3,0c0,0-0.1,0-0.1-0.1c0.1,0,0.1-0.1,0.1-0.2c0,0,0,0,0,0
			c0-0.1,0.1-0.1,0.3-0.1c0,0.1,0.1,0.2,0.1,0.2C14,7,14,7.1,13.9,7.1z M10.9,17.6C10.9,17.6,10.9,17.6,10.9,17.6
			c0-0.1,0.1-0.2,0.2-0.2c0,0,0,0,0,0c0,0,0,0.1,0,0.1C11,17.6,10.9,17.6,10.9,17.6C10.9,17.7,10.9,17.7,10.9,17.6
			c0,0.1,0,0.1,0,0.1C10.8,17.7,10.9,17.6,10.9,17.6z M14.2,4.8C14.2,4.8,14.2,4.8,14.2,4.8C14.2,4.8,14.2,4.8,14.2,4.8
			c-0.1,0-0.1,0-0.2,0c0,0,0,0,0,0c-0.1,0-0.2-0.1-0.3-0.2c-0.1-0.1-0.2-0.1-0.1-0.2c0.1-0.1,0.2-0.1,0.3,0c0,0,0,0,0,0c0,0,0,0,0,0
			c0,0.1,0,0.2,0.1,0.3C14,4.7,14.1,4.7,14.2,4.8C14.3,4.7,14.3,4.7,14.2,4.8C14.3,4.8,14.3,4.8,14.2,4.8z M14.4,3.5
			c0.3-0.2,0.4-0.2,0.6,0c0,0,0,0,0,0c0.1,0,0.1,0.1,0.2,0.1c0.1,0,0-0.1,0.1-0.1c0.1-0.1,0.2-0.1,0.3-0.1c0,0,0,0,0,0.1
			c0,0,0,0,0,0c0,0.1-0.1,0.2-0.1,0.3c0,0.1,0.1,0.2,0,0.4c0,0,0,0,0,0c-0.1,0-0.1,0-0.2,0.1c0,0,0,0,0,0c-0.1,0-0.2,0-0.3,0
			c-0.2,0.1-0.2,0.2-0.2,0.4c0,0,0.1,0.1,0.1,0.1C15,4.9,15.2,4.9,15.1,5c0,0,0,0,0,0c-0.1,0.1-0.2,0.2-0.2,0.3c0,0,0,0,0,0
			c0,0-0.1,0.1-0.2,0.1c0,0,0,0,0,0c0,0,0-0.1,0-0.1c0-0.1-0.1-0.1-0.1-0.2c0-0.1,0-0.1,0-0.2c0,0,0-0.1-0.1-0.1c0,0,0-0.1,0-0.1
			c0-0.2-0.2-0.3-0.3-0.5c-0.1-0.1-0.1-0.2-0.1-0.2c0-0.1,0-0.1,0-0.2c0.1,0,0.1,0,0.2,0c0,0,0.1,0.1,0.1,0.1c0,0,0.1,0,0.1-0.1
			c0-0.1,0-0.2-0.1-0.2C14.4,3.6,14.4,3.6,14.4,3.5C14.4,3.5,14.4,3.5,14.4,3.5z M13.3,2.6C13.3,2.6,13.3,2.6,13.3,2.6
			C13.3,2.6,13.3,2.6,13.3,2.6c0.1,0.1,0.1,0.1,0.1,0.1c0,0,0,0-0.1,0.1c0,0,0,0,0,0c-0.1-0.1-0.2-0.1-0.3-0.2c0,0,0,0,0,0
			c0,0,0.1,0,0.1,0C13.2,2.5,13.3,2.5,13.3,2.6z M12.4,1.9c0,0,0.1,0,0.1,0c0,0,0.1,0,0.1,0c0,0,0.1,0,0.1,0c0,0,0,0,0,0
			c0,0,0,0.1,0,0.1c0,0-0.1,0,0,0.1c0,0,0,0,0,0.1C12.6,2.1,12.5,2,12.4,1.9C12.4,1.9,12.4,1.9,12.4,1.9z M9.8,7C9.8,7,9.8,7,9.8,7
			C9.9,7,9.9,6.9,9.8,7C9.9,7,9.9,7,9.8,7C9.9,7,9.9,7,9.8,7C9.9,7,9.8,7,9.8,7C9.8,7,9.8,7,9.8,7C9.8,7,9.8,7,9.8,7z M6,17.2
			C6,17.2,6,17.2,6,17.2c-0.1,0-0.2,0-0.2,0.1c0,0,0,0,0,0c0,0,0,0,0,0c0,0-0.1,0-0.1,0c0,0,0,0,0,0c0.1-0.1,0-0.2,0-0.3
			c0,0-0.1,0-0.2,0c0.1-0.1,0.2-0.1,0.3-0.2c0,0,0.1,0,0.1,0c0.1,0,0.1,0.1,0.2,0.1C6.2,17,6.3,17,6.2,17.2c0,0,0,0,0,0
			C6.1,17.2,6.1,17.2,6,17.2z M7.2,19.5c-0.3,0.1-0.6,0.1-0.9,0.1c-0.1,0-0.2,0-0.3,0.1c0,0,0,0-0.1,0c0,0,0,0-0.1,0c0,0,0,0,0,0
			c0,0-0.1,0-0.1,0c0,0,0,0,0,0c0.2-0.1,0.2-0.2,0.2-0.3c0,0,0,0,0,0c0.1-0.1,0.3-0.2,0.4-0.2c0.1,0,0.1-0.1,0.1-0.1
			c0.1-0.1,0.2-0.2,0.2-0.2c0,0,0,0,0,0c0.1,0,0.1,0.1,0.1,0.1c0,0.1,0.1,0.2,0.3,0.2c0,0,0,0,0,0c0,0,0.1,0,0.1,0
			C7.3,19.3,7.3,19.4,7.2,19.5z M7.3,18.4C7.2,18.5,7.2,18.5,7.3,18.4c-0.1,0.1-0.1,0.1-0.2,0.1c0,0,0,0,0,0c0-0.1,0.1-0.2,0.2-0.4
			c0.1,0,0.2-0.1,0.2-0.2C7.6,18.2,7.4,18.3,7.3,18.4z M7.8,17.2c-0.1,0.1-0.1,0.2-0.2,0.3c-0.1,0.1-0.1,0.2-0.1,0.3
			c-0.1,0,0,0.1-0.1,0.2c0-0.1-0.1-0.1-0.1-0.1c0,0,0,0,0,0c0-0.1,0.1-0.2,0.1-0.3c0-0.2,0.1-0.3,0.2-0.5c0,0,0,0,0,0c0,0,0,0,0,0
			c0.1,0,0.1,0,0.2,0c0,0,0,0,0,0c0,0,0,0,0,0C7.9,17,7.8,17.1,7.8,17.2z M9.3,17.9c0-0.1,0.1-0.1,0.1-0.2c0,0,0,0,0,0c0,0,0,0,0,0
			c0.1-0.1,0.3-0.1,0.4-0.3c0,0,0,0,0,0c0,0,0,0,0,0c0,0,0.1,0,0.1,0c0,0,0.1,0,0.1,0c0.1,0,0.1,0,0.1,0.1c0,0.1,0,0.1,0.1,0.1
			c0.1,0,0.1,0,0.1,0c0,0,0,0.1,0,0.1c0,0,0,0,0,0c0,0,0,0,0,0c0,0.1-0.1,0.2-0.2,0.2c0-0.1-0.1-0.1-0.2-0.1c0,0-0.1,0-0.1,0.1
			c0,0,0,0,0,0c-0.1,0-0.1,0-0.1-0.1c0-0.1,0-0.1-0.2-0.1C9.4,17.8,9.4,17.9,9.3,17.9z M17.6,26.7c0,0.1-0.1,0.1-0.2,0.2
			c0,0,0,0,0,0c0,0-0.1-0.1-0.1-0.1c0-0.1,0.1-0.1,0.1-0.1C17.5,26.6,17.6,26.7,17.6,26.7C17.6,26.7,17.6,26.7,17.6,26.7z M19,26.3
			C19,26.3,19,26.3,19,26.3c0.1,0,0.2,0,0.2,0c0-0.1,0-0.1,0-0.2c0,0,0-0.1-0.1-0.1c0,0,0.1,0,0.1-0.1c0,0,0,0,0,0
			c0,0,0.1,0,0.1,0.1c0,0.1,0.1,0.3,0.1,0.4C19.1,26.4,19.1,26.4,19,26.3z M19.9,25.4c-0.2,0-0.2-0.1-0.2-0.2c0-0.1,0.1-0.2,0.2-0.2
			c0,0,0,0.1,0.1,0.1l0,0c0,0.1,0.1,0.1,0.1,0.2c0,0,0,0.1,0,0.1C20,25.4,20,25.4,19.9,25.4z M21.8,24.8
			C21.8,24.8,21.8,24.8,21.8,24.8c-0.1-0.1-0.1-0.2,0-0.2c0,0,0,0,0.1,0c0.1,0,0.2,0,0.2,0c0.1,0,0.2-0.1,0.1-0.2
			c-0.1-0.1,0-0.3,0.1-0.4c0,0,0.1-0.1,0.1-0.1c0.1,0,0.1-0.1,0.2-0.1c0.1,0,0.2-0.1,0.3,0c0,0-0.1,0-0.1,0.1c0,0.1,0.1,0.1,0.2,0.2
			c0.1,0,0.1,0.1,0.1,0.1c0,0,0,0.1,0,0.1c-0.1,0-0.1,0.1-0.1,0.1c-0.1,0.1,0,0.1,0.1,0.1c0.1,0,0.2,0.1,0.4,0c0.1,0,0.1,0,0.2,0
			c-0.1,0.1-0.2,0.1-0.3,0.1c-0.1,0-0.2,0-0.2,0.1c0,0.1-0.1,0.2-0.3,0.2c-0.1,0-0.2,0.1-0.2,0.2c-0.1,0-0.1,0-0.2,0.1
			c-0.1,0-0.1,0-0.2,0C21.9,25.1,21.9,25,21.8,24.8z M25.1,26.9C25.1,26.9,25.1,26.9,25.1,26.9C25.1,26.9,25.1,26.9,25.1,26.9
			C24.9,27,24.8,27,24.7,27c0,0,0,0,0,0c-0.2,0-0.4,0-0.6,0.1c-0.1,0.1-0.2,0.1-0.3,0.2c0,0,0,0,0,0c-0.1-0.1-0.1-0.1-0.2-0.2
			c0,0,0,0,0,0c0-0.1,0-0.1,0-0.2c0.1,0,0.1-0.1,0.1-0.2c0,0,0,0-0.1,0c0.1-0.1,0.2-0.1,0.2-0.2c0.1,0,0.3-0.1,0.4-0.1
			c0.1,0,0.2,0,0.3,0.1c0,0,0.1,0.1,0.1,0.1c0.1,0.1,0.1,0.1,0.2,0.2c0,0,0.1,0,0.1,0c0,0,0-0.1,0-0.1c0-0.1-0.1-0.1-0.2-0.1
			c0-0.1-0.1-0.2-0.1-0.3c0,0,0,0,0,0c0,0,0,0,0,0l0,0c0-0.1,0-0.1,0.1-0.1c0.1,0,0.2,0.1,0.3,0.1c-0.1,0.3-0.1,0.3,0.2,0.4
			c0,0,0,0,0,0C25.2,26.8,25.2,26.8,25.1,26.9C25.2,26.9,25.2,26.9,25.1,26.9z M27.3,24.3C27.3,24.3,27.3,24.3,27.3,24.3
			C27.3,24.3,27.3,24.3,27.3,24.3C27.3,24.3,27.3,24.3,27.3,24.3C27.3,24.3,27.3,24.3,27.3,24.3C27.3,24.3,27.3,24.3,27.3,24.3
			C27.3,24.3,27.3,24.3,27.3,24.3z M30.1,13.1c0,0.2-0.1,0.4-0.2,0.5c0,0,0,0,0,0c0,0,0,0,0,0c-0.1,0-0.1,0-0.2,0c0,0,0,0,0,0
			c0,0,0,0-0.1,0c-0.1-0.1,0-0.1,0-0.2c0-0.1,0.1-0.2,0.2-0.3c0.1-0.1,0.1-0.2,0.1-0.3c0.1,0,0-0.1,0.1-0.2c0,0.1,0.1,0.1,0.1,0.1
			c0,0,0,0,0,0C30.2,12.9,30.1,13,30.1,13.1z M30.3,12.1c0,0.1-0.1,0.3-0.2,0.4c-0.1,0-0.2,0.1-0.2,0.2c-0.1-0.2,0.1-0.3,0.2-0.5
			c0,0,0,0,0.1-0.1C30.3,12,30.3,12,30.3,12.1C30.4,12.1,30.4,12.1,30.3,12.1z M30.9,11.5c-0.1,0.1-0.1,0.2-0.2,0.2c0,0,0,0,0,0
			c-0.1,0-0.1-0.1-0.1-0.1c0-0.1-0.1-0.2-0.3-0.2c0,0,0,0,0,0c0,0-0.1,0-0.1,0c-0.1-0.1-0.1-0.2,0-0.3c0.3-0.1,0.6-0.1,0.9-0.2
			c0.1,0,0.2,0,0.3-0.1c0,0,0,0,0.1,0c0,0,0,0,0,0c0,0,0,0,0,0c0,0,0.1,0,0.1,0c0,0,0,0,0,0c-0.2,0.1-0.2,0.2-0.2,0.4c0,0,0,0,0,0
			c-0.1,0.1-0.2,0.2-0.4,0.2C30.9,11.4,30.9,11.4,30.9,11.5z M31.7,13.7c0,0-0.1,0-0.1,0c-0.1,0-0.1-0.1-0.2-0.1
			c-0.2-0.1-0.2-0.1-0.1-0.3c0,0,0,0,0,0c0.1,0,0.1,0,0.1,0c0,0,0,0,0,0c0.1,0,0.2,0,0.2-0.1c0,0,0,0,0,0c0,0,0,0,0,0
			c0,0,0.1,0,0.1,0c0,0,0,0,0,0c-0.1,0.1,0,0.2,0,0.3c0,0,0.1,0,0.2,0C31.9,13.6,31.8,13.7,31.7,13.7z"/>
		<path class="st1" d="M33,11.8c-0.1,0.2-0.3,0.3-0.3,0.5c0,0,0,0,0.1,0c0.3-0.2,0.3-0.5,0.6-0.7c0.1,0,0.1-0.1,0.1-0.2
			c0-0.1,0-0.1-0.1-0.1C33.2,11.5,33.1,11.7,33,11.8z"/>
		<path class="st1" d="M31.5-1.1c0.1,0,0.1,0,0.2,0c0,0,0.1,0,0.1-0.1c0.2,0,0.3-0.1,0.4-0.2c0.1-0.1,0.1-0.1,0.2-0.2
			c0.1-0.1,0.2-0.1,0.3-0.2C32.9-2,33-2.1,33.2-2.2c0,0,0.1,0,0.1-0.1c0-0.1,0.1-0.1,0-0.2c-0.1-0.1-0.2,0-0.2,0.1
			c-0.1,0.1-0.1,0.2-0.3,0.3c-0.1,0-0.2,0-0.2,0.1c-0.2,0.1-0.3,0.1-0.5,0.3c-0.2,0.1-0.3,0.2-0.5,0.4C31.5-1.3,31.4-1.2,31.5-1.1z"
			/>
		<path class="st1" d="M22.8-1.2c0-0.1,0-0.2,0-0.2c-0.1,0-0.1,0.1-0.1,0.1c0,0,0,0,0,0c0,0.2,0,0.2-0.3,0.3
			c-0.2,0.1-0.3,0.2-0.2,0.3C22.4-0.7,22.7-0.9,22.8-1.2z"/>
		<path class="st1" d="M14.4-1c0,0.1,0,0.2,0,0.2c0,0,0,0.1,0.1,0.1c0.1,0.1,0.2,0.2,0.2,0.3c0,0.1,0.1,0.1,0.1,0.1
			c0.1,0,0.1-0.1,0.1-0.2c-0.1-0.1-0.2-0.2-0.2-0.4C14.6-1,14.5-1,14.4-1C14.4-1.1,14.4-1,14.4-1z"/>
		<path class="st1" d="M27.3,1.4C27.3,1.5,27.3,1.5,27.3,1.4c0,0.1-0.1,0.2-0.1,0.3c0,0.1,0.1,0.1,0.1,0.2c0.1,0,0.1,0,0.1,0
			c0.1-0.1,0.2-0.2,0.1-0.3c0-0.1,0-0.1-0.1-0.1c0.1-0.1,0.3-0.2,0.4-0.3c0,0,0.1-0.1,0-0.1c0,0-0.1,0-0.1,0
			C27.5,1.1,27.4,1.3,27.3,1.4z"/>
		<path class="st1" d="M24.9,35.2c-0.2,0-0.2,0.1-0.2,0.2c0,0.1,0.1,0.2,0.3,0.1c0.2,0,0.2-0.1,0.2-0.3
			C25.2,35.2,25.1,35.1,24.9,35.2z"/>
		<path class="st1" d="M27.1,0.3c0.1-0.1,0.2-0.1,0.3-0.2C27.4,0,27.5,0,27.5-0.1c0-0.1,0.1-0.1,0-0.2c-0.1,0-0.2,0-0.2,0
			c-0.2,0.2-0.3,0.3-0.4,0.5c0,0-0.1,0.1,0,0.1C27,0.4,27,0.4,27.1,0.3z"/>
		<path class="st1" d="M30.7-3.2c0.2,0.1,0.3,0,0.3-0.1c0,0,0-0.1,0-0.1c0.1-0.1,0.2-0.1,0.3-0.1c0.1-0.1,0.2-0.1,0.3-0.1
			c0.1,0,0.2-0.2,0.1-0.2c-0.1,0-0.1-0.1-0.1-0.1c0,0,0-0.1,0-0.1c0,0-0.1,0-0.1,0.1c-0.1,0.1-0.1,0.2-0.2,0.3c0,0,0,0,0,0
			c-0.1,0-0.1,0-0.2,0c-0.1,0-0.1,0.1-0.1,0.1c0,0,0,0,0,0c-0.1,0.1-0.2,0.1-0.3,0.2C30.6-3.3,30.6-3.3,30.7-3.2z"/>
		<path class="st1" d="M12.8,29c0.1,0,0.2-0.2,0.2-0.2c0-0.1-0.2-0.1-0.3-0.1c-0.1,0-0.2,0.1-0.2,0.2C12.5,28.9,12.7,29,12.8,29z"/>
		<path class="st1" d="M31.6-2.8c-0.1,0-0.2,0-0.2,0.1c0,0-0.1,0.1-0.1,0.2c-0.2,0.3-0.2,0.5-0.2,0.8c0,0.1,0.1,0.1,0.1,0
			c0,0,0.1-0.1,0.1-0.1c0.2-0.2,0.3-0.5,0.3-0.8c0,0,0,0,0-0.1C31.7-2.8,31.7-2.8,31.6-2.8z"/>
		<path class="st1" d="M38.4,2.2c0,0,0.1-0.1,0-0.1C38.4,2.1,38.3,2.1,38.4,2.2c-0.2,0-0.3,0.1-0.4,0.1c0,0-0.1,0-0.1,0.1
			c-0.1,0.1-0.2,0.1-0.3,0.2c0,0,0,0,0,0c0,0,0,0,0.1,0c0.1,0,0.1,0,0.2-0.1C38,2.5,38.2,2.4,38.4,2.2z"/>
		<path class="st1" d="M40,12.9c-0.1,0.1-0.2,0.1-0.3,0.2c-0.1,0-0.1,0.1-0.1,0.1c0,0,0.1,0.1,0.1,0.1c0.2,0,0.3,0,0.3-0.2
			C40,13.1,40,13.1,40,12.9C40,13,40,13,40,12.9z"/>
		<path class="st1" d="M11.1,29.6c0-0.1-0.1-0.1-0.1-0.2c-0.1,0-0.1,0-0.1,0c-0.1,0.1-0.1,0.2-0.1,0.3c0,0.1,0,0.1,0.2,0.1
			C11,29.7,11.1,29.7,11.1,29.6z"/>
		<path class="st1" d="M29.8-1.6c0.1-0.1,0.1-0.2,0.2-0.3c0.1-0.2,0.2-0.3,0.3-0.5c0,0,0-0.1,0-0.1c0,0-0.1,0-0.1,0.1
			c-0.1,0.2-0.2,0.4-0.3,0.5c-0.1,0.1-0.2,0.3-0.2,0.4C29.7-1.6,29.7-1.6,29.8-1.6z"/>
		<path class="st1" d="M11.1,0.2c0,0,0.1,0,0.1,0c0-0.1-0.1-0.3-0.2-0.4c0,0-0.1,0-0.1,0c0,0-0.1,0-0.1,0c0,0.1,0,0.1,0.1,0.2
			C10.9,0.1,11,0.2,11.1,0.2z"/>
		<path class="st1" d="M32.2,6.5c0,0.2-0.1,0.3-0.2,0.4c0,0.1,0.1,0.1,0.1,0c0.1-0.1,0.1-0.1,0.2-0.2c0.1-0.1,0.2-0.3,0.1-0.4
			C32.3,6.3,32.2,6.4,32.2,6.5z"/>
		<polygon class="st1" points="9.9,7 9.9,7 9.9,7 		"/>
		<path class="st1" d="M9.5-1.8C9.5-1.8,9.5-1.8,9.5-1.8C9.5-1.5,9.8-1.2,10-1c0.1,0.1,0.1,0.1,0.2,0.2c0.1,0.1,0.2,0.2,0.3,0.3
			c0,0,0,0,0,0c0-0.2-0.1-0.4-0.2-0.5c0-0.1,0-0.1,0-0.2c-0.1-0.1-0.1-0.2-0.2-0.3C10-1.6,9.9-1.7,9.8-1.9C9.7-2.1,9.6-2.2,9.3-2.3
			c-0.1,0-0.1,0-0.2,0c0,0.1-0.1,0.1,0,0.2C9.3-2,9.3-1.9,9.5-1.8z"/>
		<path class="st1" d="M42.2,8.2C42.2,8.1,42.2,8.1,42.2,8.2c-0.1,0-0.2,0-0.3,0.1c-0.1,0.1-0.1,0.2-0.2,0.2c0,0.1,0,0.1,0.1,0
			c0.1-0.1,0.2-0.1,0.3-0.2C42.2,8.3,42.2,8.2,42.2,8.2z"/>
		<path class="st1" d="M20,0.6C20.1,0.6,20.1,0.6,20,0.6c0-0.1,0-0.1,0-0.1c0-0.1,0-0.2-0.1-0.2c0,0-0.1-0.1-0.1-0.1
			c0,0,0,0.1,0,0.1C19.8,0.3,20,0.4,20,0.6C20,0.6,20,0.6,20,0.6z"/>
		<path class="st1" d="M36.5-2.8c0.2-0.1,0.3-0.2,0.4-0.3c0,0,0-0.1,0-0.1c0,0-0.1,0-0.1,0C36.6-3.1,36.5-3,36.5-2.8
			C36.5-2.9,36.5-2.9,36.5-2.8C36.5-2.8,36.5-2.8,36.5-2.8z"/>
		<path class="st1" d="M32.3-4.3c0.1,0,0.1,0,0.1-0.1c0.1-0.1,0.1-0.2,0.2-0.3c0-0.1,0.1-0.2,0.1-0.2c0,0,0-0.1,0.1-0.1
			c0.1-0.2,0.3-0.4,0.4-0.6c0.1-0.2,0.1-0.4,0.2-0.7c0.1-0.1,0.1-0.2,0.2-0.3c0-0.1,0-0.1,0-0.2c-0.1,0-0.1-0.1-0.2,0
			c-0.1,0-0.1,0.1-0.1,0.1c-0.1,0.1-0.2,0.2-0.2,0.4c0,0.1,0,0.1-0.1,0.2c-0.1,0.1-0.1,0.2-0.2,0.3c-0.2,0.2-0.3,0.4-0.3,0.6
			c0,0,0,0,0,0c0,0,0,0,0,0c0,0.1-0.1,0.2-0.1,0.3c0,0.1-0.1,0.2-0.1,0.3C32.2-4.4,32.2-4.3,32.3-4.3z"/>
		<path class="st1" d="M38.3,7.3c0,0,0.1,0,0.1,0c0.1-0.1,0.2-0.1,0.4-0.1c0.1,0,0.1,0,0.2,0c0-0.1,0-0.1-0.1-0.1
			c-0.1,0-0.2,0.1-0.3,0C38.5,7.1,38.4,7.1,38.3,7.3C38.3,7.2,38.2,7.2,38.3,7.3z"/>
		<path class="st1" d="M26-0.9c-0.1,0.1-0.2,0.6-0.2,0.7C25.9-0.3,26-0.7,26-0.9z"/>
		<path class="st1" d="M35.7,8.2c-0.1,0.1-0.4,0.4-0.4,0.6c0,0,0,0,0,0C35.5,8.6,35.6,8.4,35.7,8.2z"/>
		<path class="st1" d="M25.3,31.6c-0.5-0.1-1-0.1-1.2,0.4c0,0-0.1,0.1-0.1,0.1c0,0.3,0.2,0.4,0.5,0.5c0.2,0.1,0.4,0,0.6-0.1
			c0.1-0.1,0.1-0.2,0.2-0.2c0.1-0.1,0.1-0.2,0.1-0.3c0-0.1,0-0.3-0.1-0.4C25.4,31.7,25.4,31.6,25.3,31.6z M24.2,32.1
			C24.2,32.1,24.2,32.1,24.2,32.1C24.2,32.1,24.2,32.1,24.2,32.1C24.2,32.1,24.2,32.1,24.2,32.1z M24.2,32.1
			C24.2,32.1,24.2,32.1,24.2,32.1C24.2,32.1,24.2,32.1,24.2,32.1C24.2,32.1,24.2,32.1,24.2,32.1z M24.3,32.4
			C24.3,32.4,24.3,32.4,24.3,32.4C24.3,32.4,24.3,32.4,24.3,32.4C24.3,32.4,24.3,32.4,24.3,32.4C24.3,32.4,24.3,32.4,24.3,32.4
			C24.3,32.4,24.3,32.4,24.3,32.4C24.3,32.4,24.3,32.4,24.3,32.4C24.3,32.4,24.3,32.4,24.3,32.4C24.3,32.4,24.3,32.4,24.3,32.4
			C24.4,32.4,24.4,32.4,24.3,32.4C24.3,32.4,24.3,32.4,24.3,32.4z"/>
		<path class="st1" d="M32.2,2.8c-0.1,0.1-0.2,0.2-0.3,0.4C32.1,3.1,32.1,3,32.2,2.8C32.3,2.8,32.3,2.8,32.2,2.8
			C32.2,2.8,32.2,2.8,32.2,2.8z"/>
		<path class="st1" d="M3.1,3.6c0-0.1,0-0.1-0.1-0.2c0,0,0-0.1,0-0.1c0,0-0.1-0.1-0.1,0c0,0-0.1,0.1-0.1,0.1
			C2.9,3.4,2.9,3.6,3.1,3.6z"/>
		<path class="st1" d="M12.4-7.6c0.1,0,0.2,0.1,0.3,0.1c0.1,0,0.1,0,0.1-0.1C12.7-7.7,12.4-7.7,12.4-7.6C12.3-7.6,12.3-7.6,12.4-7.6
			z"/>
		<path class="st1" d="M8.1,0.2c0,0,0,0.1-0.1,0.1c0.1,0.1,0.2,0.2,0.3,0.2C8.3,0.4,8.3,0.3,8.1,0.2z"/>
		<path class="st1" d="M29.3-5.2c0.1,0,0.1-0.1,0.1-0.2c0-0.1-0.1-0.1-0.2,0c-0.1,0-0.1,0.1-0.1,0.1C29.1-5.2,29.2-5.2,29.3-5.2z"/>
		<path class="st1" d="M-1.4,8.2C-1.3,8.3-1.3,8.3-1.4,8.2C-1.1,8.3-1,8.4-0.8,8.4C-1,8.3-1.1,8.3-1.2,8.2c0,0,0,0-0.1,0
			C-1.3,8.1-1.4,8.1-1.4,8.2C-1.4,8.2-1.4,8.2-1.4,8.2z"/>
		<path class="st1" d="M18,3.9c0-0.1,0.1-0.1,0.1-0.2c0-0.1,0-0.1-0.1-0.1C17.9,3.6,17.9,3.7,18,3.9z"/>
		<path class="st1" d="M15.8-0.5c0.1-0.1,0.1-0.3,0.1-0.4c0-0.1,0-0.1,0-0.2c0-0.1,0-0.1,0-0.2c0,0,0,0,0,0c0-0.1,0.1-0.3,0-0.4
			c0,0,0-0.1,0-0.1c0,0,0-0.1,0-0.1c0,0,0,0,0,0c0.1-0.2,0-0.4,0-0.6c0-0.1,0-0.1-0.1-0.1c-0.1,0-0.1,0.1-0.1,0.1c0,0.1,0,0.1,0,0.2
			c-0.1,0.1-0.1,0.3,0,0.4c0,0.2-0.1,0.3-0.1,0.5c0,0,0,0.1,0,0.1c0,0.1,0.1,0.2,0.1,0.3C15.8-0.8,15.8-0.7,15.8-0.5z"/>
		<path class="st1" d="M28.7,4c-0.1,0-0.1,0.1-0.1,0.1c0,0.1,0,0.1,0.1,0c0.1,0,0.2,0,0.2-0.1C28.9,4,28.8,4,28.7,4z"/>
		<path class="st1" d="M7.2-3.9C7.2-4,7.2-4.1,7.1-4.1c0,0-0.1,0-0.1,0c0,0,0,0.1,0,0.1C7-4,7.1-3.9,7.2-3.9z"/>
		<path class="st1" d="M19.2-0.4c0,0,0.1,0.1,0.1,0c0.1,0,0-0.1,0-0.1c0,0,0-0.1-0.1-0.1c0,0-0.1,0-0.1,0C19-0.4,19.1-0.4,19.2-0.4z
			"/>
		<path class="st1" d="M2.2,3.1c0.1,0,0.1-0.1,0.1-0.1c0,0-0.1,0-0.1,0c0,0-0.1,0-0.1,0.1C2.1,3.1,2.2,3.1,2.2,3.1z"/>
		<path class="st1" d="M24.5,31.2c0.1,0.1,0.2,0.1,0.3,0.1c0.1,0,0.1,0,0.2,0c0,0,0.1,0,0.1-0.1c0.1-0.1,0.2-0.1,0.2-0.2
			c0.1-0.2-0.1-0.4-0.4-0.4c-0.1,0-0.3,0-0.4,0.1C24.3,30.8,24.2,31.1,24.5,31.2z M25.1,30.9c0,0,0,0.1,0,0.1
			C25.1,30.9,25.1,30.9,25.1,30.9z"/>
		<path class="st1" d="M6.8-1C6.9-0.9,7-0.8,7.1-0.8c0.1,0.1,0.1,0.1,0.2,0.2c0-0.1-0.1-0.2-0.2-0.3C7.1-0.9,7-1,7-1.1
			c0,0,0-0.1-0.1-0.1c-0.1,0-0.1,0-0.1,0.1C6.8-1.1,6.8-1,6.8-1z"/>
		<path class="st1" d="M19.9,2.2C19.9,2.2,20,2.2,19.9,2.2C20,2.2,20,2.2,19.9,2.2c0.2,0.1,0.2,0,0.2,0C20.2,2.1,20.1,2.1,19.9,2.2
			C20,2.1,19.9,2.1,19.9,2.2z"/>
		<path class="st1" d="M38.4,5c0,0.1,0.1,0,0.1,0c0.1,0,0.1,0,0.1-0.1c0,0-0.1,0-0.1,0C38.4,4.9,38.4,4.9,38.4,5z"/>
		<path class="st1" d="M24.6,1.2C24.5,1.2,24.5,1.2,24.6,1.2c-0.1,0.1,0,0.1,0,0.1c0,0,0.1,0,0.1-0.1C24.7,1.2,24.6,1.2,24.6,1.2z"
			/>
		<path class="st1" d="M26.3-1.2C26.4-1.2,26.4-1.1,26.3-1.2c0.1,0,0.2,0,0.2-0.1c0,0-0.1,0-0.1,0C26.3-1.3,26.3-1.2,26.3-1.2z"/>
		<path class="st1" d="M29.3-0.2C29.3-0.2,29.3-0.3,29.3-0.2c-0.1,0-0.2,0-0.2,0.1C29.2-0.1,29.2-0.1,29.3-0.2
			C29.3-0.1,29.3-0.2,29.3-0.2z"/>
		<path class="st1" d="M2.8,21c-0.1,0-0.1,0-0.2,0c0,0,0,0-0.1,0c0,0,0.1,0,0.1,0C2.7,21.1,2.8,21.1,2.8,21C2.8,21,2.8,21,2.8,21z"
			/>
		<path class="st1" d="M29-5c-0.1,0.1-0.1,0.1,0,0.2C29.1-4.8,29-4.9,29-5z"/>
		<path class="st1" d="M29.4,1.1c0.1,0,0.1,0,0.2,0c0,0,0-0.1,0-0.1C29.4,0.9,29.4,1,29.4,1.1C29.3,1,29.3,1.1,29.4,1.1z"/>
		<path class="st1" d="M38.4,18.5C38.4,18.6,38.3,18.6,38.4,18.5c0,0.1,0,0.1,0.1,0.1c0,0,0.1,0,0.1-0.1
			C38.5,18.5,38.5,18.5,38.4,18.5z"/>
		<path class="st1" d="M39.7,5.8C39.8,5.8,39.8,5.8,39.7,5.8c0-0.1,0-0.1-0.1-0.1c0,0-0.1,0-0.1,0.1C39.6,5.8,39.7,5.8,39.7,5.8z"/>
		<path class="st1" d="M16.4-0.9C16.4-1,16.5-1,16.4-0.9c0.1-0.1,0-0.1,0-0.1C16.3-1,16.3-1,16.4-0.9C16.3-0.9,16.3-0.9,16.4-0.9z"
			/>
		<path class="st1" d="M30-0.5c0.1-0.1,0.2-0.2,0.1-0.3C30-0.7,30-0.6,30-0.5z"/>
		<path class="st1" d="M20.4,0.9c0.1,0,0.1,0,0.2-0.1c0.1-0.2,0.2-0.3,0-0.5c-0.2,0.1-0.3,0.2-0.3,0.4C20.3,0.8,20.3,0.9,20.4,0.9z"
			/>
		<path class="st1" d="M38.3-2.5c-0.1,0-0.1,0-0.2,0c0,0,0,0.1,0,0.1C38.2-2.4,38.3-2.4,38.3-2.5z"/>
		<path class="st1" d="M3.4,7.6c0-0.1,0-0.1-0.1-0.1C3.3,7.5,3.3,7.6,3.4,7.6z"/>
		<path class="st1" d="M9.2,30.4C9.2,30.4,9.2,30.4,9.2,30.4c-0.1,0-0.1,0-0.1,0C9.1,30.5,9.1,30.5,9.2,30.4
			C9.2,30.5,9.2,30.5,9.2,30.4z"/>
		<path class="st1" d="M7.6-3.4c0-0.1,0-0.1-0.1-0.2C7.6-3.5,7.6-3.5,7.6-3.4z"/>
		<path class="st1" d="M31.5,2.3C31.5,2.3,31.5,2.4,31.5,2.3c0.1,0.1,0.1,0,0.1,0C31.5,2.3,31.5,2.3,31.5,2.3z"/>
		<path class="st1" d="M20,28c-0.1,0.1-0.3,0-0.5,0.1c0,0,0,0,0,0c-0.1,0-0.2,0.1-0.2,0.2c0,0.1,0.1,0.1,0.2,0.1
			c0.4,0.1,0.6,0.1,0.8-0.2c0,0,0-0.1,0.1-0.1c0.2,0,0.4-0.2,0.5-0.4c0-0.1,0-0.2-0.2-0.2c-0.2-0.1-0.4-0.1-0.5,0
			c-0.1,0-0.1,0-0.2,0c-0.2,0-0.3,0-0.4,0.1c-0.1,0-0.1,0.1-0.1,0.1c0,0.1,0.1,0.1,0.2,0.1c0.1,0,0.1,0,0.2,0
			C19.9,27.8,20,27.8,20,28C20.1,27.9,20.1,27.9,20,28C20.1,27.9,20.1,27.9,20,28C20.1,28,20,28,20,28z"/>
		<path class="st1" d="M20.6,28.2c-0.1,0-0.2,0.1-0.1,0.2c0,0.1,0.1,0.1,0.3,0.1c0.1,0,0.2-0.1,0.1-0.2
			C20.8,28.3,20.7,28.2,20.6,28.2z"/>
		<path class="st1" d="M21.3,29.4c-0.1,0-0.1-0.1-0.2-0.1c-0.2-0.1-0.4-0.2-0.6-0.2c-0.2,0-0.4,0-0.6,0c0,0-0.1,0-0.1,0
			c-0.1,0-0.1,0-0.1,0.1c-0.1,0.1-0.1,0.1-0.2,0.2c0,0,0,0-0.1,0c0,0,0,0,0,0c0,0,0,0-0.1,0c-0.1,0.1-0.1,0.1-0.2,0.1
			c-0.1,0-0.2,0.1-0.2,0.2c0,0.1,0,0.3,0,0.4c0,0.3,0.2,0.5,0.4,0.6c0.3,0.3,0.8,0.3,1.2,0.2c0.1,0,0.1-0.1,0.2-0.1
			c0.1,0,0.1-0.1,0.2-0.1c0.1-0.1,0.3-0.1,0.3-0.3c0.1-0.1,0.2-0.2,0.2-0.3c0-0.1,0-0.3,0-0.4C21.4,29.6,21.4,29.4,21.3,29.4z
			 M19.4,29.7C19.4,29.7,19.4,29.7,19.4,29.7C19.4,29.7,19.4,29.7,19.4,29.7C19.4,29.7,19.4,29.7,19.4,29.7z M19.5,29.5
			C19.5,29.5,19.5,29.5,19.5,29.5C19.5,29.5,19.5,29.5,19.5,29.5C19.5,29.5,19.5,29.5,19.5,29.5z"/>
		<path class="st1" d="M17.8,28.2c-0.1,0-0.1,0-0.1,0c-0.1,0-0.2,0-0.2,0.1c0,0,0,0,0,0c-0.1,0.1-0.2,0.2-0.2,0.3
			c-0.1,0.1,0,0.2,0.2,0.3c0.1,0,0.1,0.1,0.2,0.1c0.1,0,0.1,0,0.2,0c0.2-0.1,0.3-0.2,0.4-0.4C18.2,28.3,18.1,28.1,17.8,28.2z"/>
	</g>
	<g>
		<path class="st2" d="M22,14.4h2.8c-0.5-2.8-2.6-4.9-5.4-5.4v2.8C20.6,12.1,21.6,13.1,22,14.4z"/>
		<path class="st2" d="M19.4,19.1v2.8c2.8-0.5,4.9-2.6,5.4-5.4H22C21.6,17.8,20.6,18.8,19.4,19.1z"/>
		<path class="st2" d="M17.2,11.8V9c-2.8,0.5-4.9,2.6-5.4,5.4h2.8C15,13.1,16,12.1,17.2,11.8z"/>
		<path class="st2" d="M14.6,16.5h-2.8c0.5,2.8,2.6,4.9,5.4,5.4v-2.8C16,18.8,15,17.8,14.6,16.5z"/>
	</g>
</g>
</svg>
