<svg id="Capa_1" data-name="Capa 1" xmlns="http://www.w3.org/2000/svg" viewBox="0 0 419.14 413.49"><defs><style>.cls-1{fill:#002e6d;}.cls-1,.cls-2{fill-rule:evenodd;}.cls-2{fill:#fff;}</style></defs><path class="cls-1" d="M171.37,115.7a1,1,0,0,0-.75.47,6,6,0,0,0-1,4c.29,1.34,1.35,2,2.9,2.23,1.81.24,3.54.24,4.76-1.15,1.67-1.93,1.69-4-.81-5.06C174.83,115.52,173.05,116,171.37,115.7Z" transform="translate(-44.11 -17.29)"/><path class="cls-1" d="M306.08,414.49c0-.09-.12-.17-.17-.26a57.17,57.17,0,0,0-3.15-6.06c-.36-1.31.05-2.88-1.95-3.6-.11,0-.12-.24-.18-.37a8.61,8.61,0,0,1-1.41-3.27c-.37-1.38-.78-2.74-1.18-4.11-.33-1.19-.67-2.37-1-3.55l-.67-2.35a20.32,20.32,0,0,0-.81-2.73c-1-2.29-2.48-4.41-3.4-6.74a5.93,5.93,0,0,0-1.73-2.5c-.26-.22-.5-.64-1-.49s-.4.52-.47.86c-.34,1.74.6,3.29,1,4.92.68.25.7.79.83,1.27a9.48,9.48,0,0,0,1.78,4.12,4.31,4.31,0,0,1,.9,1.63c.15,1.44,1.45,2.46,2.07,3.73a5.24,5.24,0,0,0,1.26,2.67c.09.4.19.8.29,1.2l.66,2.36c.2.81,1.14,1.37,1.18,2.25.33.18.33.56.67.74l.06,0s0,0,0,0a.68.68,0,0,0-.23.37c.15.75.12,1.56.84,2.17l1.14,3.71a4.45,4.45,0,0,1,1,2,9,9,0,0,0,.78,2.43,19.69,19.69,0,0,1,2.6,6,1.81,1.81,0,0,0,1.06,1.39c.4.19.72.62,1.3.29s.46-.72.36-1.17C308.05,419,306.47,416.9,306.08,414.49Z" transform="translate(-44.11 -17.29)"/><path class="cls-1" d="M178.38,96.21a3.63,3.63,0,0,0-3.22-.37A5.26,5.26,0,0,0,171.45,99c-.62,1.57,3,3.5,4.66,2.94a10.2,10.2,0,0,0,1.44-.53C179.92,100.14,180.73,97.8,178.38,96.21Z" transform="translate(-44.11 -17.29)"/><path class="cls-1" d="M142.56,142.75a5.53,5.53,0,0,0,4.33.9c.66-.18,1.37-.26,2.06-.38.34-.26.86-.16,1.22-.38a2.32,2.32,0,0,0,.56-.21c1.77-1.22,1.53-1.78-.1-2.53-3.17-1.45-5.69-.73-8.11,1.22C142,141.79,141.85,142.35,142.56,142.75Z" transform="translate(-44.11 -17.29)"/><path class="cls-1" d="M295,404.74c-.37-1.43-.4-2.92-1.44-4.2-.07-.26-.14-.52-.22-.78-.18-.59-.37-1.17-.56-1.75-1-3.21-1.39-6.55-3.42-9.51-.32-1.29-.56-2.6-2.1-3.5a2.43,2.43,0,0,0-.11,1.86h0c.34,1.3.69,2.61,1,3.91.35,2.24,1.86,4.2,2.38,6.4a10.65,10.65,0,0,0,.63,4.24c.58,2,1.1,3.92,1.63,5.88a2.49,2.49,0,0,0,.38,2c.22.38.51.84,1.14.78a1.3,1.3,0,0,0,1.08-.88,3,3,0,0,0-.33-3.27C294.67,405.58,295,405.15,295,404.74Z" transform="translate(-44.11 -17.29)"/><path class="cls-1" d="M103.11,291.72a.26.26,0,0,0,.12.39,5.69,5.69,0,0,0,1.64-1.47c1.36-1.6,2.51-3.31,4-4.87a7.07,7.07,0,0,0,2-3,1.59,1.59,0,0,0-.44-1.7c-.55-.45-1.14.08-1.69.26-.26.1-.5.24-.76.33-.59.2-.77.62-.45,1,.64.73.16,1.25-.33,1.8A17,17,0,0,0,103.11,291.72Z" transform="translate(-44.11 -17.29)"/><path class="cls-1" d="M69.25,262.17c-1.63,1.05-3.64,1.69-5,3-2.46,1.76-5,3.46-7.36,5.29a24.07,24.07,0,0,0-4.37,3.9l-1,.82c0,.19.06.25.29.16a2.42,2.42,0,0,0,1-.82,28.1,28.1,0,0,0,6.57-3.72,3.77,3.77,0,0,0,.67-.5c.61-.41,1.37-.69,1.66-1.36,2.54-1.23,4.25-3.14,6.18-4.86a17.32,17.32,0,0,0,2.21-1.85C69.85,261.81,69.55,262,69.25,262.17Zm-3,2.18v0a.35.35,0,0,1,.11,0C66.33,264.31,66.33,264.33,66.28,264.35Z" transform="translate(-44.11 -17.29)"/><path class="cls-1" d="M101.82,259c-1.44.53-2.07,1.52-3.12,2.11-2.27,1.28-3.84,3.12-5.74,4.7a1.16,1.16,0,0,0-.38,1c0,.26.23.52.56.34,1.38-.76,3.25-.79,4.32-2.05a27.14,27.14,0,0,1,2.78-2.67A5.53,5.53,0,0,0,101.82,259Z" transform="translate(-44.11 -17.29)"/><path class="cls-1" d="M109,312.5a2.52,2.52,0,0,1,.54-1.9h0c.54-.37.54-1,.86-1.4a13.92,13.92,0,0,0,2.34-5c-1.38,1.32-1.92,3-3.3,4.31l-.8.78a1,1,0,0,0-.57.72l-.68,1.17c-.44.6-.84,1.21-1.31,1.79a13.87,13.87,0,0,0-2.77,4.72c-.67.52-.57,1.37-1.21,1.91a.69.69,0,0,0-.41.46c-1.39,1-1.09,2.67-2.48,3.71-.73.55-.37,1.07.67,1.22,1.36.19,1.66-.76,2.07-1.42a8.11,8.11,0,0,1,2.3-2.53,2.57,2.57,0,0,0,1.45-2.3,6.73,6.73,0,0,1,1.54-2.23A4.67,4.67,0,0,0,109,312.5Z" transform="translate(-44.11 -17.29)"/><path class="cls-1" d="M73.08,257.74c.54-.28,1.29-.32,1.59-.88A76.37,76.37,0,0,1,82,252.37a5.66,5.66,0,0,0-2.42.4c-3.88,1.35-7.15,3.52-10.67,5.34a18.74,18.74,0,0,0-7.65,3.72,4.74,4.74,0,0,0-1,1.25.6.6,0,0,0,.19.75c.25.22.43-.09.64-.12.87-.11,1.5-.66,2.33-.84a8.32,8.32,0,0,0,4.46-2.67,4.11,4.11,0,0,1,2.7-1.77.59.59,0,0,0,.18-.24h0a5.67,5.67,0,0,0,2.18-.41A.46.46,0,0,1,73.08,257.74Z" transform="translate(-44.11 -17.29)"/><path class="cls-1" d="M84,273.33a5.69,5.69,0,0,0-2.41,1,6.5,6.5,0,0,0-2.5,5.7c1-.78,1.81-1.46,2.67-2.12a8.84,8.84,0,0,0,2.78-3.82C84.72,273.71,85,273.11,84,273.33Z" transform="translate(-44.11 -17.29)"/><path class="cls-1" d="M78.86,258.56c.29-.55.16-.79-.55-.92a18.86,18.86,0,0,0-2.71-.14,2.51,2.51,0,0,0-1.8.78,4.27,4.27,0,0,0-2.38,2.26,3.75,3.75,0,0,1-.61.73c0,.2,0,.25.27.19,1.77-.44,3.44-1.09,5.24-1.47A3.38,3.38,0,0,0,78.86,258.56Z" transform="translate(-44.11 -17.29)"/><path class="cls-1" d="M206.73,348.31c-.6-.1-1,.4-1.33.84a3,3,0,0,0-.68.41,23.75,23.75,0,0,1-3.35,3.12c-.33.24-.67.6-.49,1.06a25.41,25.41,0,0,1-2.59,6.44l-3.11,5.32a5,5,0,0,0-1.25,1.89c-.83,1.4-1.89,2.72-2.12,4.31a16.73,16.73,0,0,1-2.08,3.16,29,29,0,0,0-2.59,3.73,66.37,66.37,0,0,0-6.14,9.17,6.77,6.77,0,0,0-1.56,2.57,9.33,9.33,0,0,1-3.27,4.85,4.67,4.67,0,0,0-1.44,2c-.1.29-.18.59.11.85,1.08,1,3.14.86,3.73-.35a37.48,37.48,0,0,1,4.15-6.66,6.64,6.64,0,0,0,1.88-3c.17-.34.82-.34.85-.79a18.1,18.1,0,0,0,2.11-2.79c.89-1.69,1.18-3.58,2.58-5.1.43-.61.88-1.2,1.26-1.82.9-1.43,2-2.8,2.34-4.43.41-.49.8-1,1.26-1.47a6.07,6.07,0,0,1,2.85-2c1.13-.27,1.62-.84,1.59-1.75a3.54,3.54,0,0,0,.95-1.21l.79-1a.75.75,0,0,0,.35-.44c.58-.83,1.18-1.64,1.75-2.47.37-.54,1-1,1.09-1.63.11-.32.56-.53.5-.91A15.26,15.26,0,0,0,207,355.5c.37-1.31,1.25-2.53,1.11-3.94a1.6,1.6,0,0,0,0-.23,2.88,2.88,0,0,0-.12-1.81A1.91,1.91,0,0,0,206.73,348.31Z" transform="translate(-44.11 -17.29)"/><path class="cls-1" d="M124.58,255.31c1.1-1.36,2.22-2.7,3.46-4s2.56-2.83,2.72-4.66c-.27-.1-.36,0-.49.1-2.47,1.57-3.25,4.16-5.43,5.91a3.19,3.19,0,0,0-1.06,1.54C123.78,254.71,123.6,255.29,124.58,255.31Z" transform="translate(-44.11 -17.29)"/><path class="cls-1" d="M135.07,366.23a6,6,0,0,0-1.91.34c-.39.17-.91.09-1.17.46a6.49,6.49,0,0,0-3.77,2c-.57.65-1.17,1.27-1.76,1.9l-2.63,1.53a22.65,22.65,0,0,1-4.89,3,2.12,2.12,0,0,0-.7.56c-.46.49-.92,1,0,1.52a1.54,1.54,0,0,0,2.17-.37,7.36,7.36,0,0,1,2.55-2.4c.66-.33,1.49-.38,2-.87a12.23,12.23,0,0,0,4.19-2.24,13,13,0,0,0,4.48-3.28C134.39,367.78,135.36,367.28,135.07,366.23Z" transform="translate(-44.11 -17.29)"/><path class="cls-1" d="M212.2,369.82c-.25.63-.45,1.48.3,1.68s.87-.69,1.11-1.21a1.27,1.27,0,0,0,.11-.38c.2-1.78.19-1.78,2.37-2.24,1.8-.39,2.63-1.44,2.3-3C215.55,365.81,213.19,367.28,212.2,369.82Z" transform="translate(-44.11 -17.29)"/><path class="cls-1" d="M286.09,367.91a3.89,3.89,0,0,1-2-2.47.79.79,0,0,0-1.12-.61c-.48.24-1.09.72-.59,1.34a9.54,9.54,0,0,1,1.9,3.43c.16.68,1,1,1.57,1.52.29.27.73.07.69-.24a12.34,12.34,0,0,1,0-2.11C286.48,368.33,286.39,368.08,286.09,367.91Z" transform="translate(-44.11 -17.29)"/><path class="cls-1" d="M173.2,345.13c.41-.48-.23-.95-1.23-.76a19.9,19.9,0,0,0-4.29,2.88c-.29.28-.6.62-.28,1s.78.29,1.23.23C171.06,348.18,172,346.52,173.2,345.13Z" transform="translate(-44.11 -17.29)"/><path class="cls-1" d="M176.07,354.29a4.57,4.57,0,0,0-1.42.94c-.79.58-1.63,1.12-2.36,1.74s-1.58,1.1-1.92,1.93c-.18.45-.65,1,.11,1.34a1.58,1.58,0,0,0,1.87-.3,18,18,0,0,0,3.65-4.33C176.08,355.18,176.56,354.76,176.07,354.29Z" transform="translate(-44.11 -17.29)"/><path class="cls-1" d="M141.16,385.69c-1.54-.51-2.25-.2-2.76,1.09-.11.29-.24.56-.35.85-.52.85-1.84.46-2.52,1.06a8.52,8.52,0,0,1-2.56.7c-1,.23-1.62,1.3-.92,1.86a2.43,2.43,0,0,1,.71,1.21c.1.25,0,.63.38.68a1,1,0,0,0,.86-.48c.72-.93,1.41-1.87,2.12-2.82a.72.72,0,0,0,.12-.21,5,5,0,0,1,1.63.1c.68-.23.89-.76,1.19-1.23h0c.78-.54,1.59-1,2.32-1.62C141.89,386.48,142,386,141.16,385.69Z" transform="translate(-44.11 -17.29)"/><path class="cls-1" d="M132.32,380.4c-.27.62-.17,1.08.68,1.37a1.49,1.49,0,0,0,1.9-.43c.31-.41.83-.76.77-1.32a9.12,9.12,0,0,0,1.85-7.1c-.16-.88-.53-.67-1.06-.29a3.52,3.52,0,0,0-.7.69,13,13,0,0,0-3.21,6.62Z" transform="translate(-44.11 -17.29)"/><path class="cls-1" d="M82.08,331c-.46.13-.91.28-1.36.44a24.5,24.5,0,0,0-5.37,3.19c-.35.24-.62.69-.34,1s.7-.07,1.06-.2c1.08-.38,1.81-1.15,2.84-1.58.25-.13.54-.22.65-.47a14.58,14.58,0,0,0,2.87-1.86c.14-.12.32-.25.2-.43S82.26,330.91,82.08,331Z" transform="translate(-44.11 -17.29)"/><path class="cls-1" d="M66.42,239.36c1.06-.45,2.12-.87,3.15-1.35.55-.25,1.07-.7,1-1.17s-.85-.52-1.29-.58c-1.88-.26-2.69-.53-3,1.39a1.23,1.23,0,0,1-.61.8C66.22,238.58,66.06,239.11,66.42,239.36Z" transform="translate(-44.11 -17.29)"/><path class="cls-1" d="M150,371.64a19.87,19.87,0,0,0-1.86,2.72c-.78,1.57-2.09,2.95-2.54,4.65-.21.22-.21.45.15.52s.71,0,.69-.45a24.21,24.21,0,0,1,3-4.67,6.73,6.73,0,0,0,1.59-3.57A1.92,1.92,0,0,0,150,371.64Z" transform="translate(-44.11 -17.29)"/><path class="cls-1" d="M316.06,360.76c-.37-.2-1.07-.41-.93.18a10,10,0,0,0,1.3,3.94,1.5,1.5,0,0,1,1.29,0c.42-.16.58.36,1,.24a8.6,8.6,0,0,0-.51-1.73A5.26,5.26,0,0,0,316.06,360.76Z" transform="translate(-44.11 -17.29)"/><path class="cls-1" d="M131.86,299c-.16-1.65.9-2.76,2.15-3.85-.34-.51-.69-.46-1.06,0-.57.6-1.17,1.19-1.7,1.82-.95,1.12-2,2.23-1.25,3.8C130.86,300.24,132,299.86,131.86,299Z" transform="translate(-44.11 -17.29)"/><path class="cls-1" d="M330.06,379.34a.32.32,0,0,0-.16-.17c-.27-2.75-2.38-4.76-4.21-6.89a7.65,7.65,0,0,0-1.59-1.74,26.12,26.12,0,0,0-2.73-2.62c-.23,0-.3.06-.23.24a14.18,14.18,0,0,0,1.7,4.86c.23.53-.13,1.1.21,1.62a11.73,11.73,0,0,0,1.56,2.31,16.62,16.62,0,0,1,2.47,2.93,5,5,0,0,0,3.86,4.12c.65.18,1.24.29,1.67-.2a1,1,0,0,0,0-1.56C331.73,381.29,330.9,380.31,330.06,379.34Z" transform="translate(-44.11 -17.29)"/><path class="cls-1" d="M47.62,277.93a22.86,22.86,0,0,0-2.53,1.41c-.55.39-1.13.91-1,1.63,0,.2.15.44.45.39a3.12,3.12,0,0,0,1.82-.95c.62-.7,1.19-1.44,1.78-2.16C48.33,277.77,48.08,277.73,47.62,277.93Z" transform="translate(-44.11 -17.29)"/><path class="cls-1" d="M237.19,355c-.25,0-.58-.07-.4.32a1.12,1.12,0,0,1,0,1c-.45.88-.1,1.53.76,2.1a12,12,0,0,1,1.22,1c.1-.31.23-.5.21-.68-.11-1.31-1.08-2.43-1.26-3.73C237.66,354.6,237.38,354.92,237.19,355Z" transform="translate(-44.11 -17.29)"/><path class="cls-1" d="M89.6,380.27a6.92,6.92,0,0,0-3.41,2.25.58.58,0,0,0,.15.83c.27.22.5,0,.75-.14a6.74,6.74,0,0,0,2.78-2.33c.14-.2.19-.39,0-.55A.49.49,0,0,0,89.6,380.27Z" transform="translate(-44.11 -17.29)"/><path class="cls-1" d="M126.6,394.43c-.51-.21-.82.18-1.13.43a6.66,6.66,0,0,0-1.79,2.46,12.72,12.72,0,0,0-1.43,2.12l-.69.95a55.27,55.27,0,0,0-3.6,4.85c-.64,1.93-.72,4-1.71,5.82a5.17,5.17,0,0,0-1.57,2.57,1.11,1.11,0,0,0,.19,1.65,1.56,1.56,0,0,0,1.7.23c.55-.32,1.21-.62,1.39-1.23.94-1,1.86-2.06,1.88-3.47a3,3,0,0,1,.84-1.82c.66-.75,1.2-1.56,1.78-2.35a12.8,12.8,0,0,0,3-5.53h0a6.23,6.23,0,0,0,.59-2.59c.33-1,.65-2,1-2.95C127.15,395.12,127.17,394.67,126.6,394.43Z" transform="translate(-44.11 -17.29)"/><path class="cls-1" d="M78.32,290.79c.23-.19.82-.24.5-.65s-.7-.26-1,0a4,4,0,0,1-3.55.65,3,3,0,0,0-1.43.29c-.29.57-.15.86.69.73a10.28,10.28,0,0,1,2.42-.33A3,3,0,0,0,78.32,290.79Z" transform="translate(-44.11 -17.29)"/><path class="cls-1" d="M362.84,278.48c-.37-1.74-1.74-2.59-4.72-2.85C359.39,277.05,361.34,277.47,362.84,278.48Z" transform="translate(-44.11 -17.29)"/><path class="cls-1" d="M184.1,366.38a19.81,19.81,0,0,0,2-6.48C185,360.94,183.76,365,184.1,366.38Z" transform="translate(-44.11 -17.29)"/><path class="cls-1" d="M105.55,277.6a29.24,29.24,0,0,0-3.71,5c1.33-.52,3.65-3.45,4-4.87C105.86,277.56,105.75,277.51,105.55,277.6Z" transform="translate(-44.11 -17.29)"/><path class="cls-1" d="M130.67,331.83c1.11-.89,2.24-1.77,2.58-3.31A16.78,16.78,0,0,0,130,331c-.27.22-.12.58.13.82A.41.41,0,0,0,130.67,331.83Z" transform="translate(-44.11 -17.29)"/><path class="cls-1" d="M301.46,429.83a7.4,7.4,0,0,0-2.33-.54c-.54.1-1.12.23-.83.76.46.83,2.44,1,3.19.31C301.73,430.14,301.84,430,301.46,429.83Z" transform="translate(-44.11 -17.29)"/><path class="cls-1" d="M152.75,403.73c-.6.24-1.15.73-1,1.33s.93.51,1.46.4c.83-.16.73-.8.7-1.3S153.4,403.61,152.75,403.73Z" transform="translate(-44.11 -17.29)"/><path class="cls-1" d="M412.83,283.43a1.12,1.12,0,0,0-.76-.28c-1.26-.31-2.37-1.11-4.18-.95,1.38.79,2.72,1.08,3.68,1.84.17.1.32.21.5.3a.75.75,0,0,0,1-.15C413.37,283.87,413.11,283.63,412.83,283.43Z" transform="translate(-44.11 -17.29)"/><path class="cls-1" d="M274.19,366.24c-1.22,1.09-1.08,2.24-1.14,3.35.22.55-.33,1-.33,1.51l-.36,1.51h0c-.44,1.28-1.05,2.54-.5,3.92.11.27-.15.64-.24,1-.24.19-.21.44-.27.67s0,.21,0,.3c-.64,1.61-.27,3.28-.42,4.92a.89.89,0,0,0,.75,1c.62.07.59-.52.79-.86.39-.66-.27-1.34.05-2a7.14,7.14,0,0,0,.58-3.63c-.05-1.63,1.09-3.06,1.17-4.66.14-.38.3-.75.44-1.12a10.76,10.76,0,0,1-.49-2.8C274.22,368.39,274.21,367.42,274.19,366.24Z" transform="translate(-44.11 -17.29)"/><path class="cls-1" d="M244.64,359.43c1.76-.67,1.36-1.93,1.61-3.27C245.13,357.24,244.41,358.15,244.64,359.43Z" transform="translate(-44.11 -17.29)"/><path class="cls-1" d="M161.65,321.83c.75-.05.64-.54.55-1s-.39-.6-.84-.36c-.72.13-1.59.32-1.43.91S161,321.88,161.65,321.83Z" transform="translate(-44.11 -17.29)"/><path class="cls-1" d="M244.61,363.75a1.11,1.11,0,0,0-1.06-.37c-.49.19-.16.59-.12.9s.18.78.77.89c.41-.24,1.2.21,1.34-.32S245,364.09,244.61,363.75Z" transform="translate(-44.11 -17.29)"/><path class="cls-1" d="M378.49,327.77c-.58.12-1,.41-.81.93a.65.65,0,0,0,.92.24c.4-.25,1.2-.16,1.17-.82A1.12,1.12,0,0,0,378.49,327.77Z" transform="translate(-44.11 -17.29)"/><path class="cls-1" d="M209.6,81.63a4.06,4.06,0,0,0-1.43.25c-.31.14-.74.1-.94.42a4.74,4.74,0,0,0-2.2,2.08c-.79,1.86,1,3.79,3.69,4.07a5,5,0,0,0,3.33-.84c2-1.54,2.55-4.64-.18-5.35A4.47,4.47,0,0,0,209.6,81.63Zm-3.25,3.19a.84.84,0,0,1,.37-.93A2,2,0,0,0,206.35,84.82Z" transform="translate(-44.11 -17.29)"/><path class="cls-1" d="M238.9,340.74l-.13-.18a.75.75,0,0,0-.59-.32c-.71-.18-1.18.09-1.25.6s.67.38,1.07.5C238.43,341.27,239.13,341.46,238.9,340.74Z" transform="translate(-44.11 -17.29)"/><path class="cls-1" d="M76,309.94c-.52.11-1,.36-.87.88s.53.2.83.16c.51-.09,1-.26,1-.77S76.38,309.87,76,309.94Z" transform="translate(-44.11 -17.29)"/><path class="cls-1" d="M327.24,304.06c-.15.66.16,1,1,1,1.11-.37.25-.85.1-1.29C327.93,303.75,327.39,303.39,327.24,304.06Z" transform="translate(-44.11 -17.29)"/><path class="cls-1" d="M197.36,347.92c.36,0,.76-.07.66-.52a.78.78,0,0,0-.87-.55c-.43,0-.87.31-.79.74S197,347.94,197.36,347.92Z" transform="translate(-44.11 -17.29)"/><path class="cls-1" d="M180.48,368.84c0-.25-.4-.44-.75-.33a1,1,0,0,0-.71,1c.14.3.44.33.79.27A.74.74,0,0,0,180.48,368.84Z" transform="translate(-44.11 -17.29)"/><path class="cls-1" d="M155.27,358.4c-.49.1-.82.31-.69.77.07.26.12.56.59.47a.8.8,0,0,0,.78-.87C156,358.43,155.67,358.32,155.27,358.4Z" transform="translate(-44.11 -17.29)"/><path class="cls-1" d="M401.31,179a5.68,5.68,0,0,0,.65-.36,2.46,2.46,0,0,0-.68-.31,1.94,1.94,0,0,0-1.54.48.19.19,0,0,0,.06.34A1.85,1.85,0,0,0,401.31,179Z" transform="translate(-44.11 -17.29)"/><path class="cls-1" d="M155.15,401.34c1.19-.59.75-1.24.44-1.95C154.39,399.89,155.07,400.57,155.15,401.34Z" transform="translate(-44.11 -17.29)"/><path class="cls-1" d="M154.89,347.73c-.47-.07-1-.42-1.38-.05-.14.12,0,.55.12.75.56.68,1-.1,1.44-.15Z" transform="translate(-44.11 -17.29)"/><path class="cls-1" d="M82.76,190c.45-.06.64-.25.5-.62s-.52-.41-.93-.33-.64.17-.51.53S82.29,190.07,82.76,190Z" transform="translate(-44.11 -17.29)"/><path class="cls-1" d="M65,302.59c-.51.05-.31.37-.3.52q.12.72.78.48c.32-.12.74-.27.64-.62S65.43,302.55,65,302.59Z" transform="translate(-44.11 -17.29)"/><path class="cls-1" d="M269,369.62c-.33.17-.83.23-.77.73.21.15.44.42.8.33s.69-.35.54-.76C269.44,369.68,269.36,369.42,269,369.62Z" transform="translate(-44.11 -17.29)"/><path class="cls-1" d="M147.18,363.82a4.35,4.35,0,0,0,1.4-2.6A3.54,3.54,0,0,0,147.18,363.82Z" transform="translate(-44.11 -17.29)"/><path class="cls-1" d="M234.31,351.91a1.15,1.15,0,0,0-1.51.48,3.63,3.63,0,0,0-.52,4.56,5.11,5.11,0,0,0,2.8-3.12C235.19,353.1,235.34,352.34,234.31,351.91Z" transform="translate(-44.11 -17.29)"/><path class="cls-1" d="M312.5,93.1a1.71,1.71,0,0,0,2.17-.07,3.77,3.77,0,0,0-1.49-.27C312.87,92.75,312.46,92.63,312.5,93.1Z" transform="translate(-44.11 -17.29)"/><path class="cls-1" d="M73.7,376.44c.58.06,1.14.23,1.59-.21.06-.29.08-.57-.27-.76C74.63,375.83,73.88,375.85,73.7,376.44Z" transform="translate(-44.11 -17.29)"/><path class="cls-1" d="M347.34,93.56c0,.22.23.26.42.26s.63,0,.6-.37-.22-.35-.51-.38A.55.55,0,0,0,347.34,93.56Z" transform="translate(-44.11 -17.29)"/><path class="cls-1" d="M136.71,336c.07-.08,0-.38-.13-.43-.39-.16-.53.14-1,.54C136.16,336,136.47,336.21,136.71,336Z" transform="translate(-44.11 -17.29)"/><path class="cls-1" d="M250.21,112.27c1.32-.73,2.82-.31,4.23-.42a2.78,2.78,0,0,0,.36-.08c.85-.35,1.84-.74,1.84-1.56s-1-1.11-1.83-1.3c-3.31-.79-5.28-.78-7,2-.19.32-.31.71-.89.72a4.4,4.4,0,0,0-4.39,3.06c-.24,1,.21,1.45,1.26,1.86a7,7,0,0,0,4.8.12,7.76,7.76,0,0,1,1.71-.15,5.52,5.52,0,0,0,3.69-.85c.55-.3,1.11-.62.9-1.28s-.87-.62-1.48-.67a2.62,2.62,0,0,0-1.41-.12,2.31,2.31,0,0,1-1.85-.53,1.84,1.84,0,0,1-.22-.17,2.35,2.35,0,0,1,.13-.57Z" transform="translate(-44.11 -17.29)"/><path class="cls-1" d="M246.82,107.66c-.35-.8-1.11-1-2.3-.79-.67.16-1.48.45-1.34,1.36a2.1,2.1,0,0,0,2.24,1.26C246.17,109.33,247.06,108.23,246.82,107.66Z" transform="translate(-44.11 -17.29)"/><path class="cls-1" d="M238.82,96.79c0,.85,0,1.82,1.07,2.4l1.73,1a12.28,12.28,0,0,0,5,1.89c1.66.16,3.31.41,5,.62l1-.2a1,1,0,0,0,1.19-.48,12.76,12.76,0,0,1,1.81-1.61c.08-.27.43-.27.66-.39,0,0,0,0,0-.05l.5-.06c.67-.45,1.07-1.16,2.09-1.25s1.43-.54,1.49-1.3a25.07,25.07,0,0,0-.18-3.35,6.25,6.25,0,0,0-2.24-4.69,2.93,2.93,0,0,0,.86-2.67,2.09,2.09,0,0,0-1.37,2.25c-.18-.14-.33-.3-.54-.44a10,10,0,0,0-10.27-2,3.34,3.34,0,0,0-1.58.86,13.6,13.6,0,0,1-1.47.88,6.63,6.63,0,0,0-3,2.22c-.8.88-1.83,1.78-1.63,2.91A20.8,20.8,0,0,1,238.82,96.79Zm18.17.53h0Zm-1.19,1.27a.19.19,0,0,1,0,.07l0,0Z" transform="translate(-44.11 -17.29)"/><path class="cls-1" d="M219.2,122.09c.68-.19,1.45-.45,1.36-1.09s-.67-.9-1.48-.75-1.62,1.08-1.39,1.47S218.63,122.12,219.2,122.09Z" transform="translate(-44.11 -17.29)"/><path class="cls-1" d="M343.41,320.9c-1.81-.18-3.55-.11-4.69,1.32-1.57,2-1.48,4,1.08,5,1.64.64,3.4.14,5.09.35a.94.94,0,0,0,.73-.5,5.88,5.88,0,0,0,.81-4.06C346.07,321.7,345,321.05,343.41,320.9Z" transform="translate(-44.11 -17.29)"/><path class="cls-1" d="M194.38,33.77c0,.09.14.17.19.26A57.43,57.43,0,0,0,198,40c.43,1.29.1,2.87,2.15,3.53.1,0,.13.23.19.36A8.82,8.82,0,0,1,202,47.08c.43,1.36.92,2.71,1.39,4.07l1.19,3.5c.26.78.53,1.55.8,2.33a18.82,18.82,0,0,0,1,2.7c1.12,2.25,2.71,4.32,3.76,6.61a6,6,0,0,0,1.85,2.44l.22.19a2.29,2.29,0,0,0-.23-.1,5.88,5.88,0,0,0-5.43.65c-.68.7-1.33,1.42-2,2.11A4.2,4.2,0,0,0,203,73.76a3.66,3.66,0,0,0,.86,3.56c.38.33.68.81,1.15,1,4.26,1.48,8.56.83,10.64-3.32.21-.43.64-.89.58-1.31a5.54,5.54,0,0,0-3.53-4.46.45.45,0,0,0,.16,0c.39-.15.38-.53.43-.88.25-1.74-.78-3.26-1.23-4.88-.68-.23-.73-.76-.89-1.24a9.75,9.75,0,0,0-2-4,4.44,4.44,0,0,1-1-1.6c-.22-1.43-1.57-2.41-2.26-3.65a5.33,5.33,0,0,0-1.4-2.63c-.12-.39-.24-.79-.35-1.19-.27-.77-.53-1.55-.79-2.33s-1.22-1.33-1.3-2.21c-.34-.17-.36-.54-.71-.71l-.06,0s0,0,0,0a.64.64,0,0,0,.22-.38c-.19-.74-.2-1.55-1-2.14-.44-1.22-.88-2.44-1.33-3.67a4.39,4.39,0,0,1-1.14-2,8.91,8.91,0,0,0-.9-2.4,20,20,0,0,1-2.93-5.91A1.88,1.88,0,0,0,193.13,26c-.41-.16-.76-.59-1.31-.23s-.42.73-.29,1.18C192.18,29.3,193.87,31.37,194.38,33.77Zm21,40.62a.18.18,0,0,1-.06.17c0-.12,0-.24,0-.37C215.33,74.26,215.34,74.32,215.37,74.39Zm-.07.2a0,0,0,0,0,0,0l0,0Zm-.9-3a.46.46,0,0,0-.07-.07s0-.07-.05-.09A1.11,1.11,0,0,1,214.4,71.62Zm-.12-.18c-.07-.06-.12-.13-.18-.19h0C214.15,71.3,214.21,71.38,214.28,71.44Z" transform="translate(-44.11 -17.29)"/><path class="cls-1" d="M340.89,341.51a11.88,11.88,0,0,0-1.41.58c-2.29,1.33-3,3.71-.55,5.21a3.68,3.68,0,0,0,3.24.26,5.15,5.15,0,0,0,3.54-3.27C346.24,342.71,342.55,340.9,340.89,341.51Z" transform="translate(-44.11 -17.29)"/><path class="cls-1" d="M372.24,299.55a5.62,5.62,0,0,0-4.38-.74c-.65.2-1.35.3-2,.45-.33.27-.85.19-1.21.42a2.2,2.2,0,0,0-.54.23c-1.71,1.28-1.44,1.83.23,2.52,3.25,1.34,5.73.54,8-1.5C372.84,300.5,373,299.93,372.24,299.55Z" transform="translate(-44.11 -17.29)"/><path class="cls-1" d="M206,43.13c.45,1.4.56,2.9,1.66,4.13l.27.78c.22.58.43,1.16.65,1.73,1.14,3.18,1.74,6.5,3.93,9.39.39,1.27.69,2.57,2.28,3.41a2.42,2.42,0,0,0,0-1.85h0l-1.24-3.88c-.47-2.23-2.09-4.13-2.73-6.31a9.34,9.34,0,0,0-.71-3.78c.11,0,.21,0,.32,0,1.53-.24,2.1-.88,1.82-2s-1-1.43-2.45-1.19a2.79,2.79,0,0,0-.69.22c-.36-1.09-.73-2.17-1.09-3.25a2.44,2.44,0,0,0-.48-2c-.24-.38-.55-.83-1.18-.74a1.25,1.25,0,0,0-1,.91,3,3,0,0,0,.5,3.26C206.26,42.28,206,42.72,206,43.13Z" transform="translate(-44.11 -17.29)"/><path class="cls-1" d="M403.71,149.35a.27.27,0,0,0-.14-.39,5.66,5.66,0,0,0-1.56,1.52c-1.28,1.65-2.33,3.4-3.7,5a6.94,6.94,0,0,0-1.87,3,1.6,1.6,0,0,0,.53,1.68c.58.43,1.13-.12,1.67-.32.26-.1.49-.25.75-.35.58-.22.74-.65.4-1-.68-.71-.23-1.24.23-1.8A16.49,16.49,0,0,0,403.71,149.35Z" transform="translate(-44.11 -17.29)"/><path class="cls-1" d="M455.91,163.92a2.39,2.39,0,0,0-1,.86,27.41,27.41,0,0,0-6.37,3.95c-.27.12-.41.35-.64.51-.59.43-1.33.74-1.58,1.43-2.47,1.31-4.08,3.28-5.92,5.06a17.71,17.71,0,0,0-2.11,1.93c.25.41.54.19.83,0,1.58-1.11,3.55-1.82,4.88-3.17,2.37-1.84,4.8-3.63,7.07-5.55a23.46,23.46,0,0,0,4.16-4l1-.85C456.22,163.88,456.13,163.82,455.91,163.92Z" transform="translate(-44.11 -17.29)"/><path class="cls-1" d="M415.23,174.84a1.13,1.13,0,0,0,.32-1.05c0-.26-.25-.52-.57-.32-1.34.8-3.21.9-4.21,2.19a25.4,25.4,0,0,1-2.64,2.77,5.47,5.47,0,0,0-1.39,3.52c1.41-.58,2-1.59,3-2.22C411.94,178.37,413.42,176.48,415.23,174.84Z" transform="translate(-44.11 -17.29)"/><path class="cls-1" d="M396.76,128.79a2.46,2.46,0,0,1-.43,1.92h0c-.52.39-.49,1-.78,1.43a13.46,13.46,0,0,0-2.07,5.06c1.3-1.38,1.75-3.09,3.06-4.43l.76-.8a1,1,0,0,0,.53-.75l.62-1.19c.4-.61.77-1.24,1.21-1.83a13.39,13.39,0,0,0,2.51-4.81c.65-.55.5-1.4,1.12-2a.68.68,0,0,0,.37-.47c1.35-1,1-2.71,2.28-3.79.71-.58.32-1.09-.73-1.2-1.36-.15-1.62.81-2,1.48a7.73,7.73,0,0,1-2.18,2.61,2.54,2.54,0,0,0-1.32,2.36,6.58,6.58,0,0,1-1.42,2.28A4.59,4.59,0,0,0,396.76,128.79Z" transform="translate(-44.11 -17.29)"/><path class="cls-1" d="M447.27,175.86c-.87.14-1.47.72-2.29.92a8.2,8.2,0,0,0-4.31,2.82,4,4,0,0,1-2.6,1.87.49.49,0,0,0-.17.24h0a5.58,5.58,0,0,0-2.15.48.65.65,0,0,1-.21.06c-.52.3-1.27.36-1.53.94a76.44,76.44,0,0,1-7.05,4.73,5.63,5.63,0,0,0,2.4-.48c3.81-1.49,7-3.76,10.38-5.7a18.35,18.35,0,0,0,7.45-4,4.68,4.68,0,0,0,.95-1.28.6.6,0,0,0-.23-.75C447.64,175.51,447.48,175.83,447.27,175.86Z" transform="translate(-44.11 -17.29)"/><path class="cls-1" d="M428.3,160.23c-.94.81-1.74,1.52-2.56,2.22a8.55,8.55,0,0,0-2.58,3.9c-.12.35-.31,1,.58.71A5.63,5.63,0,0,0,426.1,166,6.38,6.38,0,0,0,428.3,160.23Z" transform="translate(-44.11 -17.29)"/><path class="cls-1" d="M429.7,181.63c-.26.56-.11.8.6.9a19,19,0,0,0,2.72.05,2.48,2.48,0,0,0,1.76-.85,4.12,4.12,0,0,0,2.25-2.34,3.54,3.54,0,0,1,.57-.75c0-.2-.06-.24-.28-.18-1.74.5-3.37,1.21-5.15,1.66A3.31,3.31,0,0,0,429.7,181.63Z" transform="translate(-44.11 -17.29)"/><path class="cls-1" d="M297.17,96.43c.61.08,1-.44,1.29-.89a2.82,2.82,0,0,0,.65-.43,22.67,22.67,0,0,1,3.19-3.24c.31-.25.63-.62.43-1.07A24.53,24.53,0,0,1,305,84.27l2.82-5.42a4.87,4.87,0,0,0,1.15-1.93c.76-1.43,1.75-2.79,1.89-4.39a16.55,16.55,0,0,1,1.91-3.22,27.33,27.33,0,0,0,2.39-3.82,65.43,65.43,0,0,0,5.64-9.37,6.6,6.6,0,0,0,1.43-2.63,9,9,0,0,1,3-5,4.57,4.57,0,0,0,1.34-2,.68.68,0,0,0-.16-.84c-1.13-1-3.18-.76-3.71.48A36,36,0,0,1,318.89,53a6.57,6.57,0,0,0-1.72,3.1c-.15.35-.8.37-.81.82a17.68,17.68,0,0,0-2,2.86c-.8,1.72-1,3.62-2.31,5.18-.39.62-.8,1.23-1.16,1.87-.82,1.46-1.85,2.86-2.09,4.5-.4.51-.75,1-1.19,1.52a5.88,5.88,0,0,1-2.75,2c-1.11.32-1.56.9-1.49,1.81a3.53,3.53,0,0,0-.88,1.24l-.74,1a.75.75,0,0,0-.32.45c-.54.84-1.1,1.68-1.62,2.53-.34.55-.91,1-1,1.66-.09.33-.53.55-.46.94a14.83,14.83,0,0,0-1.91,4.78c-.3,1.32-1.12,2.58-.9,4a1.94,1.94,0,0,0,0,.24,2.88,2.88,0,0,0,.22,1.8A2,2,0,0,0,297.17,96.43Z" transform="translate(-44.11 -17.29)"/><path class="cls-1" d="M415.25,200.37a7.59,7.59,0,0,0-3.8,1.16,39.18,39.18,0,0,1-7.19,3.75,15.85,15.85,0,0,0-5.91,3c-.4.31-.69.75-1.37.7l-.26,0c0-.74.9-1,1.36-1.45s.91-.74.74-1.57c-1.2,1.06-2.09,2.22-3.84,2.38-.83,0-1.87.55-2.29-.56l-.21-.6c-.07-.26-.15-.52-.22-.77a3.77,3.77,0,0,0-.42-2.64.36.36,0,0,0-.07-.18c0-.18-.06-.37.14-.51l.6-3.61c.67-.65-.09-1.24-.11-1.86.68-1.79,1.18-3.67,3.58-4.58.13-.21.3-.47,0-.62a1,1,0,0,0-.91.17,2.81,2.81,0,0,0-1.11.5c-.26.13-.55.24-.63.51a7.52,7.52,0,0,0-1.13,1.74,1.5,1.5,0,0,1-1.82,1.07,3.68,3.68,0,0,1-1.2.45c-1,.32-2.1.26-3.12.52a14.83,14.83,0,0,1-1.71-.78c-.28-.16-.34-.19-.53,0-1.3,1.51-3.49,2.11-5.11,3.32A5.77,5.77,0,0,1,375,201.3h0l-1,.17c-.65-.28-.82.2-1.14.47s-.51.33-.55.09c-.14-.82-.79-.58-1.38-.51a7.17,7.17,0,0,1-2.69-.2c-1.2-.93-1.09-2.29-1.69-3.42-.28-.6.42-1.12.19-1.71,0-.15.07-.3.11-.44a6.46,6.46,0,0,1,2.14-3c.69-.64,1.39-1.3.74-2.23-.16-1-1-2-.47-3a5.28,5.28,0,0,0,.35-3.62,16.51,16.51,0,0,1,1.8-3.11,3.07,3.07,0,0,1,1-.7c1.83-.54,3.8-.46,5.68-.79.44.11.83-.23,1.28-.1.64-.21,1.32-.38,1.93-.65s1.38-.82,1.37-1.55a1.84,1.84,0,0,0-1.4-1.74,8.34,8.34,0,0,0-3.44-.49,2.66,2.66,0,0,1-2-.2c-1.84-1.09-3.17-.75-4,1-.72,1.56-1.72,1.91-3.63,1.31a14.36,14.36,0,0,0-6.33-1.11c-1.81-.68-3.93-.59-5.67-1.45-.67-.18-.51-.61-.41-1a2.06,2.06,0,0,0-.28-1.67,2.93,2.93,0,0,0-1.52,2.29,1.31,1.31,0,0,0-.48.75,3,3,0,0,1-2.74.29,15.68,15.68,0,0,0-3.56-.5,13.25,13.25,0,0,0-2,.17c-1.8,1-4,1.48-5.49,2.94.06-.26.14-.49.2-.72a6.23,6.23,0,0,1,4.15-4.45.93.93,0,0,0,.67-.76l.71-.87c.19-.2.37-.42.58-.62,1-.94,1.49-2.31,3.22-2.7a.94.94,0,0,0,.7.06c2.43-.42,4-1.49,4.06-3.61a.93.93,0,0,0,.34-.93l-1.36.3c-.24,0-.3.09-.14.25l.39.35a1.1,1.1,0,0,0,0,.18l-.71.23-1,.14c-1.37-.66-.63-1.44-.23-2.21,2.17-2.95,4.69-5.72,6.65-8.76a2.88,2.88,0,0,0,.69-1.48c.16-.38.32-.75.47-1.13a1.4,1.4,0,0,0,.45-.77l.48-.92a5.65,5.65,0,0,0,1.16-2.37c0-.18.2-.73-.43-.25-.65.11-.54-.24-.51-.56-.05-.12-.11-.25-.16-.38.16-1.47,1.11-2.71,1.76-4a29.88,29.88,0,0,0,2.75-7A3.54,3.54,0,0,1,366,132c2.1-1.44,5-1.94,6.74-3.85.17-.19.58-.23.87-.35a4.65,4.65,0,0,0,1.92-.85,7.88,7.88,0,0,1,3.91-1.48,2.68,2.68,0,0,0,2.12-.75,4.72,4.72,0,0,1,2.67-1.33c.42-.08.92-.1,1.17-.47a15,15,0,0,0,7.47-3.94,5.93,5.93,0,0,0,1.49-1.6,7.62,7.62,0,0,0,1.56-2.4,20,20,0,0,1,2-3,2.55,2.55,0,0,0,.94-1.18c.06-1.58-.92-2.87-1.94-4.09-.57-.7-1.46-.51-2.1.17a7.09,7.09,0,0,0-.89,1.64c-1.05,1.06-1.61,1.22-2.74.78-.33-.13-.67-.24-1-.35a5.17,5.17,0,0,0-2.94-.41,4.49,4.49,0,0,0-3.84.85c-1.3,1.42-2.93,2.72-2.48,4.74-.13,1.7.82,2.92,2.55,3.8a5.05,5.05,0,0,0,.77.46c1,.38,1.09.81.39,1.52-.48.49-1.16.8-1.63,1.29a9.89,9.89,0,0,1-4.1,1.51,25.25,25.25,0,0,0-5.38,1,22,22,0,0,1-4.35.93h0c-1.09.22-2.32.11-3.24.76a22.36,22.36,0,0,1-7,2.75c-1,0-2,.1-3.05.11a47,47,0,0,0-7.78.6,4.65,4.65,0,0,1-2.4-.05c-.41-.18-.3-.82-1-.74a9,9,0,0,1-1.77,1l-.05.09a.79.79,0,0,1-.7-.27s0-.05,0-.08a1,1,0,0,1,0-.67c.13-.3.46-.51.54-.82a1.39,1.39,0,0,0,1.17-.51c.17-.26.41-.5.16-.81-1.08-.45-2,.1-3,.27l-1.26,0c-.43-.78-.08-1.63-.36-2.43-.16-.47.12-.79.43-1.17a27.4,27.4,0,0,1,3.6-3.06c.11-.21.25-.42.35-.63,1.27-3,2-6.16,4.67-8.65.05,0,0-.12.07-.19l.17-.24a12.88,12.88,0,0,0,1-1.14c.81-1.22,2.47-1.86,3.17-3.17a24.57,24.57,0,0,1,5.65-7.11,8,8,0,0,1,3-1.87,1.08,1.08,0,0,0,.84-.48,19,19,0,0,0,2.9-3.06.36.36,0,0,0,.16-.11l4.18-3.78a3.1,3.1,0,0,0,.71-3.92c-2.07-1-5.79-.52-7.38,1-1.5,2-3.06,4.06-4.39,6.19l-1.33,1.35A39.93,39.93,0,0,1,352,96.26a12,12,0,0,0-4.36,2.6c-.4,0-.49.33-.65.56a34,34,0,0,0-3.22,7.17,7.83,7.83,0,0,1-1,2.31c-.89.84-2.13,1.47-2.42,2.66l-.67,2a5.68,5.68,0,0,0-.57.53,2.4,2.4,0,0,1-2.09.85c-.89-.1-.65-.89-.9-1.38.61-1.69.81-3.54,2.05-5s1.24-3.24,1.69-4.89c.09-.32,0-.88-.27-1a1.62,1.62,0,0,0-1.36.29,1.91,1.91,0,0,0-.51.42,6.52,6.52,0,0,0-1.49,3c-.35,2.06-.58,4.14-2.08,5.93h0c.11.47-.25.87-.33,1.32-.53,1.47-1.95,2-3.64,2.29-1.5.28-3-.09-3.06-1.44l1.21-2.55a4.58,4.58,0,0,0,.81-2.35c.13-1.14.65-1.48,2-1.45a7.66,7.66,0,0,0,1,.14c.36,0,.84,0,.93-.32a.71.71,0,0,0-.55-.9,5.12,5.12,0,0,0-.7-.11c-.83-.06-1.36-.37-1.42-1.08,0-.39-.4-.55-.76-.71a.84.84,0,0,0-.72.63c-.58,1.85-1.14,3.7-1.69,5.57-.06.18.05.39.08.58.14,1-.57,1.69-1,2.5-.77.19-1.12-.3-1.47-.67a6,6,0,0,1-1.65-4.06.73.73,0,0,0,.31-.69c1.14-1.36.78-2.89-1-4.37a24.05,24.05,0,0,1-2.24-1.39c-.46-.26-.47-.77-.87-1.06a8.85,8.85,0,0,0-1.57,2.23,12.27,12.27,0,0,0-1,1.31,2.24,2.24,0,0,0-1.52-.31c-1.11.22-2.08,1.27-1.9,2.07a1.58,1.58,0,0,0,1,.84,6.65,6.65,0,0,0-2,1.58c-.2.27-.5,0-.77,0a4,4,0,0,0-3.23.37c-.77.51-1.49.68-2.08-.17a1.05,1.05,0,0,0-.46-.45c-1.94-1.19-3.87-2.39-5.81-3.6a4.41,4.41,0,0,0-4-1.36c-1.41.17-1.52.3-1.15,1.4.15.41.27.83.4,1.25l.26.57a4.25,4.25,0,0,0,.48,2.19c-.22.46-.41,1.09-1,1.2-1.46.3-2.69,1-4.09,1.37a2.47,2.47,0,0,1-1.4-.91,1.25,1.25,0,0,0-.77.31,2.51,2.51,0,0,0-1.7-.84c-.18,0-.34,0-.51,0,.23-.76.47-1.51.66-2.28,0-.24.1-.34.42-.31.54,0,.63-.27.65-.62s-.23-.64-.34-1a3.36,3.36,0,0,1-.19-1.57,24,24,0,0,1,1.17-5.25,1.18,1.18,0,0,0-.29-1.46,3.39,3.39,0,0,0-1.8,2.47c-.17.82-.5.17-.77.15-.09-.47-.18-.94-.28-1.41a23.42,23.42,0,0,0,.25-4c.2-1-.47-1.84-.72-2.76-.19-.58-.38-1.15-.56-1.72a5.48,5.48,0,0,1-2.45.28c0-.05-.07-.1-.1-.16a8.63,8.63,0,0,1-.47-2.75c0-.75-.68-1.13-1.46-1s-.54.74-.45,1.15a8.89,8.89,0,0,0,1.48,2.82,3.22,3.22,0,0,1,.16,1.41,2.31,2.31,0,0,0-.32,1.32c-.55,1-1,1.91-.07,3a1.92,1.92,0,0,1,.26,2.11,17.32,17.32,0,0,0-.54,1.8c-.47,1.17-.82,2.46-2.51,3a11.22,11.22,0,0,1-2.32-.74c-.14-.06-.24-.2-.44-.18-.4.23-.94.33-1.15.76.64.43.36,1.24,1,1.66.06.14.11.28.16.42a3.34,3.34,0,0,0-1.1-.88c-.59-.31-1.21-.58-1.82-.87a4.26,4.26,0,0,0-1.43.26c-2,.48-2.82,1.88-3.73,3.19-.86,1.6.37,3.17,2.44,3.13.44.07.85-.2,1.3-.09a11.31,11.31,0,0,0,2.18-.49.93.93,0,0,0,.32-.18,4.13,4.13,0,0,0,2-2.23,2.84,2.84,0,0,0,.17-.61,4,4,0,0,0,.69,1.89,1.64,1.64,0,0,1,0,2.25,4.3,4.3,0,0,0-.6,1,9.67,9.67,0,0,0-1.33,3,29.54,29.54,0,0,0-1.46,2.71,1.61,1.61,0,0,0-.27-.56c-.22-.3-.07-.76-.56-1a8.23,8.23,0,0,0-3.3-1.66c-.39-.24-.78-.06-1.17,0-1.24.21-2.47.44-3.71.66a3.55,3.55,0,0,1-1.63-.92l0-.21c-.09-.64.47-.93,1-1.22a4.19,4.19,0,0,0,2-1.55c.75-1.51-.06-2.56-2.37-3.16l-1.7.34c-1.17.65-2.47,1.24-2.36,2.65-.22.59.14,1.12.29,1.67a.79.79,0,0,1-.41,1,6.5,6.5,0,0,0-2.36,2.9c-.52,1.21-.86,2.57-2.79,2.93-.07,0-.11.16-.17.24a3,3,0,0,0-1.76.83,7.74,7.74,0,0,0-1.87,2.55c-.59.5-.89,1.27-1.91,1.36-.47-.26-.33-.83-.83-1.09-.42-.6-.89-1.19-1.26-1.81-.88-1.52-2.38-1.94-4.23-1.18a10.35,10.35,0,0,0-2.91,2.27,4.05,4.05,0,0,0-1.77,1.95,2.28,2.28,0,0,0-.77,1.83c0,1.52,0,1.57,1.74,2.13,1.24.4,1.19-.64,1.7-1a1.72,1.72,0,0,0,.34-.53l1.15-.61a5.55,5.55,0,0,1,2.15.64c1.11,1.08,2.43,2.07,2.51,3.63-.58.56-.16,1,.19,1.53a5.59,5.59,0,0,0,3.52,2.14c-.07.21-.13.41.07.59a6.27,6.27,0,0,1,1.25,2.36,1.14,1.14,0,0,1,0,.32,2.46,2.46,0,0,1-1.69.91c-1.6-.13-3-.5-3.72-1.83a1.34,1.34,0,0,0-1.7-.45,5.91,5.91,0,0,0-1.71.72,4,4,0,0,1-2,.12l-.5-1c-.21-1.27-1-2.42-.82-3.79a3.35,3.35,0,0,0-1-2.62c-.83-.82-1.54-.7-2,.26a5.08,5.08,0,0,0-.09,4.94,2.09,2.09,0,0,1-.21,1.46l-1.22-.08c-.54,0-.4.32-.21.56a4,4,0,0,1,.31.52l0,0a5.65,5.65,0,0,1-3.36.23c-.84-.22-1.79-.37-2-1.25l-.06,0a2,2,0,0,0-.8-1.17,2.72,2.72,0,0,0,1.06-.71c1.26-1.51,1.63-2.71-.84-3.38a2.9,2.9,0,0,1-1.94-1.31l1.22-1.07.45-.29a12.65,12.65,0,0,0,3.8-1,.82.82,0,0,0,.21-.11,1.78,1.78,0,0,0,1.14-2.21c-.14-.62-.36-1.23-.55-1.84l-.06-.21c-.24-.86.52-1.35,1.08-1.92.94-1,2.05-1.86,2.16-3.19.61.09.38-.25.36-.47l.46-.15c2.62-.72,3.43-1.93,2.37-3.52a1.61,1.61,0,0,0-1-.62c-.49-.46-1.44-.6-1.41-1.4.21-.34.46-.74.93-.74,1.68,0,1.16-.84,1-1.57-.08-.29-.17-.58-.25-.87-.34-1.21-.31-1.14-1.68-.7s-2.87,1-4.5.59c0-.28,0-.57,0-.85a.29.29,0,0,0,0-.18l1.42-2,.55-.89c.71-.84,1.53-1.65,1.54-2.75a11.2,11.2,0,0,0-1.56-5.08,2,2,0,0,0-1.53-1.19l-1.27-.82A6.78,6.78,0,0,1,229.85,94c-.67-1.59-2.27-2.23-3.95-2.84-2.29-.84-4.72-.42-7.1-.51a2.52,2.52,0,0,0-1.19.21c-2.71,1-4.58,4.16-3.81,6.34.42,1.09-.27,1.91-1,2.71l-.91-.26-.83-.26-1.42-.62c-1-.73-2.1-.24-3.16-.23s-2.13.23-2.66-.61c-1.3-2.08-3.47-2.65-6.11-2.54a.51.51,0,0,0-.3,0,2.76,2.76,0,0,0-1.93.42c-1,.26-2,.48-2.9.8-1.47.49-2.73,1.91-2.67,2.88.1,1.42.92,2.2,2.77,2.63a2,2,0,0,0,1.31.2c1,.06,1.93,0,2.9-.06.09.36.12.73.58.95a20.18,20.18,0,0,0,1.63,2.7l-1.2.25c-.24,0-.49.06-.73.11a12.36,12.36,0,0,0-3.21,1.47,9.51,9.51,0,0,0-3.44-3.65c-.33-.18-.68-.37-1-.21s-.13.53-.06.82a4.38,4.38,0,0,0,1.56,2,9.86,9.86,0,0,1,2.77,3.16.37.37,0,0,0,.42-.21.87.87,0,0,0,.28.81A4.1,4.1,0,0,0,199.5,112a7,7,0,0,0,2.16-1.21c.21.47.43.94.65,1.4.26,1,.64,2,.93,3a1.85,1.85,0,0,1-1.07.73c-.1.14-.37.13-.45.29l-1.91.37,0,0c-3,.22-5.3,1.32-6.51,3.66,0,0-.06,0-.1.07s-.38.22-.43.42a2.35,2.35,0,0,1-1.9.57,3.83,3.83,0,0,0-3.14,1.45c-.5.55-.22,1.11,0,1.66a2.12,2.12,0,0,1-.1,1.38,12,12,0,0,1-1.47,2.07,3.59,3.59,0,0,0,1.22,4.88c.67.4,1.41.81,1.61,1.56.13.52.26,1.05.4,1.57,0,.13.15.33.09.38-1,.79-.5,1.68-.3,2.55a1.31,1.31,0,0,1-.27,1.05,4.74,4.74,0,0,1-1.93,1.64c0-.2-.15-.25-.39-.27-1-.12-2-.2-2.37.85a.79.79,0,0,1-.25.3,5.86,5.86,0,0,0-2.65,1.68c-.44.52-1,1-1.46,1.49l-.33-.17a1.19,1.19,0,0,1-.46-.28.45.45,0,0,0,.1-.22.7.7,0,0,0-.69-.93,2.45,2.45,0,0,1,0-.27c-.2-.85.18-1.8-.67-2.53a.39.39,0,0,0-.51.05c-1.28.38-1.21,1.25-1.15,2.11h0c.08.73.15,1.46.23,2.19a10,10,0,0,0-3.48-1.19c-.31,0-.75,0-.85.27s.28.48.54.61a11.81,11.81,0,0,1,2,1.19c.18.19.36.38.56.57-.3-.1-.58-.28-.91-.09a.66.66,0,0,0-.21.92.81.81,0,0,0,0,1,7,7,0,0,0,.48.63,5.9,5.9,0,0,0-3.69,2.69,3.84,3.84,0,0,1-2.89,1.82,3.06,3.06,0,0,1-1.56.27,4.83,4.83,0,0,1-2.84-.37c-1.54-.51-3.08-.87-4.65-.09a5.55,5.55,0,0,1-3.79.18,7,7,0,0,0-8,1.35c-.43.4-.81.84-1.21,1.26a1.92,1.92,0,0,0-.74,1c-.09.29-.19.57-.28.85-.3.28,0,.6-.07.86-.46,1-.05,1.84,1.18,2.22,1.54.46,3.17.07,4.72.38a16.19,16.19,0,0,1,5,2.61c.44.72.17,1.51.4,2.26.37,1.19-.49,2.21-1.94,2.58a11.09,11.09,0,0,1-2.44.05c-1.87-.24-3.67.29-5.51.36a1.58,1.58,0,0,0-1.19,0c-1.92.4-3.81.89-5.74,1.22a6.32,6.32,0,0,0-3.49,1.57,1.89,1.89,0,0,1-1.41.52c-2.15,0-2.69.46-2.9,2.27-.55,1.33-2.09,1.37-3.41,1.68l-.72.1a1.37,1.37,0,0,0-1.47.27,9.69,9.69,0,0,0-1.8.78,11.58,11.58,0,0,0-1.84.55c-2.46,1.22-3.41,2.29-2,3.92.4.48.89.91,1.34,1.36.94,1.76-.44,3-1.58,4.19l-1,.59c-1.26.83-1.85,1.8-1.28,3.17a32.87,32.87,0,0,1,1,3.51c0,2.15-1.72,3.59-3.18,5.14-1,1-1.58,2.31-3.32,2.7a14.9,14.9,0,0,1-3.77.25c-1.95-.35-3.17.23-3.76,1.76a6,6,0,0,1-1.42,2.53,8.56,8.56,0,0,0-1.83,1.17,5.11,5.11,0,0,1-3.38,1.65c-.66.07-1.3.22-1.94.35-1.76.37-3.55,2-3.67,3.46,0,.47,0,1.13.73,1.06,1.69-.16,3.52-.11,4.85-1.2a30.51,30.51,0,0,1,8.41-5.09c.53-.44,1.36-.18,1.92-.54a3.87,3.87,0,0,0,1.27,0,5.11,5.11,0,0,1,2,.87c.69.41,1.48.76,1.29,1.62a1.49,1.49,0,0,1-1.25,1.74,7,7,0,0,0-3,2.19l-1.54.9a11.79,11.79,0,0,0-3.65,1.49A14.41,14.41,0,0,0,99,220.17a1.27,1.27,0,0,1-.73.51c0,.18,0,.25.26.14,1.87-.48,3.49-1.47,5.48-1.71,0,0,.08-.1.12-.16.48.11.31.51.52.74-.27,1.54-1.21,2.92-1.6,4.43l-.57.72c-.87.77-2.18.72-3.24,1.12-2.73,1-5,2.69-7.7,3.7-.17.07-.27.24-.4.36a6.15,6.15,0,0,0-2.59,7.06c.57,1.68,3,3,5.78,3.27a7.83,7.83,0,0,0,3.86-1,39.09,39.09,0,0,1,7.38-3.5,16.13,16.13,0,0,0,6.07-2.81c.41-.3.73-.72,1.4-.65h.26c-.06.74-.94.94-1.43,1.4s-1,.71-.83,1.54c1.26-1,2.21-2.14,4-2.24.82,0,1.9-.49,2.26.64.06.2.11.4.17.61l.18.77a3.79,3.79,0,0,0,.28,2.66.35.35,0,0,0,.06.17c0,.19,0,.38-.17.51-.26,1.2-.53,2.39-.79,3.58-.71.63,0,1.25,0,1.87-.77,1.76-1.37,3.62-3.81,4.45-.14.2-.33.46-.06.62a1.06,1.06,0,0,0,.92-.14,3.08,3.08,0,0,0,1.14-.46c.26-.12.55-.22.65-.49a7.64,7.64,0,0,0,1.22-1.69,1.52,1.52,0,0,1,1.87-1,3.64,3.64,0,0,1,1.23-.41c1-.29,2.12-.19,3.14-.41a14.62,14.62,0,0,1,1.68.84c.26.17.32.19.53,0,1.37-1.45,3.6-2,5.28-3.13a5.85,5.85,0,0,1,3.77-1.2h0l1-.14c.63.3.83-.17,1.16-.42s.53-.32.56-.08c.09.82.76.6,1.35.56a7.32,7.32,0,0,1,2.68.28c1.15,1,1,2.34,1.5,3.49.25.6-.48,1.1-.28,1.7,0,.15-.08.29-.13.44a6.59,6.59,0,0,1-2.3,2.92c-.72.62-1.46,1.25-.86,2.2.1,1,.88,2,.31,3a5.41,5.41,0,0,0-.55,3.6,16.36,16.36,0,0,1-2,3.06,3.1,3.1,0,0,1-1.07.65c-1.86.48-3.82.33-5.72.59-.43-.12-.84.2-1.28.06a20.23,20.23,0,0,0-2,.58c-.76.31-1.43.78-1.45,1.51a1.78,1.78,0,0,0,1.3,1.78,8.39,8.39,0,0,0,3.41.61,2.63,2.63,0,0,1,2,.28q2.67,1.71,4-.86c.81-1.53,1.82-1.85,3.7-1.18a14.12,14.12,0,0,0,6.27,1.32c1.77.75,3.89.73,5.59,1.65.65.21.47.63.36,1a2,2,0,0,0,.19,1.67,3,3,0,0,0,1.63-2.22,1.34,1.34,0,0,0,.52-.74,3.06,3.06,0,0,1,2.76-.2,12.32,12.32,0,0,0,5.52.53c1.86-.93,4.11-1.34,5.64-2.75-.07.26-.16.48-.23.71a6.4,6.4,0,0,1-4.38,4.31.94.94,0,0,0-.71.73l-.76.84c-.2.2-.39.41-.61.6-1.07.91-1.62,2.26-3.36,2.59a1,1,0,0,0-.7-.08c-2.45.33-4,1.35-4.25,3.46a1,1,0,0,0-.39.93l1.38-.26c.24,0,.3-.08.15-.25s-.25-.24-.37-.36,0-.12,0-.19l.72-.2,1-.1c1.33.7.55,1.46.1,2.22-2.32,2.86-5,5.54-7.11,8.52a2.89,2.89,0,0,0-.76,1.44l-.54,1.12a1.44,1.44,0,0,0-.49.76l-.52.89a5.86,5.86,0,0,0-1.29,2.33c0,.18-.24.72.42.26.66-.08.53.27.48.58l.14.39c-.24,1.46-1.26,2.67-2,4a30.34,30.34,0,0,0-3.13,6.94,3.65,3.65,0,0,1-1.38,2.49c-2.18,1.36-5.14,1.76-6.94,3.61-.18.18-.59.21-.89.31a4.72,4.72,0,0,0-2,.79,8,8,0,0,1-4,1.34,2.73,2.73,0,0,0-2.15.68,4.93,4.93,0,0,1-2.74,1.24c-.43.06-.93.05-1.2.42a15.36,15.36,0,0,0-7.67,3.68,5.79,5.79,0,0,0-1.57,1.55,7.59,7.59,0,0,0-1.69,2.34,20.47,20.47,0,0,1-2.19,2.95,2.68,2.68,0,0,0-1,1.15c-.15,1.58.76,2.9,1.71,4.16.54.71,1.44.56,2.12-.1a7.26,7.26,0,0,0,1-1.61c1.1-1,1.68-1.17,2.78-.68.32.14.66.25,1,.38a5.19,5.19,0,0,0,2.92.51,4.51,4.51,0,0,0,3.88-.72c1.37-1.37,3.07-2.61,2.73-4.65.22-1.69-.66-2.94-2.35-3.88a4.55,4.55,0,0,0-.75-.48c-1-.41-1-.86-.3-1.54.51-.47,1.21-.75,1.7-1.23a10.16,10.16,0,0,1,4.18-1.36,26.3,26.3,0,0,0,5.42-.86,21.83,21.83,0,0,1,4.4-.79c1.1-.18,2.31,0,3.27-.64a22.81,22.81,0,0,1,7.1-2.51c1,0,2,0,3,0a48.3,48.3,0,0,0,7.8-.32,4.63,4.63,0,0,1,2.4.13c.41.19.26.83,1,.77a10,10,0,0,1,1.82-.93l.06-.08a.81.81,0,0,1,.68.29s0,.06,0,.08c0,.23.12.46,0,.68s-.49.48-.58.79a1.39,1.39,0,0,0-1.19.48c-.19.25-.44.48-.21.8,1.06.48,2,0,3-.17h1.26c.39.8,0,1.64.23,2.44.13.47-.16.79-.49,1.16a29.51,29.51,0,0,1-3.76,2.93,6.89,6.89,0,0,0-.38.62c-1.44,2.93-2.31,6.09-5.13,8.47,0,.05,0,.13-.08.19s-.12.16-.18.24a11.91,11.91,0,0,0-1,1.1c-.88,1.19-2.57,1.77-3.34,3.06a25.47,25.47,0,0,1-6,6.91,8.41,8.41,0,0,1-3.11,1.76,1.15,1.15,0,0,0-.87.45,20.33,20.33,0,0,0-3.05,2.95.67.67,0,0,0-.18.11L133.93,353a3.13,3.13,0,0,0-.93,3.89,7.68,7.68,0,0,0,7.43-.74c1.61-2,3.27-3.95,4.71-6l1.4-1.31a40.7,40.7,0,0,1,5.42-2.27,12.26,12.26,0,0,0,4.5-2.44c.4,0,.51-.32.68-.54a34.71,34.71,0,0,0,3.59-7.05,8.32,8.32,0,0,1,1.16-2.28c.93-.8,2.2-1.39,2.56-2.57.26-.65.51-1.31.77-2,.2-.17.42-.32.6-.5a2.42,2.42,0,0,1,2.13-.79c.89.14.61.91.83,1.41-.7,1.67-1,3.51-2.32,5s-1.4,3.19-2,4.82c-.1.32,0,.89.22,1a1.61,1.61,0,0,0,1.37-.23,1.74,1.74,0,0,0,.54-.42,6.6,6.6,0,0,0,1.65-3c.46-2,.8-4.11,2.39-5.85h0c-.08-.48.3-.87.4-1.31.61-1.45,2.06-1.95,3.76-2.16,1.24-.19,2.41.09,2.8.94a2.82,2.82,0,0,0-2.06,1.12c-.32.42-.71.84-.2,1.36a1.67,1.67,0,0,0,1.12.57l0,.06a4.65,4.65,0,0,0-.93,2.31c-.19,1.14-.72,1.46-2.11,1.38a7.89,7.89,0,0,0-1-.17c-.37,0-.84-.05-.95.29a.68.68,0,0,0,.5.91,4.82,4.82,0,0,0,.7.14c.82.09,1.33.41,1.36,1.12,0,.4.36.57.72.74a.86.86,0,0,0,.75-.6c.68-1.84,1.34-3.67,2-5.51a1.46,1.46,0,0,0-.05-.58,1.66,1.66,0,0,1,0-.32,3,3,0,0,0,1.91-1.93s0-.06,0-.1a2.52,2.52,0,0,1,.65.61,5.82,5.82,0,0,1,1.43,4.11.77.77,0,0,0-.34.68c-1.22,1.32-.94,2.86.8,4.41a20.42,20.42,0,0,1,2.16,1.46c.45.28.44.78.82,1.09a9.63,9.63,0,0,0,1.69-2.17,10.07,10.07,0,0,0,1.66-2.18h0c.91-1.41,3-1.81,4.05-3.12.2-.26.5,0,.76.05a3.89,3.89,0,0,0,3.25-.26c.79-.47,1.52-.62,2.07.25a1,1,0,0,0,.43.46q2.82,1.89,5.62,3.8a4.3,4.3,0,0,0,4,1.5c1.42-.11,1.53-.24,1.22-1.35-.12-.42-.22-.84-.33-1.26-.08-.19-.15-.39-.23-.58a4.19,4.19,0,0,0-.36-2.2c.24-.46.46-1.08,1-1.18,1.48-.24,2.75-.89,4.17-1.22a2.4,2.4,0,0,1,1.34,1,1.07,1.07,0,0,0,1.06-.58c-.06-.47.16-1-.4-1.4a1.05,1.05,0,0,1-.11-.07l.25,0a4.09,4.09,0,0,0,.31-1.85,1.67,1.67,0,0,1-.08-.3,4.58,4.58,0,0,1,2.21-2.7,2.35,2.35,0,0,0,1.63-2.31,1.49,1.49,0,0,0,.76.72,4,4,0,0,0,2.51,1.16,3.76,3.76,0,0,0,1.64-.42,7.26,7.26,0,0,0,2.16-2.68,3,3,0,0,0,.61.56,2.32,2.32,0,0,0-.16.28,2.8,2.8,0,0,0,.21,1.07,4.56,4.56,0,0,1-.13,4.07.44.44,0,0,1,.05.3c-.48.23-.62.7-1,1a1.18,1.18,0,0,1-1,.18,1.22,1.22,0,0,0-.57,0l-.33-.28c-.3-.1-.1-.57-.53-.53s-.11.33-.23.48c.54.61-.21,1.23,0,1.84,0,0-.08,0-.13.06a4.86,4.86,0,0,0-.2,1.2.85.85,0,0,1,.06.17,19.21,19.21,0,0,0-2.32,4.16l0,0s-.06,0-.1,0a2.12,2.12,0,0,0-1.18,1.49l-.45,0h0a.92.92,0,0,0,0-.29,2.12,2.12,0,0,0-.35-1.06,1,1,0,0,1,0-.17,1.91,1.91,0,0,0,0-1.29s-.05,0-.07-.07a.79.79,0,0,0,.48-.74c.14-1.21.39-2.39.52-3.59,0-.48.25-1.19-.51-1.28s-.92.61-1,1.09c-.36,1.58-1,3.09-1.51,4.65,0,.24-.11.33-.44.29-.54-.06-.64.25-.67.6s.19.64.28,1a3.37,3.37,0,0,1,.11,1.58,25.49,25.49,0,0,1-1.45,5.2,1.17,1.17,0,0,0,.21,1.47,3.46,3.46,0,0,0,1.93-2.41c.21-.81.51-.15.78-.12.06.47.13.94.2,1.42a23.46,23.46,0,0,0-.46,4c-.25,1,.37,1.86.57,2.79.16.58.32,1.16.47,1.73a5.83,5.83,0,0,1,2.46-.19.86.86,0,0,0,.1.16,8.37,8.37,0,0,1,.31,2.77c0,.75.62,1.15,1.41,1.07s.58-.72.51-1.14a8.79,8.79,0,0,0-1.33-2.87,3.31,3.31,0,0,1-.09-1.4,2.29,2.29,0,0,0,.39-1.32c.61-1,1.06-1.87.24-3a1.91,1.91,0,0,1-.15-2.12c.34-.58.37-1.21.64-1.78.52-1.15.95-2.42,2.66-2.87a11.66,11.66,0,0,1,2.28.82c.14.07.22.22.42.2.42-.22,1-.3,1.2-.72-.62-.45-.29-1.25-.95-1.69l-.39-1.18a3.55,3.55,0,0,0-.55-2.41,2.65,2.65,0,0,1-.34-.92c.22.46.77.82,1.85,1a3.58,3.58,0,0,0,3.08-1.38,3.67,3.67,0,0,1,3.14-1.67c1.31-.2,1.35-.25.88-1.26-.06-.12-.11-.24-.16-.36-.37-.48-.89-.92-.78-1.55-.06-.46-.12-.93-.17-1.39a2.65,2.65,0,0,0-2.43-3.21,46.22,46.22,0,0,0,3.65-5.06,37.46,37.46,0,0,0,2.24-3.44c.15-.06.26-.23.32-.54l0-.08.41.51c.47.94.21,2,.48,2.92h-.17c-.86.35-1.71.73-2.55,1.13a3.48,3.48,0,0,0-1.76,2.47c.3.5.1,1.31.79,1.51,1.51.44,2.81,1.25,4.38,1.56h0c.65.22,1.28.47,1.42,1.12l.05.08,0,.08c.27.09.16.48.47.53,0,0,0,.06,0,.1.24.25.21.6.45.85s.11.76.61.93a8.35,8.35,0,0,0,3.39,1.54c.4.23.79,0,1.17-.05,1.22-.25,2.45-.52,3.67-.79a3.61,3.61,0,0,1,1.68.87c0,.06,0,.14,0,.21.12.64-.42.94-1,1.26-.76.44-1.6.85-1.92,1.61-.67,1.53.2,2.56,2.54,3.07l1.67-.39c1.15-.7,2.4-1.33,2.22-2.73.19-.6-.2-1.12-.38-1.66a.79.79,0,0,1,.37-1,6.29,6.29,0,0,0,2.19-3c.46-1.23.73-2.6,2.63-3,.08,0,.11-.16.17-.25a2.84,2.84,0,0,0,1.71-.89,7.49,7.49,0,0,0,1.73-2.61c.56-.52.82-1.3,1.84-1.43.48.25.37.83.88,1.06.46.59,1,1.16,1.35,1.77,1,1.48,2.5,1.85,4.3,1a9.76,9.76,0,0,0,2.78-2.37,4,4,0,0,0,1.68-2,2.27,2.27,0,0,0,.66-1.86c-.08-1.53-.06-1.57-1.85-2.08-1.26-.35-1.16.69-1.65,1.11a1.81,1.81,0,0,0-.31.54l-1.11.65a5.76,5.76,0,0,1-2.19-.56,12.4,12.4,0,0,1-2.16-2.19,4.88,4.88,0,0,0,.16-4.49,2.22,2.22,0,0,1,1.5-2.43,5.78,5.78,0,0,1,3.36-.12c.82.25,1.77.44,2,1.32l.06,0c.19,1.23,1.53,1.69,2.46,2.42.19.25.32.53.83.41a.8.8,0,0,0,.59-.58c.34-.77-.47-.86-1-1.11-.12-.33-.23-.65-.34-1a8.51,8.51,0,0,1,1.33-1.7h0c.18,0,.27-.07.29-.16a.92.92,0,0,1,.8,0,4.08,4.08,0,0,1,1.4,1.09,5.51,5.51,0,0,0,2.13,1.44c-.66,1.16-.52,2.06,1.49,2.55a2.93,2.93,0,0,0,0,1.41,6.76,6.76,0,0,1,.39,1.26c-1.26.36-2.64.44-3.71,1.17a.67.67,0,0,0-.2.12,1.75,1.75,0,0,0-1,2.24c.18.62.43,1.22.65,1.82l.07.21c.29.85-.45,1.36-1,2-.89,1-1.95,1.92-2,3.27-.61-.08-.36.25-.33.47l-.45.17c-2.57.81-3.32,2-2.18,3.6a1.64,1.64,0,0,0,1,.58c.51.44,1.48.55,1.48,1.35-.18.35-.42.76-.89.78-1.67.06-1.11.87-.89,1.59l.3.87c.4,1.19.36,1.13,1.71.64s2.82-1.14,4.47-.75l0,.85a.37.37,0,0,0,0,.18c-.44.66-.87,1.33-1.31,2l-.51.91c-.66.87-1.43,1.7-1.39,2.8a11.5,11.5,0,0,0,1.83,5,2.1,2.1,0,0,0,1.59,1.14l1.31.77a6.36,6.36,0,0,1,1.35,1.41c.76,1.55,2.39,2.14,4.1,2.69,2.33.76,4.74.26,7.12.27A2.64,2.64,0,0,0,300,354a6.42,6.42,0,0,0,3.27-3.34l.21.15c.3.15.47.46.7.69.39.38.63,1.2,1.38.86s0-1-.13-1.5a7.57,7.57,0,0,0-1.77-2.55,3,3,0,0,0-.19-.78c-.48-1.07.16-1.91.88-2.73l.89.22c.11.13.24.25.34.39.28.41.58.8.83,1.21s.61.11.86.11.1-.32,0-.47a2.82,2.82,0,0,1-.14-.59l.38.15c1,.7,2.12.17,3.18.12s2.11-.3,2.68.52c1.42,2,3.61,2.53,6.25,2.33a.61.61,0,0,0,.3,0,2.82,2.82,0,0,0,1.91-.48c1-.3,1.93-.55,2.85-.9,1.44-.54,2.63-2,2.51-3-.17-1.42-1-2.16-2.91-2.53a2,2,0,0,0-1.31-.15c-1.74,0-3.48.48-5.21,0l-1,0c-.43-.06-.86.35-1.28,0a.28.28,0,0,0,.08-.43.82.82,0,0,0,0-.83c-.21-.33.51-.37.33-.72-.47-.9.41-1.05,1.13-1.26s1.26-.31,1.9-.46c.24,0,.48-.08.72-.14a13.15,13.15,0,0,0,3.26-1.65c.21-.11-.29-1.09-.47-1.68a1,1,0,0,0-.33-1,4.15,4.15,0,0,0-5.13-1.33,6,6,0,0,0-3.35,3,2.88,2.88,0,0,1-2,1.1l-1.56-.11-.93-.41c-.06-.13-.11-.26-.17-.38a3.3,3.3,0,0,1,.82-1.1,8.59,8.59,0,0,0,2.61-4.24c.61-.54.72-1.4,1.73-1.67.08-.15.36-.15.43-.31l1.89-.43,0,0c3-.33,5.23-1.51,6.31-3.89,0,0,.06,0,.1-.07s.37-.23.41-.44a2.35,2.35,0,0,1,1.87-.63,3.75,3.75,0,0,0,3.06-1.56c.47-.57.16-1.11-.09-1.66a2.25,2.25,0,0,1,0-1.38,12.29,12.29,0,0,1,1.36-2.12,3.62,3.62,0,0,0-1.48-4.83c-.69-.38-1.45-.77-1.69-1.51l-.48-1.55c0-.13-.17-.33-.11-.38.91-.82.41-1.69.16-2.55a1.3,1.3,0,0,1,.22-1.06,4.88,4.88,0,0,1,3.38-2.28,8.48,8.48,0,0,0,.9-.24c-.32.18-.65.36-1,.56s-.5.72-.12,1a10.86,10.86,0,0,0,4.12,1.74c.31.05.75,0,.87-.24s-.25-.48-.5-.63a11.52,11.52,0,0,1-1.92-1.25c-.17-.2-.35-.4-.53-.59.29.11.56.3.91.12a.69.69,0,0,0,.26-.91.84.84,0,0,0,.07-.84,5.38,5.38,0,0,0,.87-.85c.42-.54.92-1,1.38-1.54l.34.16c.43.11.64.42.95.63a1.42,1.42,0,0,1,.17,1c.24.85-.08,1.81.81,2.52a.41.41,0,0,0,.5-.07c1.27-.43,1.15-1.29,1-2.16h0l-.45-2.81-.12-1c0-1.1.92-1.7,1.86-2.29a5.72,5.72,0,0,0,3.55-2.82c.07-.12.16-.22.24-.34s.06.05.09.05c.69.15,1.64.23,1.85-.3.13-.36-.33-.6-.8-.8a4.2,4.2,0,0,1,1.42-.53,3,3,0,0,1,1.54-.32,4.86,4.86,0,0,1,2.85.26c1.58.46,3.13.77,4.66-.07a5.52,5.52,0,0,1,3.78-.3c3.12,1.13,5.8.58,7.95-1.63.4-.42.76-.87,1.13-1.31a1.85,1.85,0,0,0,.69-1l.24-.86c.29-.29-.07-.6,0-.86.41-1.07-.05-1.85-1.29-2.18-1.56-.41-3.18,0-4.74-.22A16.39,16.39,0,0,1,358,278.4c-.49-.71-.25-1.51-.53-2.25-.43-1.18.38-2.23,1.81-2.65a11.7,11.7,0,0,1,2.43-.13c1.88.17,3.65-.41,5.48-.56a1.62,1.62,0,0,0,1.19-.07c1.9-.47,3.76-1,5.67-1.42a6.16,6.16,0,0,0,3.41-1.7,1.88,1.88,0,0,1,1.37-.57c2.15-.08,2.67-.54,2.79-2.36.47-1.35,2-1.45,3.31-1.8l.72-.13a1.31,1.31,0,0,0,1.44-.32,9.56,9.56,0,0,0,1.77-.83,12.29,12.29,0,0,0,1.8-.62c2.4-1.31,3.28-2.4,1.82-4-.44-.46-.94-.87-1.42-1.31-1-1.73.28-3,1.36-4.24.32-.21.65-.41,1-.63,1.22-.87,1.76-1.85,1.12-3.2a32.64,32.64,0,0,1-1.23-3.48c-.14-2.15,1.53-3.64,2.91-5.24,1-1,1.45-2.37,3.16-2.82a14.82,14.82,0,0,1,3.76-.37c2,.27,3.16-.35,3.66-1.89a5.86,5.86,0,0,1,1.28-2.58,8.79,8.79,0,0,0,1.77-1.23,5,5,0,0,1,3.29-1.77c.65-.1,1.29-.26,1.92-.42,1.74-.43,3.43-2.16,3.48-3.58,0-.47,0-1.14-.78-1-1.68.22-3.51.24-4.79,1.37a29.7,29.7,0,0,1-8.13,5.37c-.5.46-1.34.24-1.88.61a3.92,3.92,0,0,0-1.28,0,5.31,5.31,0,0,1-2.06-.8c-.71-.38-1.52-.71-1.37-1.58a1.44,1.44,0,0,1,1.15-1.77,6.76,6.76,0,0,0,2.93-2.3l1.49-.95a11.5,11.5,0,0,0,3.57-1.62,14.06,14.06,0,0,0,4.34-2.88,1.17,1.17,0,0,1,.71-.54c0-.18-.06-.25-.27-.13-1.84.55-3.41,1.6-5.39,1.9,0,0-.08.11-.11.16-.49-.09-.34-.49-.56-.72.18-1.55,1-3,1.37-4.48l.53-.74c.83-.8,2.13-.79,3.17-1.23,2.68-1.11,4.83-2.86,7.5-4,.16-.07.26-.24.38-.37a6.05,6.05,0,0,0,2.21-7.14C420.54,201.77,418.08,200.5,415.25,200.37Zm-27.39-90.19a3.2,3.2,0,0,0,.69.11h0c-.6.61-.61.85,0,1.22,0,0,0,.08-.06.11s0,0,0,0C387.14,111.16,387.05,111,387.86,110.18Zm-271,221.22a2.64,2.64,0,0,0-.68-.13h-.05c.64-.58.65-.82.07-1.22a.86.86,0,0,0,.07-.1h0C117.63,330.45,117.71,330.61,116.86,331.4Zm103.07,10.34-.1,0c-.57.34-.75.15-.79-.35a4.15,4.15,0,0,1,.56-2,3.15,3.15,0,0,0,.34,2.35S219.93,341.73,219.93,341.74Zm71.69-14.17a5.91,5.91,0,0,1-1.54.56l-.44-.26a1.78,1.78,0,0,0-.79-.48,3.68,3.68,0,0,0,.22-2,8.08,8.08,0,0,1-.42-3.18c.08-.05.16-.08.23-.13L289,322a17.08,17.08,0,0,1,1.75,2.59c.62.62.52,1.43.86,2.12a2,2,0,0,1,.06.73A.4.4,0,0,1,291.62,327.57Zm-4.76-17.93a1.18,1.18,0,0,1,.68-.81h0l.54.28A3.05,3.05,0,0,0,286.86,309.64Zm6.5,13.46s0,0,0-.06a3.36,3.36,0,0,0-.4-1.75,6.38,6.38,0,0,0,.87-.3,2.65,2.65,0,0,0,.92-.65,6.65,6.65,0,0,0,.65.34c1.17.53,1.45,1.37.75,2.14a1.87,1.87,0,0,1-2.69.19A.54.54,0,0,1,293.36,323.1Zm35-119.18a9.73,9.73,0,0,1-1.06,1.69c-.65.83-1,.86-1.85.2,1.52-.21,2-.74,1.68-1.79.68-.14,1-.81,1.78-.78h0A1.66,1.66,0,0,0,328.33,203.92Zm-4.89-.23a.46.46,0,0,0-.16.07,1,1,0,0,1,.14-.91,5.81,5.81,0,0,0,.82-1.34l0-.13.32-.3c.3.35.09.76.18,1.13a.33.33,0,0,0-.16.33C324.66,203.24,324.25,203.57,323.44,203.69Zm-15.6,98.93a5.19,5.19,0,0,1-2-1.34,2.81,2.81,0,0,0-2.5-.95,11.16,11.16,0,0,0-1.25-2.9,1.22,1.22,0,0,1,.63-1.67,2.58,2.58,0,0,1,2.43-.22c.9.41,1.77.84,2.65,1.27,1.21.58,1.37,1.6,1.65,2.57a12.28,12.28,0,0,0-1.42,3.35A1.23,1.23,0,0,0,307.84,302.62Zm26.05-99.19a1.66,1.66,0,0,0-1.08.08c-.66.16-1,0-1.2-.54s-.13-1.31-.64-1.21c-.88.18-.45-.11-.47-.41a4.61,4.61,0,0,0-.3-1c-.06-.05-.05-.08-.09-.13a1.14,1.14,0,0,0,.22.07,2.53,2.53,0,0,1,2.44-2c.62-.06,1.24.05,1.86,0s.84.15.7.7c-.26,1.07,0,1.26,1.46,1.2.82-.18.79-1,1.54-1.45a5.89,5.89,0,0,0-.5,1.6.59.59,0,0,0,.16.39h0c-.72.53-1.55,1-2.22,1.52a1.38,1.38,0,0,0-.45,0c-.78.17-1.36.48-1.21,1.17Zm6.38,8.63a.32.32,0,0,1,0,.09,1,1,0,0,0,.12.23s.05.09.09.14l0,0-.06,0c-.29-.32-1.06.17-1.18-.45a.36.36,0,0,1,.17-.13A2.57,2.57,0,0,1,340.27,212.06Zm-52.11-97.77a4.43,4.43,0,0,0,.47-.79,1,1,0,0,0,.25.25c.05,0,.07,0,.11.07l-.25,0a4,4,0,0,0-.21,1.87,1.32,1.32,0,0,1,.09.3,6,6,0,0,1-1.09,2,.13.13,0,0,1,0-.06A3.49,3.49,0,0,1,288.16,114.29Zm-3.82-10.84.09,0c.56-.36.75-.17.81.33a4,4,0,0,1-.45,2,3.2,3.2,0,0,0-.46-2.33S284.33,103.45,284.34,103.45Zm-3.53,9.94a4.45,4.45,0,0,0,.13-1.21l-.06-.17a18.1,18.1,0,0,0,2.09-4.23l0,0,.11,0a2,2,0,0,0,1.09-1.52l.46,0s0,0,0,0a1.46,1.46,0,0,0,0,.29,2.13,2.13,0,0,0,.41,1c0,.06,0,.11,0,.17a1.9,1.9,0,0,0,0,1.29s.05,0,.08.07a.77.77,0,0,0-.44.76c0,.66-.11,1.32-.18,2a4.1,4.1,0,0,0-.65.6,3.79,3.79,0,0,1-3.1,1.54.89.89,0,0,0,0-.58A.33.33,0,0,0,280.81,113.39Zm-3.61,3.19a.51.51,0,0,1-.06-.3c.47-.24.58-.72,1-1a1.18,1.18,0,0,1,1-.22,2,2,0,0,0,.42,0,2,2,0,0,0,.09.26c.05.12.09.24.14.37.34.49.84.94.7,1.57l.09,1.4c-.36,1.68.48,2.89,2.27,3.3l1.1-.11a4.5,4.5,0,0,0,1.15-.28c0,.12,0,.24.05.36,0,1.27-1.07,1.84-2.37,2.22a2.66,2.66,0,0,1-1.35.43,11.47,11.47,0,0,1-1.45-.4l.09-.24c-.27-.51,0-1.31-.71-1.54a17,17,0,0,1-1.82-.76,2.61,2.61,0,0,0-.24-.95A4.59,4.59,0,0,1,277.2,116.58ZM256,126.74h0a1.59,1.59,0,0,0,.14.4,3.57,3.57,0,0,0,2.31,1.58c-.1-.42-.17-.74-.25-1.07.1-.14.27-.28.06-.45a10.41,10.41,0,0,0-.86-.74c.58,0,.88.26,1.69,1a1.34,1.34,0,0,0,1.1.55h0a.53.53,0,0,0,.14.7h.16l0,0-.06.07a1.72,1.72,0,0,1-.24,0,21.39,21.39,0,0,0-3,1.85s0,0,0,.06c-.24-.16-.47-.31-.54-.58A8.9,8.9,0,0,1,256,126.74Zm-51.51-6.63c.19-.13.53-.2.49-.46l.2.06c.31,0,.62,0,.93-.07a10.55,10.55,0,0,1,1.35,1.66c.05.13.09.26.13.39.12.83.68,1.56.53,2.45a3.56,3.56,0,0,1-1.66,2.11l-1.07-.6c1.42-2.28,1.35-2.51-1.14-4a3.17,3.17,0,0,1-.4-.29.76.76,0,0,1-.12-.51C203.74,120.44,204.16,120.31,204.48,120.11Zm21.37,16c.12.29.24.58.35.87a7.92,7.92,0,0,1-1.24,1.74.91.91,0,0,1-1.1.21,4.41,4.41,0,0,1-1.46-1,4.78,4.78,0,0,0-3.15-1.52c-.5.15-.18.44-.12.65a1.24,1.24,0,0,1-.59,1.61v0c-2.07-.89-2.21-1.58-.57-2.88a6.75,6.75,0,0,0,1.77-1c1.79-.44,3.23.28,4.66,1A5.08,5.08,0,0,0,225.85,136.16ZM223.34,149c.36-.36.89-.25,1.24-.46a4.2,4.2,0,0,0-1.9-1.46c-.47-.2-.46-.89-1.22-.79.24-.27.18-.65.48-.91.47-.08.56-.47.87-.68.93-.63.5-1-.38-1.27a5.43,5.43,0,0,0-3.14-.25,3,3,0,0,1-2.72-.55c-.12-.2-.27-.39-.37-.59a8.19,8.19,0,0,0,1.8-1.56,4.57,4.57,0,0,1,1.65-.53c.59.24,1.11-.06,1.64-.17,2.1-.44,2.41-.32,3.19,1.4a3.25,3.25,0,0,0,.21.67c.72,1.18.29,2.09-1,2.81a1.75,1.75,0,0,0-.32.29c-.53.1-.88.39-.92.82s.52.54.89.71a4.54,4.54,0,0,0,2,.37l2.66.55-.29.27c-.58.38-.92,1-1.76,1.13S224.29,149.33,223.34,149Zm-40.86,89.2c.69-.81,1.05-.83,1.86-.13-1.53.15-2.07.66-1.78,1.72-.68.11-1,.77-1.82.72h0a1.84,1.84,0,0,0,.59-.66A9.59,9.59,0,0,1,182.48,238.18ZM211.76,149a2.6,2.6,0,0,1-2.44.14l-1.15-.61c.6-.16,1-.83,1.23-2a.33.33,0,0,0,0-.1c.36-.94,1.32-1,2.23-1.12a9.75,9.75,0,0,0,.86,2.07A1.24,1.24,0,0,1,211.76,149Zm-26.9,92.7a.32.32,0,0,0,.17-.32c-.07-.7.36-1,1.17-1.11a.44.44,0,0,0,.17-.07,1,1,0,0,1-.19.91,6.13,6.13,0,0,0-.89,1.3.68.68,0,0,0,0,.14l-.34.29C184.69,242.44,184.93,242,184.86,241.66Zm30-113.5-.53.21a2.12,2.12,0,0,1,.22-.51l-1.36.72,0,0a18.61,18.61,0,0,1-3.1-1.42c-1.2-.49-1.52-1.32-.87-2.11a1.87,1.87,0,0,1,2.68-.28,1,1,0,0,1,.11-.1s0,0,0,.06a4.36,4.36,0,0,0,.9,2.41,1.28,1.28,0,0,0,1.47.49c.84-.27.95,0,1,.44A2.51,2.51,0,0,0,214.85,128.16Zm1.75-11.54c2.74-2.2,3.23-2.18,5.55.35l.34.36c.45.34.47,1,1.43,1,.65-.06.44-.49.67-.72a10.74,10.74,0,0,1,3.1-.75c-.08.2-.18.39,0,.6a.5.5,0,0,0-.17.1,4.2,4.2,0,0,0-.45,2.36,8,8,0,0,1,.24,3.19l-.24.12a13.41,13.41,0,0,0-1.8.83.56.56,0,0,1-.25-.21,4.57,4.57,0,0,0-3,.26c-1.4.53-2.19,2.19-1.59,3.13.41.32.51.84,1.07,1,.46.5,1.56.82.82,1.63h-.15a5.46,5.46,0,0,0-2.19,2.85v.13c-.41.39-.8.87-1.37.83h0a2.81,2.81,0,0,0-.13-1,7.65,7.65,0,0,1-.59-1.87,2.85,2.85,0,0,0,.21-1.91,3.27,3.27,0,0,0-.68-.62,8.74,8.74,0,0,0-.24-1c-.29-1.66-2-2.72-2.71-4.2-.65-.59-.6-1.4-1-2.08-.17-.57-.22-1.14.42-1.53s1.06,0,1.52.26a1.87,1.87,0,0,0,1,.51c.41.08.93,0,.76-.47-.23-.65-.22-1.38-.85-1.92a5.26,5.26,0,0,1-.62-.51C216,117.11,216.3,116.86,216.6,116.62Zm-10-8.35h0a1,1,0,0,0,.5.77c.09.17.17.34.25.52a4.73,4.73,0,0,1-.58.61l-.09.08a7.76,7.76,0,0,0-2.22-1.48l-.33-.41a4.19,4.19,0,0,1,.91-.26Zm-8.4-5.9a5.09,5.09,0,0,1,.93.18h1c.43.07.87-.32,1.28,0a.3.3,0,0,0-.1.43.82.82,0,0,0,0,.83c.2.34-.53.35-.37.71a.75.75,0,0,1,.08.46,15.44,15.44,0,0,1-2.51-2.24Zm-22.57,45a2.85,2.85,0,0,0,.3.16c.18-.11.35-.23.53-.33a1.81,1.81,0,0,1-.27.81,1.24,1.24,0,0,1-.26-.48h-.17a.52.52,0,0,0-.3.32C175.48,147.65,175.67,147.49,175.66,147.34Zm-33.75,91.07-.31.13c-.88-.33-1.41,0-1.55.91l-.16.07a.53.53,0,0,0,.05-.18c-.34-.13-.74,0-1.08-.13,0-.14.14-.24.21-.36a2.21,2.21,0,0,0-.18-2.42c-.28-.44-1,0-1.62.09l2.46-1.8a.81.81,0,0,1,1.07-.06c.55.35,1.17.62,1.72,1,1.36.85,1.47,1.26.73,2.55h0C142.76,238,142.36,238.32,141.91,238.41Zm10.47,20.26c-2.5.87-5.21.87-7.83,1.3-1,.17-2.05.25-3,.5l-.55.07a.67.67,0,0,0-.46.27l-.09,0a3.11,3.11,0,0,0-1,.31,1.6,1.6,0,0,0-.38-.23c1.59-.61,1.57-2,2.17-3.06l.18.08a8.14,8.14,0,0,1,3.92-2c.53-.1,1-.47.9-1.06a13.62,13.62,0,0,0,2-2.06s0,0,0-.05c.74,0,.77.48.9.9a2.45,2.45,0,0,0,2.29,1.91l.13,0c.24.13.48.25.71.4A1.61,1.61,0,0,1,152.38,258.67Zm.5-9.28a5.2,5.2,0,0,0-.62.5.78.78,0,0,1-1,.24.08.08,0,0,0,0,0c.27-1.21,1.22-2.19,1.64-3.35,1.09-.19,1.44-1,2.07-1.45C156.18,247.2,154.26,248.21,152.88,249.39Zm4.74-11.33c-.45.78-1,1.52-1.52,2.28a4,4,0,0,0-.92,2.23c-.92.32-.35,1.23-1,1.73a1.19,1.19,0,0,0-1.08-.77H153c.09-.92.91-1.69.92-2.6a6.7,6.7,0,0,1,1.94-4.41c0-.07,0-.13,0-.18h0a11.61,11.61,0,0,1,1.4-.29l.19,0a.9.9,0,0,1,.44.23C158.53,236.91,157.94,237.51,157.62,238.06Zm13.44,6.65a6.51,6.51,0,0,0,.59-1.58.64.64,0,0,0-.14-.39l0,0c1.09-.73,2.45-1.22,3.14-2.31,0,0,0,0,0-.08h0l1.14-.22a1.66,1.66,0,0,0,1.08,0c.67-.13,1,0,1.17.59s.06,1.31.57,1.23c.89-.15.46.12.45.42a5,5,0,0,0,.25,1.06c0,.05,0,.08.08.13a.72.72,0,0,0-.22-.08,2.47,2.47,0,0,1-1.66,1.79c-.23-.6-.81-.8-1.59-.71a1.71,1.71,0,0,0-1,.79h-.11c-.68,0-.83-.18-.66-.74.32-1.05,0-1.25-1.39-1.24C171.84,243.47,171.83,244.27,171.06,244.71Zm74,78.08a3.3,3.3,0,0,1-2.06,1.38.87.87,0,0,0-.4-.32c-.41-.21-.71-.47-.58-.89s.62-.56,1.12-.65a2.57,2.57,0,0,1,1.93.48Zm11.62-3.92.59.07c.63.35,1,.26,1.16-.39a1.68,1.68,0,0,0-.34-1.61,3.8,3.8,0,0,1-.48-.75c.27-.2.55-.39.81-.6,0,0,0,0,0-.06a1.11,1.11,0,0,1,.57.56,9,9,0,0,1,.8,3.42C258,320,258,320,256.65,318.87Zm8.75-8c-1.85-.31-2-.49-1.8-1.93a3.62,3.62,0,0,1,1.56-1.9c.08.38.06.8.53,1.06h0l.81,1.91a6.8,6.8,0,0,0,.25,1.19A10.81,10.81,0,0,0,265.4,310.83Zm16.34-4.68a3.16,3.16,0,0,0-.18-.67,1.75,1.75,0,0,1-.18-1.51l.63-.2c.69-.15,1.36-.33,2.05-.43,1.1-.16,1.38-.63,1-1.43-.64-1.21-.13-2.22.8-3.17l1.08-1.1c.56-.41.87-1,1.7-1.2s1.64-.61,2.6-.29c-.34.37-.88.28-1.21.5a4.25,4.25,0,0,0,2,1.39c.48.18.5.88,1.26.75-.23.28-.15.66-.43.92-.46.1-.54.49-.84.72-.89.66-.44,1,.46,1.25a5.34,5.34,0,0,0,3.14.14,3.18,3.18,0,0,1,1.35-.11c-.6.85-1.8.74-2.75.86s-1.39.32-1.61.87a4,4,0,0,1-2.34,2.05,7.38,7.38,0,0,0-2,1.59,4.67,4.67,0,0,1-1.67.47c-.58-.26-1.12,0-1.65.11C282.73,308,282.43,307.9,281.74,306.15Zm29.84,18.18c-.19.14-.51.22-.46.49a1.66,1.66,0,0,0-.21-.06c-1.06.22-2.16.15-3.23.29a1.73,1.73,0,0,0-.37.21,10.64,10.64,0,0,0-5.07,1,9.5,9.5,0,0,0-2.58,2l-.41.34a9.84,9.84,0,0,1-1.56-2c0-.14-.07-.27-.11-.4a12.52,12.52,0,0,0-.38-1.58c.62-.28,1.33-1.08,1.1-1.43a.8.8,0,0,0-.66-.36,16.2,16.2,0,0,1,2.13-1.78l3.85-.71a6.22,6.22,0,0,1,2.23.62l1,.86c.53.47.79,1.12,1.5,1.45a1.16,1.16,0,0,0,1,.09c.38-.19.17-.49.09-.72-.2-.6-.81-.91-1.35-1.27-.24-.78-.47-1.56-.71-2.34l-.06-.21h0a2,2,0,0,1,.77-1.19l2.35,1.21c-1.29,2.32-1.21,2.55,1.36,4a4.32,4.32,0,0,1,.42.27.83.83,0,0,1,.14.5C312.3,324,311.89,324.12,311.58,324.33Zm19.26-22.65-.24-.14.08,0h0s0,0,0,0a1.33,1.33,0,0,0,.21-.09A.61.61,0,0,0,330.84,301.68Zm24.81-99.82a6.57,6.57,0,0,1-1.71,4.48.57.57,0,0,0,0,.18h0a11.16,11.16,0,0,1-1.38.35l-.19,0a.85.85,0,0,1-.46-.22c-.65-.58-.1-1.2.19-1.76.41-.8.92-1.56,1.39-2.33a3.88,3.88,0,0,0,.81-2.26c.9-.35.28-1.24.91-1.76a1.18,1.18,0,0,0,1.11.72h.1C356.39,200.16,355.61,201,355.65,201.86Zm2.18-9.24c-.2,1.22-1.09,2.24-1.45,3.41-1.08.22-1.39,1.09-2,1.52-1.32-1.87.54-2.94,1.85-4.18a5,5,0,0,0,.59-.51.78.78,0,0,1,1-.28Zm4.81-5a13.62,13.62,0,0,0-1.91,2.13s0,0,0,0c-.74,0-.8-.45-1-.87a2.51,2.51,0,0,0-2.39-1.82.5.5,0,0,1-.13,0c-.25-.12-.5-.23-.73-.37a1.62,1.62,0,0,1-.28-2.68c2.45-1,5.16-1,7.75-1.57,1-.2,2-.32,3-.6l.55-.09a.62.62,0,0,0,.44-.28l.09,0a3,3,0,0,0,1-.34,2.15,2.15,0,0,0,.4.21c-1.56.67-1.47,2-2,3.13l-.19-.06a8,8,0,0,1-3.81,2.09C363,186.64,362.48,187,362.64,187.61Zm7.52,20a.79.79,0,0,1-1.06.1c-.57-.33-1.2-.58-1.77-.91-1.41-.8-1.54-1.21-.87-2.52h0c.5.13.89-.17,1.32-.27l.31-.14c.89.3,1.41,0,1.5-1l.15-.08a1,1,0,0,0,0,.18c.35.12.74-.06,1.09.09,0,.15-.13.25-.19.37a2.22,2.22,0,0,0,.32,2.42c.29.43,1-.09,1.61-.15Z" transform="translate(-44.11 -17.29)"/><path class="cls-1" d="M381,190.57c-1.28,1.42-2.4,2.92-2.47,4.75a.44.44,0,0,0,.49-.12c2.39-1.65,3-4.26,5.11-6.09a3,3,0,0,0,1-1.57c0-.5.13-1.08-.85-1.06C383.17,187.87,382.13,189.25,381,190.57Z" transform="translate(-44.11 -17.29)"/><path class="cls-1" d="M367.81,76a5.42,5.42,0,0,0,1.89-.41c.38-.17.91-.12,1.15-.5A6.31,6.31,0,0,0,374.51,73c.53-.66,1.09-1.3,1.64-2l2.55-1.61a22.69,22.69,0,0,1,4.73-3.16,1.94,1.94,0,0,0,.67-.57c.44-.51.87-1.05-.07-1.53a1.53,1.53,0,0,0-2.15.45,7.1,7.1,0,0,1-2.42,2.49c-.64.35-1.47.43-2,.94a11.8,11.8,0,0,0-4.06,2.38,12.47,12.47,0,0,0-4.3,3.44C368.4,74.45,367.47,75,367.81,76Z" transform="translate(-44.11 -17.29)"/><path class="cls-1" d="M290.56,75.12c.22-.63.37-1.49-.39-1.67s-.84.73-1.05,1.25a1.29,1.29,0,0,0-.08.39c-.11,1.79-.1,1.78-2.25,2.32-1.78.45-2.55,1.53-2.14,3.1C287.43,79.25,289.71,77.69,290.56,75.12Z" transform="translate(-44.11 -17.29)"/><path class="cls-1" d="M216.19,76.66a12.28,12.28,0,0,1,.11,2.11c.13.44.23.68.54.84a4,4,0,0,1,2.09,2.4.81.81,0,0,0,1.16.57c.46-.26,1-.75.51-1.36a9.53,9.53,0,0,1-2.08-3.37c-.2-.66-1.09-1-1.65-1.45C216.57,76.14,216.13,76.35,216.19,76.66Z" transform="translate(-44.11 -17.29)"/><path class="cls-1" d="M330.84,98.43c-.32.42.11.77.83.75a2.81,2.81,0,0,0-1.73,1.67c-.25.75.45,1,1.05,1.41a1.07,1.07,0,0,0,1.32-.05,3,3,0,0,0,1.23-2.52c-.06-.58-.34-.93-1.09-.76a18.21,18.21,0,0,0,3.8-2.81c.27-.29.56-.64.22-1s-.8-.27-1.24-.19C332.82,95.31,332,97,330.84,98.43Z" transform="translate(-44.11 -17.29)"/><path class="cls-1" d="M309.53,397.86c-1.51.3-2,1-1.71,2.07s1.12,1.4,2.51,1.11,2.09-1.18,1.76-2.23C311.83,398,310.8,397.61,309.53,397.86Z" transform="translate(-44.11 -17.29)"/><path class="cls-1" d="M328.85,88.39c.76-.6,1.57-1.17,2.27-1.82s1.52-1.15,1.81-2c.16-.46.6-1-.17-1.34a1.57,1.57,0,0,0-1.86.37,17.64,17.64,0,0,0-3.42,4.45c-.05.44-.51.87,0,1.32A4.51,4.51,0,0,0,328.85,88.39Z" transform="translate(-44.11 -17.29)"/><path class="cls-1" d="M360.69,56.79c1.56.46,2.26.12,2.69-1.19.1-.28.21-.56.32-.85.47-.87,1.81-.53,2.46-1.16a8.44,8.44,0,0,1,2.51-.78c1-.27,1.55-1.35.82-1.89a2.55,2.55,0,0,1-.77-1.19c-.11-.24,0-.62-.42-.66a1,1,0,0,0-.83.51c-.67,1-1.31,1.92-2,2.89a.84.84,0,0,0-.11.21,5,5,0,0,1-1.63,0c-.67.25-.84.79-1.12,1.28h0c-.75.56-1.54,1.08-2.23,1.69C359.92,56,359.87,56.56,360.69,56.79Z" transform="translate(-44.11 -17.29)"/><path class="cls-1" d="M201.74,342.86c1.1-.25,2-1.34,1.79-2.13s-1.67-1.21-2.7-1-1.83,1.31-1.58,1.92A2.36,2.36,0,0,0,201.74,342.86Z" transform="translate(-44.11 -17.29)"/><path class="cls-1" d="M369.05,60.42a1.49,1.49,0,0,0-1.87.5c-.29.42-.8.79-.7,1.35A9,9,0,0,0,365,69.42c.21.88.57.65,1.07.26a3.45,3.45,0,0,0,.66-.72,12.68,12.68,0,0,0,2.86-6.73c.07-.15.14-.31.2-.46C370,61.14,369.91,60.69,369.05,60.42Z" transform="translate(-44.11 -17.29)"/><path class="cls-1" d="M429.16,105.55c.34-.25.58-.71.29-1s-.7.09-1.05.23c-1.06.42-1.75,1.22-2.75,1.68-.25.14-.53.24-.63.5a14.19,14.19,0,0,0-2.77,2c-.13.13-.3.26-.18.44s.38.11.56,0c.45-.14.9-.31,1.34-.49A23.76,23.76,0,0,0,429.16,105.55Z" transform="translate(-44.11 -17.29)"/><path class="cls-1" d="M443.15,200.38c-1,.48-2.07,1-3.07,1.45-.54.28-1,.75-1,1.21s.88.49,1.32.54c1.9.19,2.72.43,3-1.49a1.19,1.19,0,0,1,.57-.83C443.4,201.15,443.53,200.62,443.15,200.38Z" transform="translate(-44.11 -17.29)"/><path class="cls-1" d="M187.27,348c.21-.76-.51-1-1.13-1.37a1,1,0,0,0-1.31.1,2.88,2.88,0,0,0-1.1,2.55c.1.65.42,1,1.35.68A3.05,3.05,0,0,0,187.27,348Z" transform="translate(-44.11 -17.29)"/><path class="cls-1" d="M352.65,71.14a19.81,19.81,0,0,0,1.71-2.78c.69-1.61,1.93-3,2.29-4.74.19-.23.18-.46-.17-.51s-.72.06-.67.47A24.2,24.2,0,0,1,353,68.35a6.59,6.59,0,0,0-1.4,3.63A1.94,1.94,0,0,0,352.65,71.14Z" transform="translate(-44.11 -17.29)"/><path class="cls-1" d="M187.28,87.8c.38.18,1.09.37.92-.21a10.22,10.22,0,0,0-1.51-3.9,1.46,1.46,0,0,1-1.29.07c-.41.18-.59-.34-1.06-.21a9,9,0,0,0,.6,1.72A5.47,5.47,0,0,0,187.28,87.8Z" transform="translate(-44.11 -17.29)"/><path class="cls-1" d="M374.6,143.12c.25,1.65-.75,2.79-1.94,3.91.36.51.71.45,1.06,0,.53-.63,1.1-1.24,1.6-1.89.89-1.16,1.9-2.29,1.05-3.83C375.54,141.8,374.46,142.22,374.6,143.12Z" transform="translate(-44.11 -17.29)"/><path class="cls-1" d="M176,147.5h0Z" transform="translate(-44.11 -17.29)"/><path class="cls-1" d="M172.3,69.72a.35.35,0,0,0,.17.17c.42,2.74,2.64,4.68,4.58,6.74a7.87,7.87,0,0,0,1.68,1.68,27.83,27.83,0,0,0,2.86,2.52c.24,0,.3-.07.22-.24a14.29,14.29,0,0,0-2-4.81c-.26-.51.07-1.09-.29-1.6a12.32,12.32,0,0,0-1.69-2.26,17.08,17.08,0,0,1-2.62-2.84,5.15,5.15,0,0,0-4.08-4c-.65-.16-1.25-.25-1.65.25a1,1,0,0,0,.09,1.56C170.53,67.83,171.41,68.78,172.3,69.72Z" transform="translate(-44.11 -17.29)"/><path class="cls-1" d="M463.2,158c-.05-.2-.17-.43-.47-.37a3,3,0,0,0-1.77,1c-.59.73-1.11,1.48-1.66,2.22-.11.48.14.52.58.3a21.86,21.86,0,0,0,2.45-1.49C462.86,159.28,463.41,158.75,463.2,158Z" transform="translate(-44.11 -17.29)"/><path class="cls-1" d="M266.38,90.85c.25,0,.59.05.39-.33a1.09,1.09,0,0,1,0-1c.4-.89,0-1.53-.88-2.07a12.14,12.14,0,0,1-1.27-1c-.08.32-.2.51-.17.69.18,1.3,1.21,2.39,1.46,3.68C265.94,91.22,266.19,90.89,266.38,90.85Z" transform="translate(-44.11 -17.29)"/><path class="cls-1" d="M412.49,60.41A6.81,6.81,0,0,0,415.78,58a.58.58,0,0,0-.2-.82c-.28-.22-.5,0-.74.16a6.66,6.66,0,0,0-2.65,2.43c-.13.2-.17.4,0,.55A.49.49,0,0,0,412.49,60.41Z" transform="translate(-44.11 -17.29)"/><path class="cls-1" d="M374.77,47.55c.52.2.81-.21,1.1-.46a6.44,6.44,0,0,0,1.66-2.52,12,12,0,0,0,1.32-2.18l.63-1a50.31,50.31,0,0,0,3.34-5c.55-1.94.52-4,1.4-5.87A5.07,5.07,0,0,0,385.66,28a1.13,1.13,0,0,0-.28-1.65,1.56,1.56,0,0,0-1.71-.16c-.53.33-1.17.65-1.33,1.27-.88,1.07-1.74,2.12-1.69,3.53a2.91,2.91,0,0,1-.75,1.85c-.61.78-1.1,1.6-1.65,2.41a12.45,12.45,0,0,0-2.66,5.63h0a6.19,6.19,0,0,0-.46,2.61c-.28,1-.55,2-.82,3C374.18,46.88,374.19,47.33,374.77,47.55Z" transform="translate(-44.11 -17.29)"/><path class="cls-1" d="M428.06,150.08c.31.37.72.24,1.05,0a4.07,4.07,0,0,1,3.52-.78,2.7,2.7,0,0,0,1.41-.34c.26-.57.11-.85-.73-.69a9.74,9.74,0,0,1-2.4.41,3,3,0,0,0-2.38.76C428.31,149.61,427.72,149.68,428.06,150.08Z" transform="translate(-44.11 -17.29)"/><path class="cls-1" d="M318.81,77.58a20,20,0,0,0-1.61,6.55C318.23,83,319.23,79,318.81,77.58Z" transform="translate(-44.11 -17.29)"/><path class="cls-1" d="M405.46,158.39c-1.29.57-3.46,3.58-3.76,5,0,.19.13.23.33.14A28.84,28.84,0,0,0,405.46,158.39Z" transform="translate(-44.11 -17.29)"/><path class="cls-1" d="M313.25,366.13c-4.34-1.33-8.61-.52-10.46,3.69-.19.44-.6.92-.52,1.33.41,2.27,2,3.91,4.63,4.69a5.84,5.84,0,0,0,5.39-.84c.64-.73,1.26-1.47,1.92-2.18a4,4,0,0,0,1.27-2.23,3.65,3.65,0,0,0-1-3.52C314.05,366.75,313.72,366.28,313.25,366.13Zm-10,4.05h0a0,0,0,0,1,0,0Zm-.07.22a.2.2,0,0,1,0-.18c0,.12,0,.24,0,.36Zm1.31,3s0-.05-.07-.06h0a1.67,1.67,0,0,1-.12-.16l.06.06a.53.53,0,0,0,.06.1h0a.46.46,0,0,1,.07.07l.13.13h0Z" transform="translate(-44.11 -17.29)"/><path class="cls-1" d="M374,110.24c-1.06.93-2.15,1.84-2.4,3.39a16.23,16.23,0,0,0,3.12-2.61c.26-.22.09-.58-.17-.82A.43.43,0,0,0,374,110.24Z" transform="translate(-44.11 -17.29)"/><path class="cls-1" d="M116.11,117.5l-.59-1.74a1.37,1.37,0,0,0-.32-1,.77.77,0,0,0-1.09-.36c-.39.16-.78.52-.54.8C114.22,116,114.49,117.14,116.11,117.5Z" transform="translate(-44.11 -17.29)"/><path class="cls-1" d="M198.19,18.29a7.53,7.53,0,0,0,2.35.45c.53-.11,1.11-.26.79-.79-.5-.81-2.49-.88-3.2-.19C197.9,18,197.8,18.17,198.19,18.29Z" transform="translate(-44.11 -17.29)"/><path class="cls-1" d="M160.66,87.4c-.29.36.06.95-.63,1.18.86.56,1.42,1.47,2.68,1.67A4.29,4.29,0,0,0,160.66,87.4Z" transform="translate(-44.11 -17.29)"/><path class="cls-1" d="M348.15,39.17c.58-.25,1.11-.76.94-1.36s-1-.47-1.48-.35c-.83.19-.69.82-.63,1.32S347.5,39.32,348.15,39.17Z" transform="translate(-44.11 -17.29)"/><path class="cls-1" d="M76.31,158.85a1.13,1.13,0,0,0,.78.25c1.28.27,2.43,1,4.23.8-1.42-.73-2.78-1-3.78-1.7-.17-.1-.33-.2-.51-.29a.78.78,0,0,0-1,.18C75.75,158.43,76,158.66,76.31,158.85Z" transform="translate(-44.11 -17.29)"/><path class="cls-1" d="M248.55,120a6.66,6.66,0,0,0,.71-1.9c0-.46.16-1-.66-1.17C247.5,117.8,247.48,118.64,248.55,120Z" transform="translate(-44.11 -17.29)"/><path class="cls-1" d="M228.82,80.86c1.16-1.13,1-2.27,1-3.38-.24-.55.29-1,.26-1.53s.18-1,.28-1.52h0c.37-1.29.91-2.57.29-3.93-.12-.27.12-.65.19-1,.23-.19.18-.44.23-.67s-.06-.21,0-.3c.55-1.64.09-3.29.15-4.94a.91.91,0,0,0-.81-1c-.61,0-.55.54-.73.89-.36.67.34,1.33.05,2a7.21,7.21,0,0,0-.39,3.64c.14,1.64-.92,3.1-.91,4.7L228,75a10.71,10.71,0,0,1,.65,2.78C228.67,78.72,228.74,79.69,228.82,80.86Z" transform="translate(-44.11 -17.29)"/><path class="cls-1" d="M343.62,121.3c-.74.08-.61.56-.49,1s.41.58.85.32c.71-.15,1.58-.37,1.39-1S344.24,121.24,343.62,121.3Z" transform="translate(-44.11 -17.29)"/><path class="cls-1" d="M152.59,51c-.51-.76-.3-1.46-1.07-1.86-.4-.21-.88-.42-1.25-.1s0,.67.26,1A5.19,5.19,0,0,0,152.59,51Z" transform="translate(-44.11 -17.29)"/><path class="cls-1" d="M258.5,82.32a1.14,1.14,0,0,0,1.08.33c.49-.2.13-.59.08-.9s-.23-.77-.82-.86c-.4.25-1.21-.17-1.32.37S258.09,82,258.5,82.32Z" transform="translate(-44.11 -17.29)"/><path class="cls-1" d="M108.26,113.35c.57-.13.95-.45.76-.95a.65.65,0,0,0-.93-.21c-.39.26-1.19.2-1.13.86A1.15,1.15,0,0,0,108.26,113.35Z" transform="translate(-44.11 -17.29)"/><path class="cls-1" d="M306.22,362.41a4.64,4.64,0,0,0,2.29.55,4,4,0,0,0,1.42-.31c.3-.15.74-.12.91-.44a4.66,4.66,0,0,0,2.1-2.16c.68-1.88-1.17-3.75-3.91-3.94a4.9,4.9,0,0,0-3.28.95C303.81,358.68,303.45,361.79,306.22,362.41Zm5.37-2.76a.83.83,0,0,1-.32,1A2,2,0,0,0,311.59,359.65Z" transform="translate(-44.11 -17.29)"/><path class="cls-1" d="M149,76.68l2.65,2.24a8.13,8.13,0,0,0,2.12,2,4,4,0,0,0-1.48-2.28A8.88,8.88,0,0,1,150.59,76a1.15,1.15,0,0,0-.92-.87c-.49-.08-.79.34-1,.62S148.66,76.4,149,76.68Z" transform="translate(-44.11 -17.29)"/><path class="cls-1" d="M265.44,105.11l.13.18a.86.86,0,0,0,.62.3c.71.15,1.17-.14,1.21-.65s-.69-.36-1.1-.46C265.88,104.57,265.16,104.4,265.44,105.11Z" transform="translate(-44.11 -17.29)"/><path class="cls-1" d="M429,130c.07.47.5.32.93.23s1-.38.81-.9-.53-.19-.83-.13C429.36,129.27,428.88,129.45,429,130Z" transform="translate(-44.11 -17.29)"/><path class="cls-1" d="M306.56,96.48c-.37,0-.77.1-.63.55a.78.78,0,0,0,.89.52c.43-.06.86-.35.75-.77S306.94,96.45,306.56,96.48Z" transform="translate(-44.11 -17.29)"/><path class="cls-1" d="M322.3,75c0,.25.42.43.77.31a1,1,0,0,0,.66-1c-.16-.3-.47-.32-.81-.25A.73.73,0,0,0,322.3,75Z" transform="translate(-44.11 -17.29)"/><path class="cls-1" d="M348.7,83.75c-.09-.26-.15-.55-.62-.45a.81.81,0,0,0-.74.91c0,.33.31.43.71.34S348.85,84.21,348.7,83.75Z" transform="translate(-44.11 -17.29)"/><path class="cls-1" d="M113.29,272.16a1.8,1.8,0,0,0-1.49.19,5.52,5.52,0,0,0-.64.39,2.82,2.82,0,0,0,.7.28,1.92,1.92,0,0,0,1.51-.53A.19.19,0,0,0,113.29,272.16Z" transform="translate(-44.11 -17.29)"/><path class="cls-1" d="M345.88,41.64c-1.16.63-.68,1.27-.33,2C346.71,43.07,346,42.41,345.88,41.64Z" transform="translate(-44.11 -17.29)"/><path class="cls-1" d="M349,95.2c.46,0,1,.38,1.37,0,.14-.13,0-.56-.15-.75-.6-.66-1,.14-1.44.2Z" transform="translate(-44.11 -17.29)"/><path class="cls-1" d="M429.46,250.26c-.44.08-.62.28-.46.64s.53.39.94.29.63-.19.49-.54S429.92,250.18,429.46,250.26Z" transform="translate(-44.11 -17.29)"/><path class="cls-1" d="M441.21,137.15c.51-.06.3-.38.28-.52-.1-.47-.37-.63-.81-.45s-.73.29-.61.64S440.78,137.21,441.21,137.15Z" transform="translate(-44.11 -17.29)"/><path class="cls-1" d="M233.86,77.3c.32-.18.82-.25.74-.75-.22-.15-.47-.4-.82-.3s-.67.37-.5.78C233.38,77.26,233.48,77.52,233.86,77.3Z" transform="translate(-44.11 -17.29)"/><path class="cls-1" d="M354.58,81.49a3.46,3.46,0,0,0,1.26-2.64A4.24,4.24,0,0,0,354.58,81.49Z" transform="translate(-44.11 -17.29)"/><path class="cls-1" d="M269.43,93.79a1.14,1.14,0,0,0,1.48-.53,3.63,3.63,0,0,0,.28-4.58,5,5,0,0,0-2.64,3.21C268.48,92.64,268.37,93.39,269.43,93.79Z" transform="translate(-44.11 -17.29)"/><path class="cls-1" d="M428.58,63.68c-.58,0-1.15-.19-1.58.26a.61.61,0,0,0,.31.75C427.68,64.33,428.43,64.28,428.58,63.68Z" transform="translate(-44.11 -17.29)"/><path class="cls-1" d="M118.3,152.81c-.16-.73-.16-.73-1-1.14C117.48,152.14,117.39,152.74,118.3,152.81Z" transform="translate(-44.11 -17.29)"/><path class="cls-1" d="M170.27,355.85c0-.23-.24-.27-.44-.25s-.62.06-.58.39.24.34.53.36A.55.55,0,0,0,170.27,355.85Z" transform="translate(-44.11 -17.29)"/><path class="cls-1" d="M156.28,55.12a1.5,1.5,0,0,0-.6-1.47C155.67,54.35,155.68,54.77,156.28,55.12Z" transform="translate(-44.11 -17.29)"/><path class="cls-1" d="M367.78,106.31a.4.4,0,0,0,.16.42c.4.16.52-.16.94-.57C368.33,106.26,368,106.06,367.78,106.31Z" transform="translate(-44.11 -17.29)"/><path class="cls-1" d="M266.31,333.76c-1.28.78-2.8.41-4.21.57a1.79,1.79,0,0,0-.35.09c-.83.37-1.8.81-1.75,1.63s1.05,1.06,1.89,1.23c3.35.67,5.32.6,6.88-2.21.18-.32.27-.72.85-.74a4.3,4.3,0,0,0,4.22-3.21c.19-1-.28-1.45-1.35-1.82a7.07,7.07,0,0,0-4.8,0,7.28,7.28,0,0,1-1.7.22,5.52,5.52,0,0,0-3.65,1c-.53.32-1.08.66-.83,1.32s.91.59,1.52.62a2.75,2.75,0,0,0,1.42.07,2.28,2.28,0,0,1,1.87.46l.23.16a2.13,2.13,0,0,1-.1.57Z" transform="translate(-44.11 -17.29)"/><path class="cls-1" d="M271.25,336.37c-.75.19-1.57,1.32-1.3,1.88.38.79,1.15,1,2.34.71.66-.19,1.44-.51,1.26-1.41A2.15,2.15,0,0,0,271.25,336.37Z" transform="translate(-44.11 -17.29)"/><path class="cls-1" d="M277.32,346.46l-1.78-.92a12.6,12.6,0,0,0-5.1-1.72c-1.67-.09-3.33-.29-5-.44-.32.08-.64.15-.95.24a1,1,0,0,0-1.17.51,11.34,11.34,0,0,1-1.72,1.67c-.07.28-.42.29-.64.42,0,0,0,0,0,0l-.49.08c-.65.47-1,1.2-2,1.32s-1.39.59-1.41,1.35a25.23,25.23,0,0,0,.35,3.34,6.81,6.81,0,0,0,3.58,5.43,10,10,0,0,0,10.37,1.61,3.17,3.17,0,0,0,1.53-.92,12.45,12.45,0,0,1,1.43-.92,6.49,6.49,0,0,0,2.89-2.33c.76-.91,1.73-1.84,1.48-3a22.25,22.25,0,0,1-.19-3.44A2.38,2.38,0,0,0,277.32,346.46Zm-17,2.48v0h0S260.34,348.93,260.33,348.94Zm1.12-1.32a.64.64,0,0,0,0-.07l0,0Z" transform="translate(-44.11 -17.29)"/><path class="cls-1" d="M246.78,335.57c-.45-.05-.84.23-1.29.14a11.82,11.82,0,0,0-2.16.57.9.9,0,0,0-.31.18,4.07,4.07,0,0,0-1.84,2.31c-.49,1.25-.05,2,1.37,2.67.61.28,1.24.53,1.86.8a4,4,0,0,0,1.42-.31c2-.54,2.71-2,3.55-3.32C250.15,337,248.85,335.46,246.78,335.57Z" transform="translate(-44.11 -17.29)"/><path class="cls-2" d="M283.35,213.13h24.71a58.16,58.16,0,0,0-47.78-47.78v24.72A34.07,34.07,0,0,1,283.35,213.13Z" transform="translate(-44.11 -17.29)"/><path class="cls-2" d="M260.28,255.35v24.71a58.16,58.16,0,0,0,47.79-47.78H283.35A34.08,34.08,0,0,1,260.28,255.35Z" transform="translate(-44.11 -17.29)"/><path class="cls-2" d="M241.13,190.07V165.35a58.18,58.18,0,0,0-47.78,47.78h24.72A34.07,34.07,0,0,1,241.13,190.07Z" transform="translate(-44.11 -17.29)"/><path class="cls-2" d="M218.07,232.28H193.35a58.16,58.16,0,0,0,47.78,47.78V255.35A34.07,34.07,0,0,1,218.07,232.28Z" transform="translate(-44.11 -17.29)"/></svg>